<?xml version="1.0" encoding="UTF-8" standalone="no"?>
<svg
   version="1.1"
   id="svg2"
   width="69.025192"
   height="82.352531"
   viewBox="0 0 69.025192 82.352531"
   sodipodi:docname="icon_card_.svg"
   inkscape:version="1.1.1 (3bf5ae0d25, 2021-09-20)"
   xmlns:inkscape="http://www.inkscape.org/namespaces/inkscape"
   xmlns:sodipodi="http://sodipodi.sourceforge.net/DTD/sodipodi-0.dtd"
   xmlns="http://www.w3.org/2000/svg"
   xmlns:svg="http://www.w3.org/2000/svg"
   xmlns:rdf="http://www.w3.org/1999/02/22-rdf-syntax-ns#"
   xmlns:cc="http://creativecommons.org/ns#"
   xmlns:dc="http://purl.org/dc/elements/1.1/">
  <metadata
     id="metadata8">
    <rdf:RDF>
      <cc:Work
         rdf:about="">
        <dc:format>image/svg+xml</dc:format>
        <dc:type
           rdf:resource="http://purl.org/dc/dcmitype/StillImage" />
      </cc:Work>
    </rdf:RDF>
  </metadata>
  <defs
     id="defs6" />
  <sodipodi:namedview
     pagecolor="#ffffff"
     bordercolor="#666666"
     borderopacity="1"
     objecttolerance="10"
     gridtolerance="10"
     guidetolerance="10"
     inkscape:pageopacity="0"
     inkscape:pageshadow="2"
     inkscape:window-width="1024"
     inkscape:window-height="705"
     id="namedview4"
     showgrid="false"
     inkscape:pagecheckerboard="0"
     inkscape:zoom="2.0576807"
     inkscape:cx="42.03762"
     inkscape:cy="-21.140306"
     inkscape:window-x="-8"
     inkscape:window-y="-8"
     inkscape:window-maximized="1"
     inkscape:current-layer="g10" />
  <g
     inkscape:groupmode="layer"
     inkscape:label="Image"
     id="g10"
     transform="translate(-456.20905,-259.85466)">
    <path
       style="fill:#c56e20;fill-opacity:0.511364;stroke-width:0.3142"
       d="m 513.79198,342.05171 c -1.27918,-0.24451 -3.23231,-1.14068 -4.217,-1.93492 -1.14953,-0.92719 -2.76291,-3.45339 -3.13651,-4.91102 -0.35009,-1.36597 -0.55979,-1.63953 -1.62501,-2.11988 -2.40654,-1.0852 -4.64007,-4.19677 -4.64007,-6.46419 0,-0.50912 -0.29699,-0.57243 -2.68499,-0.57243 -2.43179,0 -2.75771,-0.0726 -3.4562,-0.77121 -0.968,-0.96801 -0.98434,-2.061 -0.044,-2.94442 0.63142,-0.59317 1.0867,-0.68315 3.4562,-0.68315 h 2.729 l -0.003,-3.53475 c -0.007,-7.47542 -1.16663,-13.01942 -3.89912,-18.61635 -2.05058,-4.20017 -3.50055,-6.20495 -8.11476,-11.21978 -4.24557,-4.61418 -5.98641,-6.99757 -7.86953,-10.77421 -2.88184,-5.7796 -4.1234,-11.20223 -4.10054,-17.9094 0.0361,-10.57705 4.07011,-20.19959 11.6059,-27.68397 7.51839,-7.46713 17.15089,-11.43138 27.77637,-11.43138 10.64253,0 20.36231,4.00357 27.81522,11.45702 12.27521,12.27618 15.14304,30.66183 7.18581,46.06848 -1.84341,3.56923 -4.17076,6.70364 -8.03303,10.81868 -3.55861,3.79152 -5.46377,6.40498 -7.31766,10.03815 -2.83099,5.54813 -3.91806,10.11813 -4.16859,17.52465 l -0.17801,5.26286 h 2.66196 c 2.37625,0 2.73526,0.0781 3.34512,0.72719 0.89501,0.9527 0.86482,1.94751 -0.0881,2.90038 -0.69101,0.69103 -1.03413,0.77121 -3.2991,0.77121 -2.41114,0 -2.52802,0.0327 -2.53095,0.70697 -0.009,2.04439 -2.65225,5.53717 -4.89304,6.46532 -0.80181,0.33213 -1.0591,0.71683 -1.52935,2.2867 -1.34599,4.49343 -6.15493,7.42126 -10.74753,6.54345 z m 3.98603,-4.76978 c 1.2382,-0.62553 2.81837,-2.36915 2.81837,-3.10994 0,-0.14722 -2.26226,-0.26771 -5.0272,-0.26771 -2.76497,0 -5.0272,0.1204 -5.0272,0.26771 0,0.14723 0.31925,0.74818 0.70949,1.33536 0.78145,1.17592 3.05315,2.48153 4.31771,2.48153 0.44519,0 1.43917,-0.31814 2.20883,-0.70695 z m 7.71988,-8.84474 1.06828,-1.06829 v -4.7444 -4.74443 h -10.99699 -10.99699 v 4.74443 4.7444 l 1.06826,1.06829 1.0683,1.06829 h 8.86043 8.86043 z M 513.36977,296.0682 v -17.72728 l -2.12084,-0.18919 c -7.95926,-0.71002 -10.99359,-1.44182 -12.5017,-3.01507 l -0.93034,-0.97055 -0.0977,-8.85606 -0.0977,-8.85605 -2.45063,-1.03587 c -1.78995,-0.75661 -2.55165,-1.25758 -2.82532,-1.85822 -0.59154,-1.29829 0.0507,-2.42655 1.80658,-3.17396 12.05779,-5.13225 21.07609,-8.85644 21.44628,-8.85644 0.25457,0 5.33616,2.06328 11.29246,4.58506 5.95629,2.52178 10.98719,4.65041 11.17979,4.73028 0.72181,0.29933 1.11926,1.7316 0.73674,2.65506 -0.27932,0.67436 -0.91873,1.10482 -2.84045,1.9122 l -2.47997,1.04189 -0.009,8.4834 c -0.009,9.29711 -0.0507,9.53452 -1.86147,10.75483 -1.88658,1.27137 -4.71407,1.86616 -11.72713,2.46699 l -2.12086,0.1817 v 17.57018 17.57017 h 4.48569 4.48571 l 0.5224,-3.595 c 0.94472,-6.50104 3.85903,-13.61347 7.76061,-18.93982 1.02021,-1.39277 3.29591,-4.04946 5.05713,-5.90378 6.05262,-6.37253 9.05215,-12.22545 10.22315,-19.94817 0.57536,-3.79454 0.57223,-6.58993 -0.012,-10.46394 -1.11095,-7.37047 -4.16626,-13.54065 -9.42366,-19.03102 -10.31791,-10.77512 -25.56614,-13.81904 -39.5072,-7.88659 -4.89647,2.08364 -10.66822,6.72115 -14.06743,11.30297 -8.71474,11.74664 -9.16643,27.72941 -1.13201,40.05529 0.93211,1.43001 3.13575,4.11714 4.89698,5.97146 1.7612,1.85432 4.03693,4.51101 5.05712,5.90378 3.85478,5.26247 6.77648,12.33807 7.69961,18.64649 0.27501,1.87937 0.55347,3.59379 0.61876,3.8098 0.0877,0.2899 1.27324,0.39273 4.52738,0.39273 h 4.40866 z m 12.17108,-22.78926 c 1.07776,-0.18799 2.31492,-0.47693 2.74925,-0.64204 l 0.78966,-0.30025 v -6.92017 c 0,-3.80609 -0.081,-6.92018 -0.18021,-6.92018 -0.0991,0 -3.05383,1.20183 -6.56605,2.67071 -3.5122,1.46889 -6.54627,2.67069 -6.74238,2.67069 -0.19609,0 -3.07371,-1.1474 -6.39468,-2.54978 -3.32099,-1.40238 -6.28834,-2.62142 -6.59412,-2.70895 -0.52175,-0.14929 -0.55076,0.27272 -0.4713,6.85641 l 0.0846,7.01556 1.38125,0.39971 c 0.75968,0.21987 2.59776,0.53462 4.0846,0.69946 3.34918,0.37132 15.20838,0.19127 17.85933,-0.27117 z m -1.89062,-17.35712 c 4.18652,-1.76162 7.57402,-3.24076 7.52777,-3.28701 -0.0461,-0.0463 -3.57107,-1.56327 -7.83291,-3.37116 l -7.74881,-3.28706 -7.91142,3.33764 c -6.00455,2.53319 -7.76857,3.39858 -7.3187,3.59046 8.27284,3.52874 14.83405,6.21118 15.20195,6.21507 0.25863,0.003 3.89558,-1.43635 8.08212,-3.19794 z m -38.10143,54.90305 c -0.42415,-0.42419 -0.77121,-1.0323 -0.77121,-1.35142 0,-0.71626 3.91722,-7.62657 4.62981,-8.16741 1.23433,-0.93681 3.30374,0.0523 3.30374,1.57916 0,0.92743 -3.25135,6.88505 -4.36559,7.99927 -0.92124,0.92126 -1.83536,0.90177 -2.79675,-0.0595 z m 57.387,0.22136 c -1.00593,-0.82953 -4.50315,-7.0255 -4.52002,-8.00804 -0.0292,-1.69875 1.98875,-2.75812 3.2994,-1.73215 0.70804,0.55424 4.64558,7.48354 4.64558,8.17529 0,0.7559 -1.38169,2.11475 -2.1503,2.11475 -0.33434,0 -0.90793,-0.24743 -1.27466,-0.54985 z M 464.52113,289.9267 c -0.81557,-0.90118 -0.70706,-2.20465 0.25217,-3.02976 0.44632,-0.38391 2.73822,-1.79345 5.09313,-3.13232 3.73414,-2.12304 4.38862,-2.39667 5.11831,-2.14005 0.46018,0.16185 1.03454,0.70702 1.27635,1.21157 0.71847,1.49906 0.0354,2.21549 -4.84214,5.07939 -4.68044,2.74811 -5.90722,3.10579 -6.89782,2.01117 z m 95.19826,-2.01117 c -4.87762,-2.8639 -5.56061,-3.58033 -4.84214,-5.07939 0.24181,-0.50455 0.8143,-1.04908 1.27218,-1.21011 0.72548,-0.25513 1.4172,0.038 5.37949,2.28056 2.50083,1.41532 4.79461,2.84695 5.09727,3.1814 1.22084,1.34903 0.26517,3.47788 -1.54068,3.43198 -0.62013,-0.0155 -2.56433,-0.95939 -5.36612,-2.60444 z M 456.8138,261.32411 c -0.75328,-0.75329 -0.80643,-1.80541 -0.13931,-2.7579 0.47594,-0.67947 0.6483,-0.6983 6.39241,-0.6983 5.31996,0 5.95466,0.0569 6.42328,0.57458 0.69018,0.76267 0.66135,2.3421 -0.0545,2.99001 -0.49029,0.44371 -1.41225,0.52001 -6.28399,0.52001 -5.29047,0 -5.75551,-0.0463 -6.3378,-0.6284 z m 104.83435,0.0538 c -0.69019,-0.76266 -0.66136,-2.34208 0.0545,-2.99 0.49135,-0.44466 1.42195,-0.52001 6.42329,-0.52001 5.6877,0 5.86215,0.0193 6.33781,0.69832 0.66713,0.95249 0.614,2.00459 -0.13932,2.75789 -0.58272,0.58272 -1.04732,0.62839 -6.39238,0.62839 -5.18505,0 -5.81625,-0.0578 -6.28401,-0.57459 z m -92.72982,-25.92256 c -2.6612,-1.55538 -4.53695,-2.86029 -4.76154,-3.31252 -0.52918,-1.06559 0.012,-2.39997 1.16891,-2.87892 0.88232,-0.36548 1.16861,-0.24775 5.54729,2.2811 4.82371,2.78592 5.95238,3.77869 5.59088,4.91768 -0.73781,2.3246 -2.17227,2.13309 -7.54554,-1.00734 z m 86.44015,2.14481 c -0.77219,-0.77221 -0.91932,-1.69801 -0.39659,-2.49577 0.26623,-0.40631 2.45973,-1.88399 4.8744,-3.28372 5.1562,-2.9889 6.26174,-3.197 7.22889,-1.36069 0.71809,1.36339 -0.10217,2.211 -4.83732,4.99856 -4.53599,2.67034 -5.91174,3.09926 -6.86938,2.14162 z M 490.33602,220.0854 c -1.00944,-1.02384 -5.55843,-9.16075 -5.55843,-9.94251 0,-1.71433 2.47744,-2.5317 3.67235,-1.21158 1.15596,1.2771 5.43946,9.00511 5.43946,9.81354 0,1.81849 -2.24656,2.66603 -3.55338,1.34055 z m 47.54134,0.0784 c -0.34562,-0.34563 -0.6284,-0.98603 -0.6284,-1.42309 0,-0.79804 5.06097,-9.82901 5.75583,-10.2709 1.22091,-0.77645 3.35597,0.28785 3.35597,1.67292 0,0.78175 -4.54902,8.91868 -5.55843,9.9425 -0.86298,0.8753 -2.09512,0.9084 -2.92497,0.0786 z M 514.141,213.737 c -0.75986,-0.75983 -0.77123,-0.852 -0.77123,-6.24918 0,-4.85552 0.0659,-5.55927 0.57945,-6.19356 0.78778,-0.97287 2.45212,-0.97287 3.23991,0 0.51362,0.63429 0.57944,1.33804 0.57944,6.19356 0,5.39718 -0.012,5.48935 -0.77123,6.24918 -0.42416,0.42417 -1.06683,0.77122 -1.42816,0.77122 -0.36133,0 -1.00403,-0.34705 -1.42818,-0.77122 z"
       id="path13626"
       inkscape:export-filename="C:\Users\Home\Desktop\WORKSPACE\STUDY\memory_game\img\icon_card.png"
       inkscape:export-xdpi="76"
       inkscape:export-ydpi="76" />
  </g>
</svg>
