<?xml version="1.0" encoding="UTF-8" standalone="no"?>
<svg
   version="1.1"
   id="svg2"
   width="103.51332"
   height="62.775158"
   viewBox="0 0 103.51332 62.775158"
   sodipodi:docname="superMemorylayout.svg"
   inkscape:version="1.1.1 (3bf5ae0d25, 2021-09-20)"
   xmlns:inkscape="http://www.inkscape.org/namespaces/inkscape"
   xmlns:sodipodi="http://sodipodi.sourceforge.net/DTD/sodipodi-0.dtd"
   xmlns:xlink="http://www.w3.org/1999/xlink"
   xmlns="http://www.w3.org/2000/svg"
   xmlns:svg="http://www.w3.org/2000/svg"
   xmlns:rdf="http://www.w3.org/1999/02/22-rdf-syntax-ns#"
   xmlns:cc="http://creativecommons.org/ns#"
   xmlns:dc="http://purl.org/dc/elements/1.1/">
  <metadata
     id="metadata8">
    <rdf:RDF>
      <cc:Work
         rdf:about="">
        <dc:format>image/svg+xml</dc:format>
        <dc:type
           rdf:resource="http://purl.org/dc/dcmitype/StillImage" />
      </cc:Work>
    </rdf:RDF>
  </metadata>
  <defs
     id="defs6">
    <linearGradient
       inkscape:collect="always"
       id="linearGradient131360">
      <stop
         style="stop-color:#ffffff;stop-opacity:1;"
         offset="0"
         id="stop131356" />
      <stop
         style="stop-color:#ffffff;stop-opacity:0;"
         offset="1"
         id="stop131358" />
    </linearGradient>
    <linearGradient
       inkscape:collect="always"
       id="linearGradient124625">
      <stop
         style="stop-color:#ffffff;stop-opacity:1;"
         offset="0"
         id="stop124621" />
      <stop
         style="stop-color:#ffffff;stop-opacity:0;"
         offset="1"
         id="stop124623" />
    </linearGradient>
    <linearGradient
       inkscape:collect="always"
       id="linearGradient123273">
      <stop
         style="stop-color:#fffbf9;stop-opacity:0"
         offset="0"
         id="stop123269" />
      <stop
         style="stop-color:#fbfbfb;stop-opacity:1"
         offset="1"
         id="stop123271" />
    </linearGradient>
    <linearGradient
       inkscape:collect="always"
       id="linearGradient121321">
      <stop
         style="stop-color:#0b68b1;stop-opacity:1;"
         offset="0"
         id="stop121317" />
      <stop
         style="stop-color:#76c3ff;stop-opacity:1"
         offset="1"
         id="stop121319" />
    </linearGradient>
    <linearGradient
       inkscape:collect="always"
       id="linearGradient56723">
      <stop
         style="stop-color:#ae4e03;stop-opacity:1"
         offset="0"
         id="stop56719" />
      <stop
         style="stop-color:#ffbb50;stop-opacity:1"
         offset="1"
         id="stop56721" />
    </linearGradient>
    <linearGradient
       inkscape:collect="always"
       id="linearGradient30036">
      <stop
         style="stop-color:#e37114;stop-opacity:1"
         offset="0"
         id="stop30032" />
      <stop
         style="stop-color:#ffc842;stop-opacity:1"
         offset="1"
         id="stop30034" />
    </linearGradient>
    <inkscape:path-effect
       effect="bspline"
       id="path-effect8749"
       is_visible="true"
       lpeversion="1"
       weight="33.333333"
       steps="2"
       helper_size="0"
       apply_no_weight="true"
       apply_with_weight="true"
       only_selected="false" />
    <clipPath
       clipPathUnits="userSpaceOnUse"
       id="clipPath466">
      <rect
         style="font-variation-settings:normal;opacity:0.17;vector-effect:none;fill:#008000;fill-opacity:1;fill-rule:evenodd;stroke-width:0.96073;stroke-linecap:butt;stroke-linejoin:miter;stroke-miterlimit:4;stroke-dasharray:none;stroke-dashoffset:0;stroke-opacity:1;stop-color:#000000;stop-opacity:1"
         id="rect468"
         width="59.043415"
         height="52.767841"
         x="260.01932"
         y="310.46512"
         ry="0.97390312" />
    </clipPath>
    <linearGradient
       inkscape:collect="always"
       xlink:href="#linearGradient30036"
       id="linearGradient30038"
       x1="33.055759"
       y1="38.669907"
       x2="32.74543"
       y2="28.593636"
       gradientUnits="userSpaceOnUse" />
    <linearGradient
       inkscape:collect="always"
       xlink:href="#linearGradient56723"
       id="linearGradient56725"
       x1="42.64798"
       y1="55.754459"
       x2="40.805168"
       y2="43.136578"
       gradientUnits="userSpaceOnUse" />
    <filter
       inkscape:collect="always"
       style="color-interpolation-filters:sRGB"
       id="filter65587"
       x="-0.0053891891"
       y="-0.023947288"
       width="1.0107784"
       height="1.0478946">
      <feGaussianBlur
         inkscape:collect="always"
         stdDeviation="0.16821762"
         id="feGaussianBlur65589" />
    </filter>
    <filter
       inkscape:collect="always"
       style="color-interpolation-filters:sRGB"
       id="filter65709"
       x="-0.020573779"
       y="-0.091421216"
       width="1.0411476"
       height="1.1828425">
      <feGaussianBlur
         inkscape:collect="always"
         stdDeviation="0.4739703"
         id="feGaussianBlur65711" />
    </filter>
    <filter
       inkscape:collect="always"
       style="color-interpolation-filters:sRGB"
       id="filter66282"
       x="-0.0069948127"
       y="-0.025754633"
       width="1.0139896"
       height="1.0515093">
      <feGaussianBlur
         inkscape:collect="always"
         stdDeviation="0.16009876"
         id="feGaussianBlur66284" />
    </filter>
    <linearGradient
       inkscape:collect="always"
       xlink:href="#linearGradient121321"
       id="linearGradient121323"
       x1="3.75"
       y1="-13"
       x2="5.5856748"
       y2="-97.548515"
       gradientUnits="userSpaceOnUse"
       gradientTransform="matrix(1,0,0,1.184581,4.2175144,2.4998852)" />
    <linearGradient
       inkscape:collect="always"
       xlink:href="#linearGradient123273"
       id="linearGradient123267"
       gradientUnits="userSpaceOnUse"
       x1="32.272415"
       y1="30.631823"
       x2="32.347637"
       y2="26.834181" />
    <linearGradient
       inkscape:collect="always"
       xlink:href="#linearGradient124625"
       id="linearGradient125730"
       gradientUnits="userSpaceOnUse"
       x1="43.500469"
       y1="41.067181"
       x2="43.498035"
       y2="44.818928"
       gradientTransform="translate(17.011552,-10.120944)" />
    <linearGradient
       inkscape:collect="always"
       xlink:href="#linearGradient124625"
       id="linearGradient125732"
       gradientUnits="userSpaceOnUse"
       x1="43.500469"
       y1="41.067181"
       x2="43.498035"
       y2="44.818928"
       gradientTransform="translate(17.011552,-10.120944)" />
    <linearGradient
       inkscape:collect="always"
       xlink:href="#linearGradient124625"
       id="linearGradient125734"
       gradientUnits="userSpaceOnUse"
       x1="43.500469"
       y1="41.067181"
       x2="43.731022"
       y2="44.935421"
       gradientTransform="translate(17.011552,-10.120944)" />
    <linearGradient
       inkscape:collect="always"
       xlink:href="#linearGradient124625"
       id="linearGradient125736"
       gradientUnits="userSpaceOnUse"
       x1="43.500469"
       y1="41.067181"
       x2="43.498035"
       y2="44.818928"
       gradientTransform="translate(17.011552,-10.120944)" />
    <linearGradient
       inkscape:collect="always"
       xlink:href="#linearGradient124625"
       id="linearGradient125738"
       gradientUnits="userSpaceOnUse"
       x1="43.500469"
       y1="41.067181"
       x2="43.498035"
       y2="44.818928"
       gradientTransform="translate(17.011552,-10.120944)" />
    <linearGradient
       inkscape:collect="always"
       xlink:href="#linearGradient124625"
       id="linearGradient125740"
       gradientUnits="userSpaceOnUse"
       x1="43.500469"
       y1="41.067181"
       x2="43.498035"
       y2="44.818928"
       gradientTransform="translate(17.011552,-10.120944)" />
    <linearGradient
       inkscape:collect="always"
       xlink:href="#linearGradient124625"
       id="linearGradient125742"
       gradientUnits="userSpaceOnUse"
       x1="43.500469"
       y1="41.067181"
       x2="43.498035"
       y2="44.818928"
       gradientTransform="translate(17.011552,-10.120944)" />
    <filter
       inkscape:collect="always"
       style="color-interpolation-filters:sRGB"
       id="filter130443"
       x="-0.022809364"
       y="-0.031280759"
       width="1.0456187"
       height="1.0625615">
      <feGaussianBlur
         inkscape:collect="always"
         stdDeviation="0.032097957"
         id="feGaussianBlur130445" />
    </filter>
    <linearGradient
       inkscape:collect="always"
       xlink:href="#linearGradient131360"
       id="linearGradient131362"
       x1="60.51202"
       y1="29.298763"
       x2="58.968777"
       y2="30.889275"
       gradientUnits="userSpaceOnUse"
       gradientTransform="translate(0.212448,-0.27359775)" />
    <linearGradient
       inkscape:collect="always"
       xlink:href="#linearGradient30036"
       id="linearGradient141938"
       gradientUnits="userSpaceOnUse"
       x1="33.055759"
       y1="38.669907"
       x2="32.74543"
       y2="28.593636" />
  </defs>
  <sodipodi:namedview
     pagecolor="#ffffff"
     bordercolor="#666666"
     borderopacity="1"
     objecttolerance="10"
     gridtolerance="10"
     guidetolerance="10"
     inkscape:pageopacity="0"
     inkscape:pageshadow="2"
     inkscape:window-width="1024"
     inkscape:window-height="705"
     id="namedview4"
     showgrid="false"
     inkscape:pagecheckerboard="0"
     inkscape:zoom="3.4351445"
     inkscape:cx="40.464091"
     inkscape:cy="-84.27593"
     inkscape:window-x="-8"
     inkscape:window-y="-8"
     inkscape:window-maximized="1"
     inkscape:current-layer="layer3"
     showguides="false"
     inkscape:guide-bbox="true"
     inkscape:snap-global="false">
    <sodipodi:guide
       position="9.9999999,173.27516"
       orientation="0.70710678,-0.70710678"
       id="guide8530" />
  </sodipodi:namedview>
  <g
     inkscape:groupmode="layer"
     inkscape:label="Image"
     id="g10"
     transform="translate(-237.74544,-302.33337)">
    <path
       style="fill:#c56e20;fill-opacity:0.511364;stroke-width:0.0263637"
       d="m 363.6832,329.17094 c -0.10734,-0.0205 -0.27122,-0.0957 -0.35384,-0.16236 -0.0965,-0.0778 -0.23183,-0.28976 -0.26318,-0.41207 -0.0294,-0.11461 -0.047,-0.13757 -0.13635,-0.17787 -0.20192,-0.0911 -0.38933,-0.35214 -0.38933,-0.54239 0,-0.0427 -0.0249,-0.048 -0.22529,-0.048 -0.20405,0 -0.23139,-0.006 -0.29,-0.0647 -0.0812,-0.0812 -0.0826,-0.17293 -0.004,-0.24705 0.053,-0.0498 0.0912,-0.0573 0.29,-0.0573 h 0.22898 l -2.5e-4,-0.29659 c -5.9e-4,-0.62724 -0.0979,-1.09242 -0.32717,-1.56204 -0.17206,-0.35243 -0.29372,-0.52064 -0.68088,-0.94142 -0.35624,-0.38717 -0.50231,-0.58715 -0.66031,-0.90404 -0.24181,-0.48495 -0.34599,-0.93995 -0.34407,-1.50273 0.003,-0.88749 0.34151,-1.69489 0.97382,-2.32288 0.63085,-0.62655 1.43908,-0.95918 2.33064,-0.95918 0.89298,0 1.70854,0.33593 2.3339,0.96133 1.02998,1.03006 1.27061,2.57275 0.60294,3.86548 -0.15468,0.29948 -0.34996,0.56248 -0.67403,0.90776 -0.29859,0.31814 -0.45845,0.53743 -0.61401,0.84228 -0.23754,0.46553 -0.32875,0.84898 -0.34977,1.47044 l -0.0149,0.44159 h 0.22336 c 0.19939,0 0.22951,0.007 0.28068,0.061 0.0751,0.0799 0.0726,0.16341 -0.007,0.24336 -0.058,0.058 -0.0868,0.0647 -0.27682,0.0647 -0.20231,0 -0.21212,0.003 -0.21236,0.0593 -7.6e-4,0.17154 -0.22255,0.46461 -0.41057,0.54249 -0.0673,0.0279 -0.0889,0.0602 -0.12832,0.19187 -0.11294,0.37703 -0.51644,0.6227 -0.9018,0.54905 z m 0.33445,-0.40022 c 0.1039,-0.0525 0.23649,-0.19879 0.23649,-0.26095 0,-0.0124 -0.18982,-0.0225 -0.42182,-0.0225 -0.232,0 -0.42182,0.0101 -0.42182,0.0225 0,0.0123 0.0268,0.0628 0.0595,0.11205 0.0656,0.0987 0.25618,0.20821 0.36229,0.20821 0.0374,0 0.12075,-0.0267 0.18533,-0.0593 z m 0.64776,-0.74214 0.0896,-0.0896 v -0.39809 -0.39809 h -0.92272 -0.92273 v 0.39809 0.39809 l 0.0896,0.0896 0.0896,0.0896 h 0.74346 0.74345 z m -1.01764,-2.716 v -1.48744 l -0.17795,-0.0159 c -0.66784,-0.0596 -0.92245,-0.12098 -1.04899,-0.25298 l -0.0781,-0.0814 -0.008,-0.74309 -0.008,-0.74308 -0.20563,-0.0869 c -0.15019,-0.0635 -0.2141,-0.10552 -0.23706,-0.15592 -0.0496,-0.10894 0.004,-0.20361 0.15158,-0.26632 1.01174,-0.43063 1.76844,-0.74312 1.7995,-0.74312 0.0214,0 0.44774,0.17313 0.94752,0.38472 0.49977,0.2116 0.9219,0.3902 0.93806,0.39691 0.0606,0.0251 0.0939,0.14529 0.0618,0.22278 -0.0234,0.0566 -0.0771,0.0927 -0.23833,0.16044 l -0.20809,0.0874 -7.6e-4,0.71181 c -7.5e-4,0.7801 -0.004,0.80002 -0.15619,0.90241 -0.15829,0.10668 -0.39554,0.15659 -0.98399,0.207 l -0.17795,0.0152 v 1.47426 1.47427 h 0.37638 0.37638 l 0.0438,-0.30165 c 0.0793,-0.54548 0.3238,-1.14227 0.65117,-1.58919 0.0856,-0.11686 0.27655,-0.33978 0.42433,-0.49537 0.50786,-0.5347 0.75954,-1.0258 0.85779,-1.67379 0.0483,-0.31839 0.048,-0.55295 -0.001,-0.878 -0.0932,-0.61844 -0.34958,-1.13616 -0.79072,-1.59685 -0.86574,-0.90411 -2.14518,-1.15951 -3.31494,-0.66174 -0.41085,0.17483 -0.89514,0.56396 -1.18036,0.9484 -0.73123,0.98563 -0.76913,2.3267 -0.095,3.36093 0.0782,0.11999 0.26311,0.34546 0.41089,0.50105 0.14778,0.15559 0.33873,0.37851 0.42433,0.49537 0.32344,0.44156 0.5686,1.03526 0.64605,1.56458 0.0231,0.15769 0.0464,0.30154 0.0519,0.31967 0.007,0.0243 0.10684,0.033 0.37988,0.033 h 0.36992 z m 1.02124,-1.91218 c 0.0904,-0.0158 0.19424,-0.04 0.23068,-0.0539 l 0.0663,-0.0252 v -0.58065 c 0,-0.31936 -0.007,-0.58065 -0.0151,-0.58065 -0.008,0 -0.25624,0.10084 -0.55094,0.22409 -0.2947,0.12325 -0.54928,0.22409 -0.56573,0.22409 -0.0165,0 -0.25791,-0.0963 -0.53656,-0.21394 -0.27866,-0.11767 -0.52764,-0.21996 -0.5533,-0.2273 -0.0438,-0.0125 -0.0462,0.0229 -0.0395,0.5753 l 0.007,0.58865 0.11589,0.0335 c 0.0637,0.0185 0.21797,0.0449 0.34273,0.0587 0.28102,0.0312 1.27609,0.0161 1.49853,-0.0227 z m -0.15863,-1.45639 c 0.35128,-0.14781 0.63551,-0.27192 0.63163,-0.2758 -0.004,-0.004 -0.29964,-0.13117 -0.65724,-0.28287 l -0.65018,-0.27581 -0.66382,0.28006 c -0.50383,0.21255 -0.65184,0.28516 -0.6141,0.30126 0.69415,0.29609 1.24469,0.52117 1.27556,0.52149 0.0217,2.5e-4 0.32686,-0.12052 0.67815,-0.26833 z m -3.19699,4.60677 c -0.0356,-0.0356 -0.0647,-0.0866 -0.0647,-0.1134 0,-0.0601 0.32868,-0.63992 0.38847,-0.6853 0.10357,-0.0786 0.27721,0.004 0.27721,0.1325 0,0.0778 -0.27281,0.57771 -0.3663,0.6712 -0.0773,0.0773 -0.154,0.0757 -0.23467,-0.005 z m 4.81519,0.0186 c -0.0844,-0.0696 -0.37785,-0.58949 -0.37927,-0.67193 -0.002,-0.14254 0.16687,-0.23143 0.27685,-0.14534 0.0594,0.0465 0.38979,0.62792 0.38979,0.68596 0,0.0634 -0.11593,0.17745 -0.18042,0.17745 -0.0281,0 -0.0762,-0.0208 -0.10695,-0.0461 z m -6.57957,-1.77208 c -0.0684,-0.0756 -0.0593,-0.18499 0.0212,-0.25422 0.0375,-0.0322 0.22976,-0.15048 0.42735,-0.26283 0.31333,-0.17813 0.36824,-0.20109 0.42947,-0.17956 0.0386,0.0136 0.0868,0.0593 0.10709,0.10166 0.0603,0.12578 0.003,0.18589 -0.40629,0.4262 -0.39272,0.23058 -0.49566,0.26059 -0.57878,0.16875 z m 7.98783,-0.16875 c -0.40927,-0.24031 -0.46657,-0.30042 -0.40629,-0.4262 0.0203,-0.0423 0.0683,-0.088 0.10675,-0.10154 0.0609,-0.0214 0.11891,0.003 0.45137,0.19136 0.20984,0.11875 0.40231,0.23888 0.4277,0.26694 0.10244,0.11319 0.0222,0.29182 -0.12927,0.28797 -0.052,-0.001 -0.21517,-0.0805 -0.45026,-0.21853 z m -8.63453,-2.23122 c -0.0632,-0.0632 -0.0677,-0.15148 -0.0117,-0.23141 0.0399,-0.057 0.0544,-0.0586 0.53637,-0.0586 0.44639,0 0.49964,0.005 0.53896,0.0482 0.0579,0.064 0.0555,0.19652 -0.005,0.25089 -0.0411,0.0372 -0.1185,0.0436 -0.52727,0.0436 -0.44391,0 -0.48293,-0.004 -0.53179,-0.0527 z m 8.79637,0.005 c -0.0579,-0.064 -0.0555,-0.19652 0.005,-0.25089 0.0412,-0.0373 0.11931,-0.0436 0.53896,-0.0436 0.47724,0 0.49188,0.002 0.53179,0.0586 0.056,0.0799 0.0515,0.1682 -0.0117,0.2314 -0.0489,0.0489 -0.0879,0.0527 -0.53637,0.0527 -0.43506,0 -0.48802,-0.005 -0.52727,-0.0482 z m -7.78071,-2.17509 c -0.22329,-0.13051 -0.38068,-0.24 -0.39953,-0.27795 -0.0444,-0.0894 10e-4,-0.20137 0.0981,-0.24156 0.074,-0.0307 0.0981,-0.0208 0.46546,0.1914 0.40475,0.23376 0.49945,0.31706 0.46912,0.41263 -0.0619,0.19505 -0.18227,0.17898 -0.63313,-0.0845 z m 7.25296,0.17996 c -0.0648,-0.0648 -0.0771,-0.14247 -0.0333,-0.20941 0.0223,-0.0341 0.20639,-0.15808 0.409,-0.27553 0.43264,-0.25079 0.5254,-0.26825 0.60656,-0.11417 0.0603,0.1144 -0.009,0.18552 -0.40589,0.41941 -0.3806,0.22406 -0.49604,0.26005 -0.57639,0.1797 z m -5.45586,-1.46961 c -0.0847,-0.0859 -0.46639,-0.76866 -0.46639,-0.83425 0,-0.14385 0.20787,-0.21243 0.30814,-0.10166 0.097,0.10715 0.45641,0.75559 0.45641,0.82342 0,0.15259 -0.18851,0.2237 -0.29816,0.11249 z m 3.98907,0.007 c -0.029,-0.029 -0.0527,-0.0827 -0.0527,-0.1194 0,-0.067 0.42465,-0.82473 0.48295,-0.86181 0.10245,-0.0651 0.28159,0.0242 0.28159,0.14037 0,0.0656 -0.38169,0.74834 -0.46639,0.83425 -0.0724,0.0734 -0.17579,0.0762 -0.24542,0.007 z m -1.99166,-0.53925 c -0.0638,-0.0638 -0.0647,-0.0715 -0.0647,-0.52435 0,-0.40742 0.006,-0.46647 0.0486,-0.51969 0.0661,-0.0816 0.20575,-0.0816 0.27185,0 0.0431,0.0532 0.0486,0.11227 0.0486,0.51969 0,0.45286 -0.001,0.46059 -0.0647,0.52435 -0.0356,0.0356 -0.0895,0.0647 -0.11983,0.0647 -0.0303,0 -0.0842,-0.0291 -0.11984,-0.0647 z"
       id="path13626"
       inkscape:export-filename="C:\Users\Home\Desktop\WORKSPACE\STUDY\memory_game\img\icon_card.png"
       inkscape:export-xdpi="76"
       inkscape:export-ydpi="76" />
  </g>
  <g
     inkscape:groupmode="layer"
     id="layer2"
     inkscape:label="Super Memory">
    <g
       inkscape:groupmode="layer"
       id="layer3"
       inkscape:label="text">
      <rect
         style="font-variation-settings:normal;opacity:1;vector-effect:none;fill:url(#linearGradient121323);fill-opacity:1;fill-rule:evenodd;stroke:none;stroke-width:1.08838;stroke-linecap:butt;stroke-linejoin:miter;stroke-miterlimit:4;stroke-dasharray:none;stroke-dashoffset:0;stroke-opacity:1;stop-color:#000000;stop-opacity:1"
         id="rect98394"
         width="178"
         height="116.68122"
         x="-44.782486"
         y="-116.5505"
         ry="6.0709772" />
      <path
         id="path166910"
         style="font-weight:bold;font-size:16.1511px;line-height:0;font-family:'Fredoka One';-inkscape-font-specification:'Fredoka One Bold';letter-spacing:0.96px;word-spacing:0px;opacity:1;fill:#550000;stroke:#2b0000;stroke-width:3.66556;stroke-miterlimit:4;stroke-dasharray:none"
         d="m 68.368021,-82.643811 c -0.233468,-0.0032 -0.464826,0.01462 -0.694451,0.05369 l -3.382767,0.574531 c -0.559473,0.09523 -0.915934,0.259814 -1.075684,0.490415 -0.164771,0.09315 -0.271898,0.203622 -0.3168,0.334702 -0.05657,0.158719 -0.08457,0.2991 -0.08412,0.418818 7.91e-4,0.0095 0.0026,0.02544 0.0036,0.03579 -0.09674,0.08104 -0.164017,0.17295 -0.196881,0.275632 -0.05687,0.170769 -0.08637,0.320434 -0.08591,0.449241 0.0081,0.10303 0.0316,0.262344 0.06443,0.461778 -0.10963,0.0736 -0.195439,0.153789 -0.230888,0.248791 -0.05687,0.146485 -0.08636,0.274321 -0.08591,0.38481 10e-4,0.01088 0.0058,0.02903 0.0071,0.04116 -0.237577,0.09581 -0.3866,0.218201 -0.442087,0.366913 -0.05687,0.146494 -0.08637,0.274321 -0.08591,0.38481 0.0092,0.100015 0.0361,0.252273 0.07696,0.458195 l 1.478395,7.454621 c 0.06218,0.313369 0.139853,0.540643 0.232677,0.68371 0.190979,0.312993 0.649328,0.416315 1.379954,0.309639 0.62252,-0.09089 0.996241,-0.254024 1.12401,-0.48862 0.451633,-0.121806 0.720709,-0.305176 0.800051,-0.553059 0.05684,-0.170779 0.08068,-0.314753 0.0716,-0.431345 -5.8e-5,-0.01671 -0.0028,-0.04228 -0.0036,-0.06086 0.244066,-0.112441 0.396485,-0.255325 0.452826,-0.431345 0.05684,-0.170778 0.08068,-0.314762 0.0716,-0.431345 -4.4e-4,-0.128807 -0.02,-0.312993 -0.06086,-0.553059 l -0.03042,-0.182564 0.406289,-0.05906 0.479673,-0.09665 c 0.997538,1.346837 1.565787,2.096719 1.703913,2.251598 0.0804,0.08039 0.193472,0.156061 0.336487,0.22731 0.151676,0.06078 0.324316,0.07728 0.522629,0.04832 0.20875,-0.03047 0.469443,-0.131942 0.778573,-0.306056 0.312151,-0.17 0.524686,-0.343619 0.655075,-0.517257 0.03924,-0.02398 0.07712,-0.04467 0.118129,-0.0716 0.57924,-0.367738 0.843646,-0.744017 0.801841,-1.125794 0.399266,-0.316934 0.574739,-0.639292 0.519049,-0.966507 -0.02843,-0.167003 -0.151768,-0.424096 -0.372284,-0.773204 -0.664876,-1.003786 -1.159986,-1.762548 -1.483764,-2.276661 0.653131,-0.895166 0.879083,-1.93306 0.678344,-3.1125 -0.11547,-0.678431 -0.355772,-1.27029 -0.721299,-1.777292 -0.365528,-0.507002 -0.783886,-0.887615 -1.256457,-1.140118 -0.727288,-0.40715 -1.418292,-0.512464 -2.153159,-0.599593 z m -43.677074,0.941444 c -0.995226,-0.01644 -1.825654,0.251869 -2.491435,0.803637 -0.50763,0.420696 -0.863116,0.911615 -1.066735,1.473023 -0.384764,0.479492 -0.615496,1.030975 -0.694451,1.652004 -0.0267,0.05277 -0.05948,0.103231 -0.08233,0.157509 -0.407851,0.437329 -0.642487,0.941609 -0.70519,1.515974 -0.06318,0.578728 0.01276,1.087801 0.230887,1.524937 0.171804,0.320883 0.386715,0.58408 0.642547,0.789305 -0.211101,0.213455 -0.327158,0.402854 -0.343646,0.567374 -0.0098,0.09761 0.0034,0.202733 0.03579,0.315009 -0.0088,0.03239 -0.01681,0.06406 -0.01968,0.09486 -1.62e-4,0.0017 1.51e-4,0.0037 0,0.0054 -0.488056,0.34021 -0.747719,0.625647 -0.773204,0.859116 -0.0041,0.038 -0.0035,0.07771 0,0.118132 -0.325067,0.25964 -0.500165,0.485365 -0.520839,0.674756 -0.02468,0.226073 0.08505,0.495831 0.327538,0.807211 l 0.123498,0.159296 c 0.191755,0.289066 0.552155,0.60183 1.079264,0.936083 0.257297,0.175736 0.601833,0.335591 1.032728,0.479666 0.431883,0.135039 0.895243,0.221519 1.390693,0.261318 0.969817,0.0779 1.907423,-0.0887 2.813603,-0.499359 0.103824,-0.04614 0.202336,-0.101014 0.298901,-0.157509 0.159344,-0.06598 0.31867,-0.136982 0.476094,-0.220145 0.469396,-0.243155 0.864202,-0.609876 1.186652,-1.10074 0.13125,-0.203475 0.240773,-0.42493 0.329328,-0.658655 0.06647,-0.08422 0.132124,-0.171768 0.193301,-0.264901 0.323438,-0.501403 0.515737,-1.093885 0.579903,-1.779079 0.04338,-0.463281 0.01801,-0.880852 -0.07338,-1.254666 -0.04069,-0.279765 -0.119102,-0.535511 -0.236256,-0.767834 -0.21795,-0.46384 -0.515927,-0.801823 -0.896702,-1.013042 -0.134938,-0.07486 -0.277502,-0.144716 -0.422398,-0.212987 0.140735,-0.179686 0.24234,-0.342537 0.255945,-0.467148 5.86e-4,-0.0054 -3.06e-4,-0.01063 0,-0.01611 0.02044,-0.02013 0.04035,-0.03778 0.06086,-0.05906 0.287546,-0.296169 0.44203,-0.535081 0.461775,-0.71593 0.008,-0.07334 -0.01855,-0.157867 -0.06264,-0.248791 0.190853,-0.258165 0.299052,-0.475744 0.315009,-0.646119 6.58e-4,-0.0071 -3.05e-4,-0.01431 0,-0.02148 0.01982,-0.02282 0.03918,-0.04394 0.05906,-0.06801 0.287544,-0.345259 0.442029,-0.623237 0.461774,-0.834062 0.01974,-0.210824 -0.118871,-0.483423 -0.417029,-0.819738 l -0.368704,-0.338276 c -0.184494,-0.18742 -0.531201,-0.384957 -1.043467,-0.592428 -0.500738,-0.217074 -1.067844,-0.354249 -1.700332,-0.413448 -0.148899,-0.01395 -0.294543,-0.02272 -0.436718,-0.02506 z m 36.002309,0.19509 c -0.09008,0.0034 -0.195607,0.01154 -0.316799,0.02327 l -6.226797,0.601381 c -0.522419,0.05055 -0.87831,0.175104 -1.070314,0.370496 -0.09474,0.04923 -0.172089,0.105358 -0.229098,0.170036 -0.133806,0.143709 -0.204653,0.371239 -0.211199,0.681923 -0.0461,0.03481 -0.08662,0.07232 -0.119919,0.112752 -0.167147,0.192131 -0.234419,0.523873 -0.20404,0.993358 -0.0147,0.01264 -0.03552,0.02245 -0.04832,0.03579 -0.129727,0.12791 -0.198665,0.32837 -0.20941,0.599594 -0.134384,0.05287 -0.240273,0.117325 -0.313219,0.193303 -0.07371,0.07268 -0.122373,0.174582 -0.157505,0.293529 -0.0749,-0.309685 -0.184951,-0.603773 -0.327537,-0.880596 -0.286207,-0.555644 -0.649571,-0.992276 -1.090003,-1.31194 -0.891864,-0.660314 -1.803321,-0.982984 -2.734851,-0.964711 l -3.397086,0.068 c -0.587762,0.01151 -0.974635,0.126609 -1.159806,0.345442 -0.09258,0.05798 -0.162618,0.125876 -0.205829,0.207618 -0.08115,0.149124 -0.131761,0.284255 -0.150346,0.402707 -0.0037,0.04809 -0.006,0.111287 -0.0071,0.182563 -0.103853,0.06496 -0.182457,0.143626 -0.229097,0.238051 -0.08158,0.160442 -0.131663,0.303902 -0.150346,0.431345 -0.0071,0.09863 -0.0077,0.252795 -0.0054,0.442085 -0.03406,0.03224 -0.07316,0.06253 -0.09486,0.100234 -0.08158,0.137624 -0.133453,0.261171 -0.152135,0.370488 -0.0035,0.04177 -0.0041,0.0968 -0.0054,0.157509 -0.176137,0.06379 -0.300121,0.150214 -0.365123,0.263104 -0.08158,0.137624 -0.131663,0.259384 -0.150346,0.368701 -0.0083,0.10006 -0.01012,0.256506 -0.0054,0.465361 l 0.171823,7.55842 c 0.0072,0.317813 0.04573,0.553683 0.112759,0.706986 0.134694,0.33384 0.570951,0.495693 1.311941,0.483249 0.455013,-0.0076 0.779907,-0.07363 0.993353,-0.187934 0.547368,-0.03936 0.884753,-0.185981 1.01125,-0.442084 0.08158,-0.160442 0.125935,-0.300384 0.134237,-0.417031 0.0079,-0.0535 0.0124,-0.122934 0.01611,-0.196877 0.179928,-0.07458 0.304638,-0.176314 0.370494,-0.309639 0.08158,-0.160442 0.127724,-0.300384 0.136026,-0.417031 0.01869,-0.127442 0.02446,-0.31138 0.01968,-0.554847 l -0.0054,-0.257734 0.660445,-0.01253 c 0.942117,-0.01582 1.844452,-0.320489 2.709794,-0.91639 0.336926,-0.227549 0.621443,-0.517999 0.857325,-0.862699 0.389558,-0.328003 0.708655,-0.749588 0.955767,-1.26898 0.03167,-0.06789 0.06181,-0.136194 0.08949,-0.20583 0.162563,-0.214692 0.305644,-0.453512 0.431348,-0.717726 0.167302,-0.358656 0.27872,-0.741634 0.334696,-1.149061 l 0.6157,5.450009 -0.03042,-0.0036 c -0.185332,-0.403239 -0.398949,-0.600446 -0.642547,-0.585271 -0.03766,0.0024 -0.176364,0.04411 -0.417029,0.12528 l -2.285606,0.866282 c -0.249492,0.09117 -0.41643,0.201065 -0.50294,0.329323 -0.0512,0.08826 -0.07262,0.212245 -0.06264,0.372283 0.01,0.160047 0.05914,0.35149 0.148555,0.572744 0.213521,0.54428 0.462132,0.806908 0.744566,0.789314 l 0.320379,-0.09665 c 0.02428,0.120551 0.06373,0.254802 0.123498,0.402708 0.01004,0.02559 0.02023,0.04725 0.03042,0.0716 -0.482095,0.07869 -0.948586,0.231407 -1.399643,0.459982 -0.595495,0.301776 -1.115199,0.697776 -1.557146,1.188448 -0.441948,0.490662 -0.782425,1.088524 -1.02199,1.793402 -0.240151,0.695458 -0.335111,1.434398 -0.286372,2.215803 0.08927,1.430989 0.664652,2.633146 1.727181,3.606489 0.198032,0.179714 0.401833,0.339798 0.61212,0.483259 0.173336,0.212565 0.364193,0.417791 0.576323,0.612121 1.071942,0.972747 2.324054,1.413732 3.75505,1.324467 1.430997,-0.08926 2.603085,-0.68732 3.517005,-1.793403 0.913332,-1.115493 1.322392,-2.416126 1.229609,-3.90361 -0.07791,-1.249085 -0.503166,-2.304344 -1.274355,-3.167987 -0.269241,-0.435093 -0.60902,-0.832265 -1.020199,-1.188438 -0.365403,-0.316531 -0.747612,-0.57268 -1.147278,-0.773204 -0.454074,-0.318675 -0.932468,-0.553839 -1.435439,-0.706986 l 1.12759,-0.436715 c 0.249492,-0.09117 0.41643,-0.201065 0.50294,-0.329332 0.01608,-0.02771 0.02927,-0.0592 0.03938,-0.09307 0.09036,-9.17e-4 0.172706,0.003 0.273843,-0.0054 l 6.259015,-0.519043 c 0.368844,-0.03062 0.641334,-0.08124 0.81437,-0.150352 0.117387,-0.04377 0.205809,-0.119314 0.279212,-0.211201 0.208849,-0.03405 0.376074,-0.07755 0.493991,-0.132446 0.293637,-0.127644 0.448518,-0.431354 0.470724,-0.905649 0.01589,-0.0064 0.0356,-0.01114 0.05012,-0.0179 0.377688,-0.164189 0.531358,-0.61542 0.459984,-1.353104 -0.04951,-0.511712 -0.166852,-0.861654 -0.350805,-1.054206 -0.09496,-0.298853 -0.238476,-0.488289 -0.434928,-0.562004 -0.165348,-0.0644 -0.311701,-0.09491 -0.438506,-0.09308 -0.117334,-0.0092 -0.295851,-0.0039 -0.536947,0.01791 l -1.72539,0.155713 c 0.01881,-0.07639 0.03238,-0.157757 0.03759,-0.248791 0.01082,-0.0038 0.02564,-0.0085 0.03579,-0.01253 0.09316,-0.03401 0.171262,-0.08271 0.238047,-0.144973 0.0043,-0.0019 0.01015,-0.0034 0.01432,-0.0054 0.302936,-0.128918 0.463738,-0.435322 0.486832,-0.912816 0.01048,-0.0044 0.02417,-0.008 0.03401,-0.01253 0.388226,-0.165207 0.547467,-0.61542 0.476093,-1.353105 -0.03521,-0.36388 -0.106223,-0.644094 -0.209409,-0.846588 0.142187,-0.139585 0.224622,-0.34416 0.239835,-0.622852 0.01539,-0.0054 0.03423,-0.01228 0.04832,-0.01791 0.330869,-0.123382 0.480628,-0.446006 0.467143,-0.946814 0.156982,-0.16177 0.241732,-0.41528 0.257735,-0.757093 0.01603,-0.0065 0.03548,-0.01288 0.05012,-0.01969 0.377688,-0.16418 0.531358,-0.613623 0.459985,-1.351308 -0.06526,-0.674472 -0.248875,-1.07202 -0.547686,-1.192031 -0.166232,-0.06915 -0.312815,-0.103845 -0.440297,-0.102012 -0.05898,-0.0049 -0.133642,-0.0052 -0.223728,-0.0018 z m -28.638973,0.583484 c -0.228596,0.002 -0.41996,0.02513 -0.572744,0.06623 -0.203711,0.05481 -0.350631,0.158196 -0.442086,0.313213 -0.02703,0.04583 -0.05022,0.09094 -0.0716,0.134242 l -0.0018,0.0018 c -0.09097,0.144084 -0.148925,0.274843 -0.175402,0.391976 -0.0059,0.0405 -0.01093,0.09886 -0.01611,0.1575 -0.108931,0.05863 -0.19571,0.135947 -0.255945,0.238051 -0.09146,0.155016 -0.150569,0.296369 -0.177192,0.422391 -0.01559,0.115905 -0.02845,0.300979 -0.03938,0.554847 l -0.0018,0.02148 c -0.01148,0.01364 -0.02388,0.02645 -0.03401,0.04116 -0.09145,0.132978 -0.15236,0.255233 -0.178982,0.36334 -0.008,0.05058 -0.01296,0.115676 -0.01968,0.196877 -0.141585,0.05141 -0.251953,0.127983 -0.323957,0.232681 -0.09146,0.132977 -0.148782,0.253436 -0.175403,0.361543 -0.01559,0.09942 -0.03023,0.258321 -0.04116,0.476092 l -0.20583,4.096904 c -0.06104,1.215884 0.313708,2.32128 1.12222,3.314756 0.388844,0.48708 0.903372,0.888175 1.544618,1.202762 0.651822,0.314982 1.379672,0.487556 2.183585,0.517256 0.726565,0.02684 1.39706,-0.06721 2.017132,-0.268474 0.347652,-0.06681 0.680383,-0.16967 0.998722,-0.309639 0.680978,-0.309786 1.245036,-0.724471 1.691383,-1.245713 0.382154,-0.460734 0.688485,-0.947355 0.921759,-1.45871 0.657871,-0.969219 1.014312,-2.040607 1.064946,-3.216308 l 0.205829,-4.79315 c 0.01595,-0.370231 -0.0033,-0.646137 -0.05906,-0.828691 -0.03593,-0.149913 -0.0995,-0.26371 -0.191511,-0.34186 -0.09201,-0.07811 -0.226956,-0.146952 -0.404501,-0.207617 -0.177545,-0.06066 -0.419912,-0.09777 -0.726669,-0.110965 -0.296178,-0.01277 -0.546224,0.0079 -0.749935,0.06264 -0.189982,0.05111 -0.338102,0.152212 -0.449246,0.298899 -0.05122,0.04143 -0.09973,0.08712 -0.139606,0.141399 -0.08983,0.122255 -0.147837,0.321414 -0.177193,0.590641 -0.09038,0.05749 -0.168288,0.13075 -0.230888,0.221931 -0.113068,0.164693 -0.177324,0.453741 -0.19509,0.866282 l -0.0036,0.07874 c -0.01649,0.01699 -0.03876,0.02789 -0.05369,0.04653 -0.09105,0.11377 -0.147945,0.30141 -0.177193,0.55306 -0.141443,0.05289 -0.256299,0.130704 -0.343646,0.239837 -0.113068,0.141271 -0.179115,0.388898 -0.19688,0.74278 l -0.20941,4.164919 c -0.0018,0.03661 -0.01124,0.06956 -0.01432,0.105595 -0.334586,0.188135 -0.737057,0.273185 -1.209921,0.254161 -0.431387,-0.01736 -0.801745,-0.115483 -1.109691,-0.295325 -0.307946,-0.179832 -0.534997,-0.411028 -0.680133,-0.692662 -0.101972,-0.194119 -0.182402,-0.390831 -0.245207,-0.590641 -0.05267,-0.281112 -0.07519,-0.56785 -0.06264,-0.859116 l 0.20404,-4.759142 c 0.01823,-0.423116 -0.03031,-0.758917 -0.146766,-1.007672 -0.06721,-0.161852 -0.199095,-0.278674 -0.397341,-0.350803 -0.198244,-0.07209 -0.466931,-0.11606 -0.80542,-0.130659 -0.08462,-0.0037 -0.165428,-0.006 -0.241627,-0.0054 z m 35.007167,3.746101 c 0.192775,0.0029 0.390837,0.05215 0.590642,0.127075 l -1.068525,0.170036 -0.04116,-0.241624 0.275633,-0.03938 c 0.08089,-0.01181 0.161276,-0.01736 0.243416,-0.01611 z m -20.883666,1.762978 c 0.265281,-0.0044 0.525702,0.06302 0.780363,0.19509 l -1.41933,0.02685 -0.0036,-0.2112 z m 27.953471,3.857067 c -0.168238,-0.01142 -0.341646,0.01618 -0.520838,0.08234 -0.221227,0.08166 -0.411371,0.221583 -0.569165,0.420605 -0.148944,0.195759 -0.233738,0.413823 -0.255945,0.653285 l -0.844797,8.743294 c -0.03938,0.356402 -0.03227,0.608455 0.02327,0.758881 0.117601,0.318592 0.479922,0.507304 1.084633,0.565586 0.02181,0.0024 0.03975,0.0034 0.06086,0.0054 -0.01286,0.234568 5.93e-4,0.409681 0.04296,0.524423 0.1176,0.318528 0.479922,0.50724 1.084633,0.565577 0.356401,0.03934 0.6176,0.02806 0.785732,-0.03401 0.176981,-0.06533 0.304444,-0.156785 0.381233,-0.275632 0.08236,-0.130952 0.13013,-0.244089 0.144976,-0.340063 0.02369,-0.09925 0.04843,-0.253922 0.0716,-0.463565 l 0.161084,-1.689594 3.635133,-1.342364 0.0716,0.0698 c 0.153825,0.144313 0.270314,0.251797 0.347226,0.323953 0.03852,0.03094 0.08209,0.05892 0.130657,0.08413 l 0.710561,0.687292 c 0.153823,0.144313 0.270313,0.251796 0.347225,0.323962 0.08577,0.06888 0.195528,0.124217 0.331117,0.164657 0.144438,0.03721 0.300804,0.02449 0.468935,-0.03758 0.176981,-0.06534 0.388263,-0.228914 0.633597,-0.490415 0.418512,-0.44608 0.568636,-0.82871 0.451036,-1.147275 -0.05553,-0.150434 -0.214592,-0.348887 -0.476093,-0.594223 l -6.318079,-6.08361 c -0.08266,-0.07755 -0.166382,-0.139319 -0.252365,-0.193304 l -0.936078,-0.902066 c -0.249964,-0.234514 -0.514286,-0.360416 -0.794682,-0.37945 z m -61.450027,0.551272 c -0.193645,0.0097 -0.341022,0.06373 -0.442086,0.16287 -0.110671,0.116043 -0.191281,0.225359 -0.239836,0.329332 -0.03694,0.09741 -0.08316,0.25099 -0.141396,0.459982 l -2.1084128,7.565587 c -0.060765,0.218073 -0.102202,0.382418 -0.1234978,0.493989 -0.012209,0.1141 3.397e-4,0.244511 0.037587,0.391976 0.060753,0.253346 0.3181716,0.454658 0.7678346,0.604955 0.08251,0.107603 0.210732,0.202559 0.383022,0.286372 0.0064,0.06444 0.01927,0.131539 0.03759,0.204043 0.06794,0.283311 0.380005,0.50242 0.934288,0.656859 0.572456,0.159535 0.960516,0.135773 1.165175,-0.07159 0.10814,-0.106952 0.179632,-0.208644 0.216569,-0.306056 0.04856,-0.103983 0.102851,-0.261739 0.161084,-0.470731 l 0.948607,-3.404242 c 0.154351,0.403633 0.281204,0.732205 0.354385,0.903863 l 0.06801,0.180767 c 0.04738,0.111122 0.138135,0.23926 0.273843,0.38482 0.147327,0.138961 0.320934,0.236016 0.520839,0.291742 0.02316,0.0064 0.04674,0.0092 0.0698,0.01431 0.02617,0.03116 0.04627,0.06015 0.07696,0.09307 0.05635,0.05315 0.118518,0.09864 0.182562,0.139612 l 0.06443,0.171823 c 0.04738,0.111122 0.138134,0.239251 0.273842,0.384811 0.147327,0.138961 0.320934,0.236025 0.520839,0.291742 0.208992,0.05822 0.415203,0.06081 0.615699,0.009 0.212114,-0.05841 0.347456,-0.108491 0.408081,-0.150343 0.06316,-0.05094 0.175319,-0.136175 0.336486,-0.257734 0.08532,-0.06435 0.398621,-0.318207 0.60854,-0.485045 l -0.547686,1.968808 c -0.08861,0.318033 -0.131256,0.561326 -0.128867,0.728457 0.01252,0.130787 0.05049,0.239361 0.114548,0.325749 0.06406,0.0864 0.167827,0.174627 0.30964,0.263105 0.09976,0.06224 0.230204,0.120615 0.390182,0.175406 0.0644,0.07407 0.15446,0.148125 0.275632,0.223727 0.03019,0.01883 0.06453,0.03733 0.10023,0.05549 -5.63e-4,0.01682 -0.002,0.03638 -0.0018,0.0519 0.01252,0.130787 0.05049,0.239352 0.114548,0.32574 0.06406,0.0864 0.167827,0.174636 0.30964,0.263105 0.141812,0.08848 0.343238,0.168212 0.60675,0.241633 0.263511,0.07342 0.488717,0.106641 0.676553,0.100226 0.375674,-0.01283 0.652201,-0.332366 0.826899,-0.959341 l 1.399643,-5.02583 -0.493992,4.068267 c -0.03982,0.327737 -0.04157,0.570022 -0.0036,0.726669 0.05596,0.299009 0.308182,0.501165 0.748146,0.610334 0.08325,0.135498 0.223269,0.242184 0.418819,0.322166 0.0045,0.06072 0.01033,0.116895 0.02148,0.16287 0.06915,0.369479 0.432738,0.593363 1.088213,0.672979 l 5.560983,0.674765 c 0.327738,0.03989 0.574977,0.04221 0.740987,0.0054 0.360113,-0.07029 0.58083,-0.432738 0.660445,-1.088213 0.07279,-0.599292 -0.01009,-0.980107 -0.246995,-1.141914 -0.0906,-0.06341 -0.176716,-0.108968 -0.257735,-0.139603 -0.02752,-0.269996 -0.115718,-0.455968 -0.263104,-0.556633 -0.13136,-0.09195 -0.253894,-0.148794 -0.365124,-0.171823 -0.03592,-0.01113 -0.08731,-0.02173 -0.137816,-0.03222 -0.04246,-0.08227 -0.09679,-0.148731 -0.164665,-0.195091 -0.131359,-0.09196 -0.252104,-0.148794 -0.363333,-0.171823 -0.10073,-0.03128 -0.258935,-0.06155 -0.474304,-0.0877 l -3.024803,-0.366914 0.05906,-0.481462 2.75275,0.334693 c 0.327737,0.03989 0.574976,0.04042 0.740987,0.0036 0.369477,-0.06915 0.593359,-0.43095 0.672974,-1.086426 0.07279,-0.599291 -0.0083,-0.980106 -0.245206,-1.141904 -0.092,-0.0644 -0.179189,-0.11081 -0.261314,-0.141399 -0.02797,-0.267861 -0.112858,-0.45288 -0.259525,-0.55306 -0.131359,-0.09195 -0.253895,-0.148785 -0.365124,-0.171823 -0.0364,-0.0113 -0.08824,-0.02337 -0.139606,-0.034 -0.04239,-0.08186 -0.09524,-0.148904 -0.162874,-0.195099 -0.131359,-0.09195 -0.252104,-0.148785 -0.363334,-0.171823 -0.100729,-0.03128 -0.258933,-0.05976 -0.474303,-0.08591 l -1.480185,-0.180767 0.05906,-0.481462 4.311686,0.524413 c 0.327737,0.0399 0.574976,0.04221 0.740986,0.0054 0.313142,-0.06111 0.520024,-0.344773 0.62107,-0.848375 l -0.175403,6.620559 c -0.006,0.226302 -0.0064,0.394909 0,0.508312 0.01587,0.113651 0.0605,0.23828 0.132447,0.372284 0.09882,0.189482 0.317439,0.31182 0.653285,0.370496 0.005,0.0099 0.0089,0.02037 0.01432,0.03042 0.06989,0.134004 0.199946,0.2339 0.388392,0.302482 2.73e-4,0.0055 -2.99e-4,0.0144 0,0.01968 0.01587,0.113651 0.0605,0.23828 0.132448,0.372284 0.134718,0.258312 0.489748,0.394661 1.064944,0.409873 0.594058,0.01568 0.965107,-0.101737 1.113271,-0.352599 0.07892,-0.130027 0.123857,-0.247334 0.136026,-0.350803 0.02189,-0.112652 0.03548,-0.277116 0.04117,-0.493989 l 0.110969,-4.159558 c 0.354531,0.510576 0.635278,0.908591 0.776783,1.095379 l 0.10918,0.159287 c 0.07295,0.09629 0.192763,0.197858 0.359754,0.306065 0.105504,0.05913 0.218217,0.09772 0.334697,0.123493 0.02283,0.02688 0.04879,0.05455 0.07875,0.08234 0.119097,0.167269 0.237283,0.33341 0.306059,0.424188 l 0.10918,0.159296 c 0.07294,0.09628 0.192763,0.197849 0.359754,0.306056 0.17667,0.09901 0.368876,0.152011 0.576323,0.157509 0.216879,0.0057 0.415903,-0.04241 0.597802,-0.141399 0.191577,-0.108161 0.312902,-0.189858 0.361544,-0.245207 0.04889,-0.06476 0.136289,-0.17405 0.263105,-0.33112 0.09962,-0.123373 0.392443,-0.507451 0.7034,-0.916389 l -0.05369,2.020712 c -0.0087,0.330038 0.009,0.57586 0.0519,0.73741 0.04391,0.123823 0.106598,0.219915 0.189721,0.288159 0.08313,0.06825 0.204278,0.127607 0.363334,0.17898 0.04772,0.01541 0.103071,0.02794 0.161083,0.03938 0.0386,0.07313 0.08608,0.133885 0.143186,0.180777 0.06992,0.05741 0.168081,0.108445 0.291742,0.153926 0.0089,0.09845 0.02123,0.185834 0.03938,0.254151 0.04391,0.123823 0.106598,0.219915 0.189721,0.288159 0.08312,0.06825 0.204278,0.127607 0.363334,0.178989 0.159056,0.05137 0.376252,0.08049 0.649706,0.0877 0.273455,0.0072 0.499479,-0.01436 0.680133,-0.06623 0.361309,-0.103689 0.551985,-0.482314 0.569164,-1.132951 l 0.20583,-7.850171 c 0.0057,-0.216882 0.0016,-0.382135 -0.01432,-0.495785 -0.0064,-0.113394 -0.04642,-0.241378 -0.118128,-0.384811 -0.06645,-0.136863 -0.201768,-0.23729 -0.40271,-0.306056 -1.34e-4,-0.001 1.35e-4,-0.0026 0,-0.0036 -0.0064,-0.113394 -0.04642,-0.241377 -0.118128,-0.38481 -0.091,-0.18742 -0.310067,-0.310775 -0.653286,-0.370497 -0.0049,-0.01023 -0.0092,-0.02004 -0.01432,-0.03042 -0.12529,-0.258073 -0.488307,-0.393928 -1.091793,-0.409873 -0.594056,-0.01568 -0.974884,0.100454 -1.141908,0.350812 -0.52737,0.631173 -1.590119,1.94874 -3.112503,3.85528 l -2.120942,-2.942473 -0.08233,-0.0877 -0.438507,-0.608547 -0.08233,-0.0877 c -0.05484,-0.0675 -0.176238,-0.13175 -0.363334,-0.193304 -0.05508,-0.02196 -0.114674,-0.03969 -0.177192,-0.05548 l -0.04475,-0.06264 -0.08233,-0.0877 c -0.05484,-0.06751 -0.176239,-0.131749 -0.363334,-0.193303 -0.177417,-0.07074 -0.393321,-0.109619 -0.647917,-0.116345 -0.594056,-0.01569 -0.965355,0.09684 -1.11327,0.338276 -0.07917,0.139457 -0.128498,0.265002 -0.150345,0.377654 -0.01221,0.103479 -0.02117,0.264589 -0.02685,0.481462 l -0.0054,0.23268 c -0.04237,-0.178457 -0.120755,-0.307146 -0.234467,-0.38481 -0.09121,-0.06384 -0.178023,-0.110773 -0.259525,-0.141399 -0.02776,-0.26885 -0.114311,-0.454438 -0.261314,-0.554847 -0.13136,-0.09195 -0.253895,-0.148785 -0.365124,-0.171823 -0.03592,-0.01115 -0.0873,-0.02171 -0.137816,-0.03221 -0.04252,-0.08275 -0.09652,-0.148547 -0.164665,-0.19509 -0.131359,-0.09196 -0.252103,-0.150581 -0.363333,-0.173619 -0.100729,-0.03121 -0.258934,-0.05976 -0.474304,-0.08591 l -5.534136,-0.671182 c -0.496288,-0.06028 -0.843943,-0.01311 -1.043467,0.143186 -0.186113,0.137852 -0.309718,0.423125 -0.372284,0.851958 -0.04982,-0.03173 -0.105435,-0.0621 -0.166453,-0.09128 -0.0041,-0.06271 -0.0126,-0.129944 -0.02864,-0.202247 -0.05182,-0.247261 -0.307126,-0.449792 -0.764255,-0.604964 -0.143436,-0.186119 -0.432104,-0.339505 -0.864485,-0.459982 -0.572456,-0.159535 -0.96919,-0.137862 -1.192023,0.06443 -0.62365,0.454145 -1.898677,1.417389 -3.644081,2.747383 l -1.351317,-3.389928 -0.05906,-0.103809 c -0.03679,-0.0788 -0.139518,-0.172263 -0.30606,-0.277428 -0.01365,-0.0098 -0.02861,-0.01913 -0.04295,-0.02864 l -0.114548,-0.284575 -0.05906,-0.105605 c -0.03679,-0.0788 -0.13773,-0.170476 -0.304271,-0.275632 -0.117742,-0.0849 -0.261379,-0.156703 -0.431347,-0.21657 -0.05344,-0.05605 -0.130739,-0.11772 -0.236257,-0.184351 -0.154922,-0.111707 -0.354253,-0.201899 -0.599591,-0.270261 -0.286228,-0.07974 -0.525863,-0.113513 -0.719509,-0.103809 z m 54.671963,1.353105 c -0.133061,0.0074 -0.280988,0.02843 -0.442086,0.06443 -0.589158,0.131685 -0.92003,0.336554 -0.993353,0.613908 -0.0428,0.154549 -0.06177,0.289927 -0.05549,0.404504 0.01343,0.103323 0.04396,0.260786 0.09128,0.472509 l 1.716441,7.676561 c 0.07202,0.322193 0.151681,0.550558 0.239836,0.685496 0.119259,0.205528 0.330436,0.31665 0.631808,0.334702 0.01188,0.02223 0.02361,0.04757 0.03579,0.06622 0.07831,0.134957 0.195771,0.228676 0.352596,0.282798 0.05273,0.179814 0.107965,0.319389 0.168243,0.41166 0.188658,0.325117 0.604906,0.416087 1.249298,0.272049 0.589158,-0.131685 0.92182,-0.336544 0.995141,-0.613908 0.04279,-0.15454 0.05639,-0.283283 0.04295,-0.386597 -0.0042,-0.105385 -0.03116,-0.267687 -0.08054,-0.488629 l -1.714651,-7.678339 c -0.07202,-0.322202 -0.14988,-0.555405 -0.230887,-0.701615 -0.08161,-0.130824 -0.201988,-0.222573 -0.361545,-0.273845 -0.05081,-0.180162 -0.104341,-0.323211 -0.159294,-0.422392 -0.122378,-0.196162 -0.33241,-0.303086 -0.630018,-0.320379 -0.01246,-0.02722 -0.0249,-0.05585 -0.03759,-0.07875 -0.146855,-0.235393 -0.418767,-0.342556 -0.817951,-0.320379 z m -5.954744,1.166967 c -0.207894,-0.0073 -0.415792,0.0036 -0.621069,0.03401 l -3.023013,0.449241 c -0.597168,0.08854 -0.941242,0.26744 -1.034518,0.538737 -0.05393,0.15103 -0.08211,0.284392 -0.08412,0.399133 0.0059,0.10402 0.02367,0.263279 0.05549,0.477879 l 1.152646,7.767834 c 0.04842,0.326583 0.112008,0.565614 0.191512,0.715939 0.108768,0.219081 0.32855,0.340494 0.655076,0.370487 0.0043,0.0089 0.0082,0.02031 0.01253,0.02864 0.07667,0.154439 0.208886,0.259907 0.393762,0.320379 0.03685,0.15652 0.07874,0.284484 0.127077,0.375867 0.163158,0.328636 0.571088,0.444064 1.224239,0.34722 0.597168,-0.08854 0.943032,-0.269226 1.036309,-0.540523 0.05393,-0.151031 0.07752,-0.277208 0.0716,-0.381237 0.002,-0.114732 -0.01293,-0.281167 -0.04475,-0.495776 l -0.234466,-1.580415 1.732549,-0.255948 c 0.378773,0.617491 0.662711,1.073175 0.739198,1.177708 0.06982,0.08501 0.167727,0.166709 0.293531,0.243411 0.09391,0.04633 0.199636,0.06717 0.315009,0.06801 0.01742,0.0259 0.04798,0.07436 0.05906,0.08949 0.04765,0.05802 0.108823,0.114091 0.182562,0.16824 0.166394,0.266541 0.290387,0.460761 0.338277,0.52621 0.06982,0.08501 0.167727,0.166719 0.293531,0.24342 0.133751,0.06598 0.289861,0.08534 0.467144,0.05906 0.186616,-0.02768 0.418817,-0.129367 0.698032,-0.304269 0.542539,-0.328379 0.788193,-0.669212 0.735617,-1.023782 -0.02214,-0.149289 -0.128822,-0.38109 -0.318588,-0.696236 -0.573098,-0.906759 -0.997544,-1.59242 -1.276145,-2.056517 0.598811,-0.784906 0.818568,-1.705529 0.662235,-2.7599 -0.08993,-0.606504 -0.292616,-1.137973 -0.60854,-1.596525 -0.12055,-0.174976 -0.247884,-0.333823 -0.383022,-0.476092 -0.0437,-0.07496 -0.08864,-0.148776 -0.137817,-0.220154 -0.315924,-0.458552 -0.682834,-0.804178 -1.098952,-1.038095 -0.101922,-0.05696 -0.202932,-0.108968 -0.30427,-0.1575 -0.116128,-0.09071 -0.236347,-0.173042 -0.361544,-0.243421 -0.647246,-0.361754 -1.282479,-0.552574 -1.906163,-0.574531 z m 14.814373,2.0225 0.375864,0.359757 -0.425979,0.1575 z m -13.797753,1.576832 c 0.04529,-0.0025 0.09041,-10e-4 0.136027,0.0018 0.05343,0.398593 -0.03692,0.719082 -0.272054,0.95935 -0.240154,0.245382 -0.495452,0.387633 -0.766044,0.427771 l -0.787522,0.116336 -0.182563,-1.231399 1.762977,-0.261318 c 0.03616,-0.0053 0.07282,-0.01057 0.109179,-0.01253 z m -10.602917,1.002302 c 0.345067,0.01266 0.675818,0.101316 0.993352,0.259521 0.215618,0.376481 0.340647,0.815477 0.372283,1.322681 0.05344,0.856714 -0.171641,1.557615 -0.676553,2.099467 -0.504913,0.54188 -1.09097,0.833558 -1.759397,0.875226 -0.387394,0.02417 -0.759716,-0.04456 -1.11685,-0.196886 -0.02889,-0.02269 -0.05902,-0.04224 -0.0877,-0.06622 -0.03236,-0.02806 -0.06059,-0.05854 -0.09128,-0.08771 -0.182316,-0.35457 -0.290088,-0.758368 -0.318589,-1.215289 -0.05226,-0.837883 0.174018,-1.532085 0.678343,-2.083348 0.503739,-0.560712 1.089181,-0.862204 1.757607,-0.903863 0.08356,-0.0052 0.166787,-0.0066 0.248786,-0.0036 z"
         sodipodi:nodetypes="scccccccccccccccccsccccccccccccsccccsccssccscscccsccscscccsccccsccccccsccscsccccsccscccsccccccccccccccsccccccccccccccccccccccccccccccccccccccccscccccsscscccscscsccccccccccccscccccccccccsccccccscccccssccccsccccccscccccsccccccccscccscsccscscccsscccccccccsccccssccccccsccccccscscccccccccccssscccccccccccccccccccccccccccccccccscccsscsccssssccccccccccsccccccccccccscccccccccccccccccccccccccccccccccccccscccsscsccsscccccccccccccccccccccccsccccccccccccccccccccccccccccccscccscccccccccscccccccccccscccccccccccsccccccccccccccsccsscscccsccccccsccccccscscccccsccss" />
      <g
         id="g73125"
         transform="matrix(1.0183619,0,0,1.0183619,-2.7306332,-13.380729)"
         style="stroke:none">
        <g
           id="g67507"
           transform="translate(-6.3810333,-87.631033)"
           style="stroke:none">
          <g
             id="g132065"
             style="stroke:none">
            <path
               id="path66185"
               style="font-weight:bold;font-size:16.1511px;line-height:0;font-family:'Fredoka One';-inkscape-font-specification:'Fredoka One Bold';letter-spacing:0.96px;word-spacing:0px;opacity:0.602446;fill:#241c1c;stroke:none;stroke-width:1.448;filter:url(#filter66282)"
               d="m 76.143296,16.594518 c -0.237434,-0.0033 -0.473507,0.01494 -0.707032,0.05469 l -3.439453,0.583984 c -0.679344,0.115624 -1.068141,0.330687 -1.167969,0.642578 -0.05784,0.173675 -0.0864,0.326041 -0.08594,0.457031 0.001,0.0129 0.0045,0.03445 0.0059,0.04883 -0.241611,0.113591 -0.392788,0.257288 -0.449218,0.433594 -0.05784,0.173676 -0.08836,0.326041 -0.08789,0.457032 0.0093,0.118568 0.03657,0.29883 0.07813,0.542968 l 1.503906,8.837891 c 0.06323,0.371517 0.141928,0.640937 0.236328,0.810547 0.194223,0.371067 0.661264,0.493652 1.404297,0.367187 0.679344,-0.115624 1.070094,-0.328733 1.169922,-0.640625 0.05781,-0.173674 0.08151,-0.320884 0.07227,-0.439453 -5.7e-5,-0.01664 -0.0032,-0.04208 -0.0039,-0.06055 0.248514,-0.114391 0.403601,-0.260315 0.460938,-0.439453 0.05781,-0.173673 0.08347,-0.320884 0.07422,-0.439453 -4.47e-4,-0.130991 -0.0229,-0.318361 -0.06445,-0.5625 l -0.164063,-0.974609 1.333984,-0.226563 0.488282,-0.115234 c 1.014477,1.596739 1.591949,2.486307 1.732421,2.669922 0.08176,0.09531 0.196354,0.185063 0.341797,0.269531 0.154252,0.07205 0.331524,0.09097 0.533203,0.05664 0.212296,-0.03613 0.476637,-0.156863 0.791016,-0.363282 0.589343,-0.374155 0.857272,-0.756087 0.814453,-1.144531 0.406219,-0.322376 0.585945,-0.649584 0.529297,-0.982422 -0.02891,-0.169836 -0.156599,-0.432077 -0.380859,-0.787109 -0.676168,-1.02083 -1.178537,-1.791617 -1.507813,-2.314453 0.664223,-0.910374 0.893602,-1.966549 0.689453,-3.166016 -0.11743,-0.689959 -0.360686,-1.292984 -0.732421,-1.808594 -0.371734,-0.515609 -0.798701,-0.90141 -1.279297,-1.158203 -0.747487,-0.397045 -1.477152,-0.599541 -2.189453,-0.609375 z m -44.417969,0.957031 c -1.012126,-0.01671 -1.85807,0.255276 -2.535157,0.816407 -0.517508,0.428882 -0.879111,0.93123 -1.085937,1.503906 -0.414777,0.518484 -0.654982,1.117886 -0.71875,1.798828 -0.06425,0.686111 0.0145,1.288399 0.236328,1.806641 0.233555,0.508524 0.543392,0.894921 0.929688,1.158203 0.386296,0.26328 0.80608,0.501095 1.261718,0.716797 0.456643,0.20498 0.886758,0.365322 1.28711,0.478515 0.400351,0.113194 0.726566,0.268218 0.978515,0.464844 0.257368,0.182438 0.375219,0.393533 0.359375,0.632813 -0.263574,0.148101 -0.620995,0.202965 -1.078125,0.160156 -0.235851,-0.02209 -0.486326,-0.127543 -0.75,-0.314453 -0.26267,-0.197631 -0.46073,-0.393541 -0.59375,-0.589844 -0.485827,-0.586226 -0.879513,-0.893768 -1.179687,-0.921875 -0.300174,-0.02811 -0.594612,0.07445 -0.886719,0.30664 -0.503149,0.407092 -0.768822,0.748611 -0.794922,1.027344 -0.0042,0.04506 -0.0035,0.09271 0,0.140625 -0.330587,0.307826 -0.508272,0.574295 -0.529297,0.798828 -0.0251,0.268013 0.08543,0.587874 0.332032,0.957032 l 0.126953,0.189453 c 0.195012,0.342698 0.561596,0.71311 1.097656,1.109375 0.261666,0.208351 0.610615,0.397548 1.048828,0.568359 0.439217,0.16009 0.912152,0.26336 1.416016,0.310547 0.986285,0.09236 1.939759,-0.10493 2.861328,-0.591797 0.477367,-0.247287 0.879105,-0.619939 1.207031,-1.11914 0.133758,-0.20736 0.243828,-0.431655 0.333985,-0.669922 0.06797,-0.08604 0.134729,-0.174332 0.197265,-0.269532 0.328927,-0.509922 0.524584,-1.113714 0.589844,-1.810546 0.06526,-0.696832 -0.01935,-1.293212 -0.253906,-1.791016 -0.222835,-0.507521 -0.528661,-0.878256 -0.917969,-1.109375 -0.389308,-0.231119 -0.818688,-0.433599 -1.289063,-0.607422 -0.46937,-0.184545 -0.905285,-0.327215 -1.30664,-0.429687 -0.401356,-0.102473 -0.732475,-0.258446 -0.994141,-0.466797 -0.187616,-0.15502 -0.297882,-0.332289 -0.330078,-0.533203 0.221826,-0.09825 0.475249,-0.134067 0.759766,-0.107422 0.353776,0.03313 0.635577,0.128613 0.847656,0.289062 0.07002,0.06063 0.144923,0.138627 0.222656,0.232422 0.08845,0.0948 0.147581,0.153281 0.177734,0.177734 0.312256,0.245535 0.58151,0.379311 0.806641,0.400391 0.385938,0.03614 0.784525,-0.195375 1.199219,-0.697266 0.292429,-0.351122 0.44867,-0.635199 0.46875,-0.849609 5.97e-4,-0.0064 -3.11e-4,-0.01304 0,-0.01953 0.02078,-0.02387 0.04165,-0.04508 0.0625,-0.07031 0.292429,-0.351122 0.44867,-0.635199 0.46875,-0.849609 0.02008,-0.21441 -0.120608,-0.491968 -0.423828,-0.833985 l -0.375,-0.34375 c -0.187626,-0.190602 -0.541535,-0.390557 -1.0625,-0.601562 -0.509242,-0.220718 -1.085286,-0.361635 -1.728516,-0.421875 -0.151427,-0.01418 -0.29877,-0.023 -0.443359,-0.02539 z m 36.613281,0.199219 c -0.09162,0.0035 -0.199016,0.01151 -0.322266,0.02344 l -6.333984,0.611328 c -0.56802,0.05496 -0.943024,0.194638 -1.126953,0.417969 -0.13193,0.151645 -0.201964,0.389392 -0.212891,0.710937 -0.136666,0.06268 -0.244175,0.13844 -0.318359,0.228516 -0.18497,0.212614 -0.250152,0.592086 -0.197266,1.138671 l 0.865235,8.9375 c 0.03629,0.375108 0.09489,0.645291 0.175781,0.810547 0.16801,0.39482 0.626738,0.556961 1.376953,0.484375 l 6.365234,-0.615234 c 0.375108,-0.03629 0.652151,-0.0958 0.828125,-0.177734 0.298223,-0.129641 0.455594,-0.438691 0.478516,-0.919922 0.01632,-0.0066 0.03589,-0.0126 0.05078,-0.01953 0.384102,-0.166973 0.539383,-0.626737 0.466797,-1.376953 -0.06636,-0.68591 -0.250803,-1.088891 -0.554687,-1.210937 -0.169056,-0.07013 -0.31762,-0.105182 -0.447266,-0.103516 -0.119964,-0.01001 -0.304282,-0.0024 -0.550781,0.02149 l -4.951172,0.478515 -0.07227,-0.74414 2.535157,-0.244141 c 0.375107,-0.03629 0.652151,-0.0958 0.828124,-0.177734 0.307754,-0.130961 0.470377,-0.441081 0.494141,-0.925782 0.01101,-0.0046 0.02483,-0.0089 0.03516,-0.01367 0.39482,-0.168011 0.556961,-0.626738 0.484375,-1.376954 -0.06636,-0.68591 -0.252755,-1.090844 -0.55664,-1.21289 -0.169055,-0.07013 -0.31762,-0.103229 -0.447266,-0.101563 -0.119964,-0.01001 -0.304282,-0.0043 -0.550781,0.01953 l -3.181641,0.308594 -0.07227,-0.74414 4.320312,-0.417969 c 0.375108,-0.03629 0.650199,-0.0958 0.826172,-0.177735 0.298619,-0.129813 0.457883,-0.437582 0.480469,-0.919921 0.01565,-0.0064 0.03449,-0.01286 0.04883,-0.01953 0.384101,-0.166974 0.541335,-0.624785 0.46875,-1.375 -0.06636,-0.68591 -0.252755,-1.090844 -0.556641,-1.21289 -0.169054,-0.07013 -0.317619,-0.103229 -0.447265,-0.101563 -0.05998,-0.005 -0.1369,-0.0054 -0.228516,-0.002 z m -29.125,0.59375 c -0.232478,0.0021 -0.426653,0.0246 -0.582031,0.06641 -0.207171,0.05574 -0.35621,0.160705 -0.449219,0.31836 -0.09301,0.157655 -0.154567,0.301525 -0.181641,0.429687 -0.0081,0.05996 -0.01464,0.138107 -0.02148,0.234375 -0.14399,0.06095 -0.254898,0.151269 -0.328125,0.275391 -0.09301,0.157655 -0.152614,0.301525 -0.179688,0.429687 -0.01585,0.117868 -0.0299,0.306275 -0.04102,0.564453 l -0.208985,4.855469 c -0.06208,1.441496 0.318385,2.751872 1.140626,3.929688 0.395448,0.577455 0.918177,1.052819 1.570312,1.425781 0.662891,0.373424 1.403138,0.578068 2.220703,0.613281 0.828321,0.03567 1.589169,-0.09805 2.28125,-0.402343 0.692543,-0.31505 1.264824,-0.739436 1.71875,-1.269532 0.387798,-0.467534 0.700452,-0.95972 0.9375,-1.478515 0.670691,-0.986672 1.032426,-2.078194 1.083985,-3.275391 l 0.208985,-4.873051 c 0.01622,-0.37651 -0.0039,-0.658094 -0.06055,-0.84375 -0.03654,-0.152457 -0.101739,-0.268185 -0.195313,-0.347656 -0.09357,-0.07948 -0.229596,-0.149278 -0.410156,-0.210938 -0.18056,-0.06167 -0.426316,-0.09985 -0.738281,-0.113281 -0.301208,-0.01297 -0.556501,0.0087 -0.763672,0.06445 -0.207171,0.05574 -0.367434,0.166499 -0.482422,0.333985 -0.0926,0.134879 -0.151895,0.355953 -0.18164,0.654296 -0.143845,0.0627 -0.26078,0.155771 -0.34961,0.285157 -0.114988,0.167486 -0.181152,0.461319 -0.199219,0.880859 l -0.21289,4.9375 c -0.01793,0.416279 -0.09398,0.801203 -0.22461,1.158203 -0.40799,0.489158 -0.976216,0.721011 -1.708984,0.689453 -0.441054,-0.019 -0.819919,-0.125491 -1.134766,-0.322265 -0.314846,-0.196776 -0.54497,-0.449655 -0.693359,-0.757813 -0.29724,-0.605558 -0.432557,-1.236375 -0.404297,-1.892578 l 0.208985,-4.841797 c 0.01853,-0.430296 -0.03196,-0.770457 -0.150391,-1.023437 -0.06835,-0.164606 -0.202685,-0.284075 -0.404297,-0.357422 -0.201611,-0.07335 -0.474121,-0.117986 -0.818359,-0.132813 -0.08606,-0.0037 -0.168601,-0.0046 -0.246094,-0.0039 z m 15.640625,0.339844 -3.455078,0.06836 c -0.688982,0.01349 -1.104974,0.167324 -1.25,0.460938 -0.08296,0.163166 -0.135297,0.309847 -0.154297,0.439453 -0.0035,0.04951 -0.0046,0.115527 -0.0059,0.1875 -0.179129,0.07563 -0.304988,0.178663 -0.371094,0.3125 -0.08296,0.163166 -0.133344,0.307894 -0.152344,0.4375 -0.0085,0.118629 -0.01073,0.303178 -0.0059,0.550781 l 0.175781,8.960938 c 0.0074,0.376786 0.04511,0.656144 0.113281,0.83789 0.136981,0.395793 0.582364,0.587019 1.335938,0.572266 0.688982,-0.01349 1.104974,-0.167324 1.25,-0.460938 0.08296,-0.163166 0.130225,-0.303245 0.138672,-0.421875 0.008,-0.05425 0.01185,-0.126248 0.01563,-0.201171 0.182659,-0.07583 0.310051,-0.18096 0.376953,-0.316407 0.08296,-0.163166 0.128272,-0.303245 0.136718,-0.421875 0.01902,-0.129605 0.02635,-0.318803 0.02148,-0.566406 l -0.01758,-0.894531 1.470703,-0.0293 c 0.958115,-0.01875 1.875822,-0.38142 2.755859,-1.087891 0.434848,-0.342364 0.7877,-0.798004 1.056641,-1.363281 0.03174,-0.06805 0.06009,-0.137257 0.08789,-0.207031 0.165905,-0.218812 0.313203,-0.461003 0.441407,-0.730469 0.268708,-0.576041 0.396486,-1.214315 0.382812,-1.914062 -0.0137,-0.699747 -0.165965,-1.333353 -0.457031,-1.898438 -0.291067,-0.565085 -0.659511,-1.008898 -1.107422,-1.333984 -0.907009,-0.671497 -1.835854,-0.999016 -2.783203,-0.980469 z m 20.748047,1.708984 c 0.250603,0.0045 0.507496,0.07885 0.769531,0.222657 0.347576,0.181132 0.561136,0.503653 0.640625,0.970703 0.02403,0.141177 0.02921,0.27381 0.02148,0.398437 -0.202265,0.160705 -0.413565,0.262805 -0.636718,0.300781 l -2.039063,0.345703 -0.339843,-1.992187 1.335937,-0.228516 c 0.08226,-0.014 0.164512,-0.01906 0.248047,-0.01758 z M 54.363999,22.48319 c 0.333725,-0.0065 0.659521,0.11007 0.976562,0.351563 0.316809,0.230726 0.480941,0.582965 0.490235,1.05664 0.0014,0.06993 -0.0023,0.136274 -0.0078,0.201172 -0.279096,0.198679 -0.563813,0.302874 -0.855469,0.308594 l -2.035156,0.03906 -0.03906,-1.927734 z"
               transform="matrix(1,0,0,0.85781217,0,4.4808049)" />
            <g
               id="g65445"
               transform="translate(3.3587572,-21.38998)"
               style="opacity:0.498471;mix-blend-mode:normal;fill:#150808;fill-opacity:1;stroke:none;filter:url(#filter65709)">
              <path
                 id="path65285"
                 style="color:#000000;font-weight:bold;font-size:14.3894px;font-family:'Fredoka One';-inkscape-font-specification:'Fredoka One Bold';letter-spacing:1.14px;word-spacing:0px;fill:#241c1c;fill-opacity:1;stroke:none;stroke-width:1.555;-inkscape-stroke:none;filter:url(#filter65587)"
                 d="m 80.363722,49.835148 c -0.138208,0.0098 -0.277399,0.04063 -0.416016,0.0918 -0.26482,0.09776 -0.494516,0.270866 -0.677734,0.501953 l -0.002,0.002 c -0.17524,0.230316 -0.280262,0.496833 -0.306641,0.78125 l -0.859375,8.886719 c 0,0 0,0.002 0,0.002 v 0.002 c -0.02749,0.250294 -0.03588,0.453395 -0.01563,0.628906 l -0.002,0.01563 c -2.37e-4,0.0021 2.36e-4,0.0037 0,0.0059 v 0.0039 c -0.0451,0.408767 -0.07662,0.724477 0.06836,1.117187 0.132099,0.35784 0.42211,0.643715 0.734374,0.806641 0.309888,0.161687 0.644625,0.235269 1.013672,0.271484 0.419078,0.04622 0.764479,0.06507 1.152344,-0.07813 0.289394,-0.106831 0.58087,-0.292888 0.771484,-0.58789 l 0.002,-0.0039 0.002,-0.0039 c 0.116334,-0.18496 0.214537,-0.377283 0.255859,-0.630859 0.03345,-0.152148 0.05708,-0.307463 0.08008,-0.515625 v -0.0059 l 0.117188,-1.236329 2.824218,-1.041015 0.892579,0.863281 0.376953,0.353516 0.02344,0.01953 c 0.185275,0.14883 0.39277,0.241831 0.603516,0.304687 l 0.01367,0.0039 0.01367,0.0039 c 0.318564,0.08199 0.653299,0.04509 0.939453,-0.06055 0.386645,-0.142732 0.652136,-0.386853 0.943359,-0.697266 0.256834,-0.273758 0.461116,-0.551791 0.589844,-0.878906 0.128728,-0.327116 0.163349,-0.73005 0.03125,-1.087891 -0.146027,-0.395571 -0.378517,-0.615995 -0.681641,-0.90039 l -6.421875,-6.185547 -0.0039,-0.002 c -0.281877,-0.26445 -0.637132,-0.447721 -1.011719,-0.53125 -0.08528,-0.01902 -0.171287,-0.03245 -0.257812,-0.04102 -0.249431,-0.13565 -0.518568,-0.197216 -0.792969,-0.177734 z m -62.3125,0.55664 c -0.233638,0.01169 -0.445668,0.08138 -0.597656,0.230469 l -0.002,0.002 -0.0039,0.0039 c -0.124503,0.130548 -0.219514,0.260101 -0.283203,0.396484 l -0.0039,0.0059 -0.0039,0.0078 c -0.04262,0.112373 -0.09028,0.272564 -0.150391,0.488281 l -2.144531,7.69336 c -0.06264,0.224825 -0.104896,0.395689 -0.128906,0.521484 l -0.002,0.0078 v 0.0098 c -0.01405,0.131288 -0.0019,0.268976 0.0293,0.414062 -0.01393,0.05918 -0.029,0.119163 -0.03906,0.171876 l -0.0059,0.03125 -0.002,0.03125 c -0.02487,0.23241 0.0031,0.452084 0.05664,0.666015 0.08732,0.360268 0.330876,0.647666 0.595703,0.833985 0.265531,0.186813 0.561339,0.304509 0.898438,0.398437 0.344587,0.09601 0.663488,0.15098 0.990234,0.130859 0.32594,-0.02007 0.688881,-0.135832 0.955078,-0.404296 0.158335,-0.157174 0.297901,-0.335949 0.390625,-0.574219 0.07426,-0.166824 0.130853,-0.33737 0.191406,-0.554688 l 0.664063,-2.382812 c 0.143792,0.375159 0.327971,0.865216 0.40625,1.048828 l 0.0625,0.167969 0.0059,0.01563 c 0.105186,0.246726 0.251244,0.429986 0.425781,0.617187 l 0.01758,0.01758 0.01758,0.01758 c 0.239798,0.226199 0.538688,0.392202 0.855469,0.480469 0.331922,0.09244 0.691773,0.100448 1.027343,0.01367 l 0.0059,-0.002 0.0059,-0.002 c 0.243278,-0.06698 0.380909,-0.07429 0.652344,-0.261719 l 0.02344,-0.01758 0.02148,-0.01758 c 0.04787,-0.03862 0.161071,-0.126468 0.322265,-0.248047 0.08124,-0.06127 0.310204,-0.24514 0.511719,-0.40625 L 23.359782,61.5871 c -0.09303,0.333867 -0.143662,0.592459 -0.140625,0.804687 v 0.0078 l 0.002,0.0098 c 0.0058,0.06014 0.01777,0.117389 0.0332,0.173828 -0.03529,0.177598 -0.05722,0.346372 -0.05469,0.523437 v 0.03125 l 0.002,0.03125 c 0.02317,0.242052 0.105069,0.501527 0.267578,0.720703 0.153009,0.206364 0.331304,0.340585 0.527344,0.462891 0.24576,0.153326 0.509281,0.249273 0.820312,0.335938 0.319653,0.08908 0.619246,0.141276 0.923828,0.130859 0.404861,-0.01382 0.807946,-0.232062 1.058594,-0.523438 0.250648,-0.291376 0.395918,-0.633927 0.503906,-1.021484 l 0.935547,-3.359375 -0.310547,2.556641 c -0.03335,0.274477 -0.0423,0.492519 -0.01953,0.677734 -0.04096,0.347854 -0.05555,0.631297 0.01563,0.947266 0.07857,0.396278 0.351515,0.759969 0.675781,0.960937 0.327712,0.203102 0.688663,0.294784 1.091797,0.34375 l 5.658203,0.6875 c 0.372314,0.04521 0.672876,0.06247 1,-0.0078 0.397956,-0.08022 0.756545,-0.363049 0.953125,-0.6875 0.197758,-0.326394 0.287195,-0.684641 0.335938,-1.085938 0.0436,-0.359003 0.0499,-0.681888 -0.01953,-1.003906 -0.06915,-0.320692 -0.244646,-0.669685 -0.5625,-0.888672 -0.185447,-0.129264 -0.389176,-0.234831 -0.630859,-0.289062 -0.12839,-0.03664 -0.260461,-0.06027 -0.404297,-0.08203 -0.08296,-0.04149 -0.164656,-0.07331 -0.25,-0.0918 -0.09852,-0.02976 -0.226972,-0.0541 -0.376953,-0.07617 0.337761,-0.109753 0.636558,-0.354784 0.8125,-0.638672 0.203103,-0.327711 0.292831,-0.688662 0.341797,-1.091797 0.0436,-0.359003 0.05186,-0.681889 -0.01758,-1.003907 -0.06915,-0.320694 -0.246596,-0.669684 -0.564453,-0.888671 -0.130327,-0.09084 -0.288755,-0.144684 -0.44336,-0.203125 l 0.789063,0.0957 c 0.372323,0.04521 0.674819,0.06247 1.001953,-0.0078 0.371672,-0.07492 0.707073,-0.326039 0.910156,-0.623047 l -0.179687,6.828125 c -0.0063,0.240916 -0.007,0.423993 0.002,0.582032 l 0.002,0.0332 0.0039,0.03125 c 0.03219,0.23051 0.111578,0.435109 0.214844,0.628906 0,0 0.002,0.002 0.002,0.002 0.172215,0.328257 0.479106,0.549605 0.78125,0.666016 0.302955,0.116724 0.618931,0.158732 0.96875,0.167968 0.357588,0.0094 0.678161,-0.0144 0.990234,-0.113281 0.310435,-0.09836 0.634913,-0.299566 0.828125,-0.623047 0.115819,-0.191425 0.208234,-0.401735 0.240235,-0.65625 0.03117,-0.179032 0.04684,-0.357703 0.05273,-0.582031 l 0.06445,-2.474609 c 0.231126,0.329754 0.527725,0.760584 0.648438,0.919922 l 0.101562,0.148437 0.0098,0.01367 c 0.161978,0.213807 0.347708,0.354961 0.5625,0.494141 l 0.02148,0.01367 0.02148,0.01367 c 0.28752,0.161112 0.616647,0.249089 0.945312,0.257813 0.344468,0.0091 0.697478,-0.07062 1.001953,-0.236328 l 0.0039,-0.0039 0.0059,-0.002 c 0.219725,-0.124064 0.350577,-0.166312 0.568359,-0.414062 l 0.01953,-0.02148 0.01758,-0.02344 c 0.03706,-0.04909 0.125116,-0.161269 0.251953,-0.318359 0.08878,-0.109951 0.35073,-0.454377 0.552734,-0.71875 l -0.06641,2.447265 c -0.0098,0.372643 -0.0026,0.666827 0.07813,0.970703 l 0.0098,0.0293 0.0098,0.03125 c 0.08127,0.229176 0.222715,0.459673 0.433594,0.632813 0.198552,0.163021 0.40317,0.251237 0.623047,0.322265 0.275626,0.08903 0.556148,0.118427 0.878906,0.126954 0.331702,0.0088 0.634827,-0.01359 0.927734,-0.09766 0.389379,-0.111748 0.728022,-0.422096 0.900391,-0.765625 0.172369,-0.34353 0.229614,-0.7111 0.240234,-1.113281 l 0.199219,-7.634766 0.451172,0.205079 c -0.05576,0.133169 -0.108387,0.269328 -0.15625,0.410156 h 0.002 c -0.228433,0.661528 -0.334468,1.360739 -0.316406,2.091797 -0.02623,0.32505 -0.02868,0.655669 -0.0078,0.990234 0.102028,1.63568 0.795298,3.082619 2.007813,4.193359 h 0.002 v 0.002 c 1.226412,1.112931 2.746185,1.65128 4.388672,1.548828 1.644188,-0.102559 3.079088,-0.834919 4.128906,-2.105469 h 0.002 v -0.002 c 1.044333,-1.275487 1.530761,-2.828717 1.425782,-4.511719 -0.106019,-1.699639 -0.817291,-3.176309 -2.070313,-4.261719 -0.676887,-0.586342 -1.44532,-0.946351 -2.253906,-1.18164 -0.06246,-0.02885 -0.126195,-0.05576 -0.189453,-0.08203 l 0.205078,-0.08008 -0.01563,0.0039 c 0.336916,-0.123118 0.656646,-0.28201 0.890625,-0.628906 l 0.01563,-0.02344 0.01367,-0.02149 c 0.158767,-0.273682 0.181617,-0.552555 0.166015,-0.802734 -0.01754,-0.281165 -0.09561,-0.543837 -0.205078,-0.816406 -0.1239,-0.328689 -0.263562,-0.613567 -0.492187,-0.861328 -0.231249,-0.250605 -0.621566,-0.462319 -1.019532,-0.4375 -0.0119,7.42e-4 -0.01665,0.0012 -0.02734,0.002 -0.137384,-0.107073 -0.299454,-0.170715 -0.46875,-0.160157 -0.08538,0.0053 -0.110499,0.02045 -0.185547,0.04297 -0.07505,0.02252 -0.173112,0.05591 -0.296875,0.09766 h -0.0039 l -2.328126,0.882812 c -0.276608,0.101422 -0.490865,0.226846 -0.621093,0.419922 l -0.0039,0.0059 -0.0039,0.0078 c -0.08525,0.146938 -0.10557,0.316381 -0.09375,0.505859 0.0042,0.06793 0.01453,0.138931 0.0293,0.210938 -0.05126,0.184107 -0.05929,0.363519 -0.04883,0.53125 0.01771,0.283854 0.09587,0.546867 0.207031,0.822265 0,0 0,0.002 0,0.002 0.04676,0.118655 0.105409,0.227073 0.167969,0.328125 -0.08869,0.039 -0.176248,0.0807 -0.263672,0.125 -0.629713,0.319115 -1.182453,0.740242 -1.650391,1.259766 -0.327097,0.363158 -0.600848,0.781233 -0.822265,1.25 l -0.760258,-1.56656 c 0,0 -0.002,-0.002 -0.002,-0.002 -8.95e-4,-0.0018 -0.0011,-0.0041 -0.002,-0.0059 l -0.002,0.002 c -0.0849,-0.17151 -0.257875,-0.227132 -0.396484,-0.339843 l 0.02344,-0.02344 -0.105469,-0.04883 c -0.115608,-0.08054 -0.194751,-0.225742 -0.316406,-0.271484 -0.139232,-0.05235 -0.300199,-0.0485 -0.447266,-0.07422 l -1.128906,-0.513672 0.134766,0.267578 c -0.0317,-0.0015 -0.06093,-0.003 -0.09375,-0.0039 -0.636632,-0.01681 -1.115289,0.09896 -1.355469,0.458984 -0.488352,0.584852 -1.500046,1.837525 -2.8125,3.478516 L 42.059035,55.069523 41.937941,54.94257 c -0.233299,-0.265387 -0.442834,-0.316234 -0.671875,-0.390625 -0.182232,-0.0699 -0.371242,-0.113104 -0.566407,-0.138672 -0.04547,-0.01772 -0.09262,-0.0336 -0.144531,-0.05078 -0.211765,-0.08358 -0.45599,-0.127464 -0.732422,-0.134766 -0.317713,-0.0084 -0.584793,0.01589 -0.808593,0.08398 -0.223802,0.06809 -0.412214,0.187598 -0.523438,0.369141 l -0.002,0.0039 -0.002,0.002 c -0.03575,0.06297 -0.06714,0.124414 -0.09375,0.185547 -0.09209,-0.153258 -0.214456,-0.294027 -0.373047,-0.402343 -0.186728,-0.129909 -0.390767,-0.235569 -0.634766,-0.289063 -0.128459,-0.03629 -0.259866,-0.06046 -0.404297,-0.08203 -0.08233,-0.04083 -0.163963,-0.0718 -0.248046,-0.08984 -0.127499,-0.03821 -0.286973,-0.06717 -0.50586,-0.09375 l -5.628906,-0.683594 c -0.530052,-0.06438 -0.938549,-0.02895 -1.224609,0.19336 -0.07972,0.05962 -0.147413,0.132282 -0.205079,0.216796 -0.07291,-0.07337 -0.150817,-0.138281 -0.230468,-0.193359 -0.270949,-0.187358 -0.573504,-0.305275 -0.921875,-0.402344 -0.142457,-0.03969 -0.285195,-0.07073 -0.427735,-0.0957 -0.07953,-0.0279 -0.160813,-0.05523 -0.25,-0.08008 -0.613484,-0.170942 -1.105347,-0.175669 -1.425781,0.115234 l 0.01758,-0.01562 c -0.589667,0.429404 -1.831237,1.368925 -3.414062,2.574218 l -1.507813,-3.787109 -0.08594,-0.152344 c -0.162019,-0.313417 -0.354532,-0.413212 -0.558594,-0.541015 -0.248822,-0.17451 -0.525184,-0.295905 -0.830078,-0.38086 -0.151625,-0.04225 -0.297456,-0.07577 -0.441406,-0.09961 -0.07543,-0.02869 -0.152835,-0.05486 -0.236329,-0.07813 -0.306162,-0.08531 -0.571049,-0.124974 -0.804687,-0.113282 z m 55.708984,1.371094 c -0.181587,3.84e-4 -0.378686,0.02767 -0.595703,0.07617 -0.315192,0.07045 -0.570321,0.160948 -0.771484,0.285156 -0.200311,0.123682 -0.352233,0.291715 -0.408203,0.5 -0.04814,0.173869 -0.07271,0.332108 -0.06445,0.482422 l 0.002,0.0098 v 0.0078 c 0.0067,0.05137 0.0166,0.114792 0.0293,0.183594 -0.03983,0.173488 -0.06107,0.349712 -0.05078,0.53711 l 0.002,0.0293 0.0039,0.02734 c 0.01996,0.153501 0.05488,0.324466 0.105468,0.550781 l 0.449219,2.013672 C 72.327346,55.96706 72.118206,55.50379 71.832472,55.089054 71.455745,54.542239 70.994617,54.099129 70.455519,53.796085 v -0.002 h -0.002 C 69.917697,53.494629 69.365625,53.291914 68.810988,53.188664 68.182668,52.970806 67.558351,52.900277 66.9438,52.991398 l -3.074219,0.455078 c -0.319477,0.04737 -0.581361,0.11925 -0.791015,0.228516 -0.208305,0.108563 -0.372154,0.265738 -0.44336,0.46875 0,0 0,0.002 0,0.002 0,0 -0.002,0.002 -0.002,0.002 -0.0597,0.168239 -0.09501,0.325373 -0.09766,0.474609 v 0.0078 0.0098 c 0.0044,0.07775 0.01561,0.182416 0.03125,0.300782 -0.02914,0.121976 -0.04844,0.246506 -0.05078,0.378906 l -0.002,0.0293 0.002,0.0293 c 0.0087,0.154573 0.03044,0.325288 0.06445,0.554687 l 1.171875,7.900391 c 0.05508,0.371499 0.118543,0.667605 0.273437,0.964843 0.182954,0.361931 0.549506,0.632813 0.914063,0.736329 0.367116,0.104243 0.736844,0.09445 1.136719,0.03516 0.35773,-0.05304 0.670766,-0.132908 0.96289,-0.285156 0.292125,-0.152248 0.584801,-0.412421 0.710938,-0.779297 0.07331,-0.20682 0.12177,-0.419872 0.111328,-0.667969 4.39e-4,-0.184643 -0.01537,-0.36617 -0.04883,-0.591797 l -0.125,-0.83789 0.96875,-0.144532 c 0.278491,0.458034 0.5647,0.929494 0.746094,1.222656 0.251007,0.405671 0.382791,0.619823 0.498046,0.777344 l 0.01172,0.01758 0.01367,0.01563 c 0.143575,0.174805 0.311788,0.306784 0.494141,0.417969 l 0.03125,0.01758 0.0293,0.01563 c 0.294997,0.145551 0.631862,0.177553 0.933594,0.132813 0.367158,-0.05444 0.671744,-0.210312 1.003906,-0.417969 0.331469,-0.201141 0.611067,-0.421643 0.824219,-0.71875 0.214227,-0.298603 0.3429,-0.708222 0.285157,-1.097656 -0.05815,-0.392169 -0.211698,-0.640554 -0.425782,-0.996094 l -0.0059,-0.0059 -0.0039,-0.0078 c -0.487765,-0.771745 -0.807853,-1.291972 -1.082032,-1.742187 0.479937,-0.857002 0.72337,-1.821242 0.570313,-2.853516 -0.01002,-0.0676 -0.02262,-0.134616 -0.03516,-0.201172 l 1.210937,5.421875 c 0.08056,0.360421 0.161913,0.641074 0.341797,0.925781 0.206691,0.346486 0.584754,0.596811 0.957031,0.677735 0.376747,0.0819 0.748214,0.04757 1.144531,-0.04102 0.352932,-0.07889 0.661114,-0.180449 0.941407,-0.353515 0.278837,-0.172168 0.548014,-0.454011 0.648437,-0.826172 0.05871,-0.212934 0.0931,-0.429463 0.06445,-0.677735 -0.01163,-0.187913 -0.04109,-0.359094 -0.0918,-0.585937 l -1.74414,-7.808594 c -0.08132,-0.363798 -0.160115,-0.646842 -0.3125,-0.921875 l -0.0098,-0.01758 -0.01172,-0.01758 c -0.215071,-0.344737 -0.601649,-0.578913 -0.97461,-0.654297 -0.101113,-0.02044 -0.201799,-0.03187 -0.302734,-0.03711 -0.100731,-0.06152 -0.214094,-0.106232 -0.335938,-0.130859 -0.09759,-0.01972 -0.201594,-0.02953 -0.310547,-0.0293 z m -22.609375,4.333985 0.0059,0.06445 c -2.9e-4,-0.0051 -0.0036,-0.0086 -0.0039,-0.01367 -0.0019,-0.01568 2.82e-4,-0.0351 -0.002,-0.05078 z m 16.894532,1.113281 c 0.08253,0.0017 0.177273,0.02878 0.320312,0.111328 l 0.0059,0.0039 0.0078,0.0039 c 0.05278,0.02896 0.0851,0.05175 0.111328,0.115235 -0.03728,0.07828 -0.08622,0.149277 -0.15039,0.214844 -0.218694,0.22347 -0.432112,0.338731 -0.650391,0.371093 l -0.636719,0.09375 -0.113281,-0.755859 1.025391,-0.152344 c 0.02599,-0.0039 0.05257,-0.0064 0.08008,-0.0059 z m -32.730469,0.74414 0.07226,0.01953 c -0.01593,-0.0049 -0.03494,-0.0052 -0.05078,-0.0098 -0.0082,-0.0018 -0.01317,-0.008 -0.02148,-0.0098 z m 21.835937,0.275391 c 0.403733,0.01094 0.759419,0.15661 1.158204,0.496094 l 0.0039,0.002 0.002,0.002 c 0.410388,0.343259 0.628105,0.764398 0.681641,1.431641 -0.07201,0.508073 -0.27131,0.932551 -0.603516,1.289062 -0.481336,0.516553 -1.014507,0.777597 -1.636719,0.816406 -0.123,0.0077 -0.244111,0.0033 -0.363281,-0.0078 -0.160141,-0.07802 -0.321424,-0.183926 -0.490234,-0.324219 -0.420044,-0.366287 -0.635097,-0.802783 -0.677735,-1.486328 -0.04282,-0.686453 0.114888,-1.140862 0.486328,-1.546875 l 0.002,-0.002 0.0039,-0.0039 c 0.404434,-0.450154 0.782053,-0.632435 1.257812,-0.66211 0.05993,-0.0037 0.118105,-0.0055 0.175781,-0.0039 z" />
              <g
                 aria-label="MEMRIA"
                 transform="translate(17.636552,5.879056)"
                 id="text65255"
                 style="font-weight:bold;font-size:14.3894px;font-family:'Fredoka One';-inkscape-font-specification:'Fredoka One Bold';letter-spacing:1.14px;word-spacing:0px;fill:#150808;fill-opacity:1;stroke:none;stroke-width:0.455">
                <g
                   id="path65325"
                   style="fill:#150808;fill-opacity:1;stroke:none" />
              </g>
            </g>
            <g
               id="g65227"
               transform="translate(1.6124369,1.5177669)"
               style="stroke:none">
              <text
                 xml:space="preserve"
                 style="font-style:normal;font-variant:normal;font-weight:bold;font-stretch:normal;font-size:16.1511px;line-height:0;font-family:'Fredoka One';-inkscape-font-specification:'Fredoka One Bold';letter-spacing:0.96px;word-spacing:0px;fill:#241c1c;fill-opacity:1;stroke:none;stroke-width:1.448;stroke-miterlimit:4;stroke-dasharray:none;stroke-opacity:1"
                 id="text60966"
                 transform="rotate(-1.6322572,-269.74101,-842.93397)"><textPath
                   xlink:href="#path16332"
                   id="textPath60964"
                   style="fill:#241c1c;fill-opacity:1;stroke:none;stroke-width:1.448;stroke-miterlimit:4;stroke-dasharray:none;stroke-opacity:1"><tspan
                     id="tspan60962"
                     style="fill:#241c1c;fill-opacity:1;stroke:none;stroke-width:1.448;stroke-miterlimit:4;stroke-dasharray:none;stroke-opacity:1">SUPER</tspan></textPath></text>
              <text
                 xml:space="preserve"
                 style="font-style:normal;font-variant:normal;font-weight:bold;font-stretch:normal;font-size:16.1511px;line-height:0;font-family:'Fredoka One';-inkscape-font-specification:'Fredoka One Bold';letter-spacing:0.96px;word-spacing:0px;fill:url(#linearGradient141938);fill-opacity:1;stroke:none;stroke-width:0.448;stroke-miterlimit:4;stroke-dasharray:none;stroke-opacity:1"
                 id="text12016"
                 transform="rotate(-1.6322572,-302.44649,-862.01812)"><textPath
                   xlink:href="#path16332"
                   id="textPath16414"
                   style="fill:url(#linearGradient141938);fill-opacity:1;stroke:none;stroke-width:0.448;stroke-miterlimit:4;stroke-dasharray:none"><tspan
                     id="tspan12014"
                     style="fill:url(#linearGradient141938);fill-opacity:1;stroke:none;stroke-width:0.448;stroke-miterlimit:4;stroke-dasharray:none;stroke-opacity:1">SUPER</tspan></textPath></text>
              <text
                 xml:space="preserve"
                 style="font-style:normal;font-variant:normal;font-weight:bold;font-stretch:normal;font-size:16.1511px;line-height:0;font-family:'Fredoka One';-inkscape-font-specification:'Fredoka One Bold';letter-spacing:0.96px;word-spacing:0px;fill:url(#linearGradient30038);fill-opacity:1;stroke:none;stroke-width:0.448;stroke-miterlimit:4;stroke-dasharray:none;stroke-opacity:1"
                 id="text122181"
                 transform="rotate(-1.6322572,-302.44649,-862.01812)"><textPath
                   xlink:href="#path16332"
                   id="textPath122179"
                   style="fill:url(#linearGradient30038);fill-opacity:1;stroke:none;stroke-width:0.448;stroke-miterlimit:4;stroke-dasharray:none"><tspan
                     id="tspan122177"
                     style="fill:url(#linearGradient30038);fill-opacity:1;stroke:none;stroke-width:0.448;stroke-miterlimit:4;stroke-dasharray:none;stroke-opacity:1">SUPER</tspan></textPath></text>
              <text
                 xml:space="preserve"
                 style="font-style:normal;font-variant:normal;font-weight:bold;font-stretch:normal;font-size:16.1511px;line-height:0;font-family:'Fredoka One';-inkscape-font-specification:'Fredoka One Bold';letter-spacing:0.96px;word-spacing:0px;fill:url(#linearGradient123267);fill-opacity:1;stroke:none;stroke-width:0.448;stroke-miterlimit:4;stroke-dasharray:none;stroke-opacity:1"
                 id="text123265"
                 transform="matrix(0.99428725,-0.02647457,0.02833318,0.92906379,24.425232,-6.9933454)"><textPath
                   xlink:href="#path16332"
                   id="textPath123263"
                   style="fill:url(#linearGradient123267);fill-opacity:1;stroke:none;stroke-width:0.448;stroke-miterlimit:4;stroke-dasharray:none"><tspan
                     id="tspan123261"
                     style="fill:url(#linearGradient123267);fill-opacity:1;stroke:none;stroke-width:0.448;stroke-miterlimit:4;stroke-dasharray:none;stroke-opacity:1">SUPER</tspan></textPath></text>
            </g>
            <g
               id="g65232"
               style="fill:#800000;stroke:none;stroke-opacity:1">
              <text
                 xml:space="preserve"
                 style="font-style:normal;font-variant:normal;font-weight:bold;font-stretch:normal;font-size:14.3894px;line-height:0;font-family:'Fredoka One';-inkscape-font-specification:'Fredoka One Bold';letter-spacing:1.14px;word-spacing:0px;fill:#800000;fill-opacity:1;stroke:none;stroke-width:1.555;stroke-miterlimit:4;stroke-dasharray:none;stroke-opacity:1"
                 id="text60922"
                 transform="translate(17.541882,-9.4138372)"><textPath
                   xlink:href="#path17827"
                   id="textPath60920"
                   style="fill:#800000;fill-opacity:1;stroke:none;stroke-width:1.555;stroke-miterlimit:4;stroke-dasharray:none;stroke-opacity:1"><tspan
                     id="tspan60918"
                     style="fill:#800000;fill-opacity:1;stroke:none;stroke-width:1.555;stroke-miterlimit:4;stroke-dasharray:none;stroke-opacity:1">MEMRIA</tspan></textPath></text>
            </g>
            <text
               xml:space="preserve"
               style="font-style:normal;font-variant:normal;font-weight:bold;font-stretch:normal;font-size:14.3894px;line-height:0;font-family:'Fredoka One';-inkscape-font-specification:'Fredoka One Bold';letter-spacing:1.14px;word-spacing:0px;fill:url(#linearGradient56725);fill-opacity:1;stroke:none;stroke-width:0.455;stroke-miterlimit:4;stroke-dasharray:none;stroke-opacity:1"
               id="text13830"
               transform="translate(17.011552,-10.120944)"><textPath
                 xlink:href="#path17827"
                 id="textPath18726"
                 style="fill:url(#linearGradient56725);fill-opacity:1;stroke:none;stroke-width:0.455;stroke-miterlimit:4;stroke-dasharray:none"><tspan
                   id="tspan13828"
                   style="fill:url(#linearGradient56725);fill-opacity:1;stroke:none;stroke-width:0.455;stroke-miterlimit:4;stroke-dasharray:none;stroke-opacity:1">MEMRIA</tspan></textPath></text>
            <path
               d="m 31.168357,31.802419 q 0.05296,0.238819 0.02047,0.409017 -0.01862,0.174061 -0.107457,0.492873 l -2.143577,7.693058 q -0.266498,0.956434 -0.839578,0.976003 -0.28654,0.0098 -0.688519,-0.102222 -0.40198,-0.112007 -0.618312,-0.246973 -0.216331,-0.134966 -0.314048,-0.266756 -0.09772,-0.13179 -0.116813,-0.331299 -0.0036,-0.254955 0.131533,-0.740103 l 1.293871,-4.643558 q -0.466266,0.333145 -1.394248,1.090328 -0.924119,0.743321 -1.169976,0.928754 -0.245857,0.185434 -0.3422,0.263152 -0.09248,0.06386 -0.416056,0.152947 -0.305851,0.07909 -0.624662,-0.0097 -0.30495,-0.08497 -0.529693,-0.296968 -0.20702,-0.222038 -0.279288,-0.39155 l -0.0684,-0.183374 q -0.18067,-0.42378 -0.685644,-1.774426 -0.501112,-1.364508 -0.547245,-1.466988 l -1.301595,4.671281 q -0.08883,0.318811 -0.162904,0.477423 -0.05635,0.148613 -0.221309,0.311773 -0.312203,0.316323 -1.185469,0.073 -0.845543,-0.235601 -0.949182,-0.667792 -0.05682,-0.224957 -0.03819,-0.399018 0.03249,-0.170199 0.125182,-0.502872 l 2.143576,-7.69306 q 0.08883,-0.318811 0.14518,-0.467424 0.07407,-0.158612 0.242896,-0.335634 0.30834,-0.302461 1.181606,-0.05914 0.374257,0.104282 0.610587,0.274695 0.254053,0.160415 0.310185,0.280618 l 0.05999,0.106342 1.995565,5.007429 q 3.22545,-2.462216 4.293634,-3.240083 0.339925,-0.308598 1.213191,-0.06527 0.887127,0.247187 0.976904,0.675517 z"
               id="path125697"
               style="font-weight:bold;font-size:14.3894px;line-height:0;font-family:'Fredoka One';-inkscape-font-specification:'Fredoka One Bold';letter-spacing:1.14px;word-spacing:0px;fill:url(#linearGradient125730);stroke:none;stroke-width:0.455" />
            <path
               d="m 33.748784,39.586857 4.399601,0.534382 q 0.328541,0.03991 0.4822,0.08756 0.169678,0.0351 0.370064,0.175405 0.361389,0.246827 0.250349,1.161029 -0.121451,0.99991 -0.670794,1.107127 -0.253245,0.05621 -0.7532,-0.0045 l -5.656629,-0.687062 q -0.999909,-0.121451 -1.105392,-0.685079 -0.05795,-0.23896 0.0028,-0.738915 l 0.964664,-7.942136 q 0.08849,-0.728505 0.391119,-0.95266 0.304369,-0.238438 1.061443,-0.146483 l 5.628061,0.683593 q 0.328541,0.0399 0.4822,0.08756 0.169678,0.0351 0.370064,0.175405 0.361389,0.246827 0.250349,1.161029 -0.121451,0.99991 -0.670794,1.107127 -0.253245,0.05621 -0.7532,-0.0045 l -4.385316,-0.532648 -0.175236,1.442727 2.828315,0.343531 q 0.328541,0.0399 0.4822,0.08756 0.169678,0.0351 0.370064,0.175405 0.361389,0.246827 0.250349,1.16103 -0.121451,0.999909 -0.685079,1.105392 -0.253245,0.05621 -0.753199,-0.0045 l -2.799746,-0.340062 z"
               id="path125699"
               style="font-weight:bold;font-size:14.3894px;line-height:0;font-family:'Fredoka One';-inkscape-font-specification:'Fredoka One Bold';letter-spacing:1.14px;word-spacing:0px;fill:url(#linearGradient125732);stroke:none;stroke-width:0.455" />
            <path
               d="m 52.645488,33.143842 q 0.109377,0.218804 0.119203,0.391797 0.02421,0.173372 0.01548,0.504213 l -0.210812,7.983334 q -0.02621,0.992523 -0.577373,1.150701 -0.275583,0.07909 -0.69273,0.06807 -0.417147,-0.01102 -0.659782,-0.08939 -0.242636,-0.07838 -0.369436,-0.182489 -0.126801,-0.104109 -0.193785,-0.293005 -0.06546,-0.246434 -0.05217,-0.749888 l 0.127246,-4.818769 q -0.371384,0.43642 -1.087664,1.396326 -0.7159,0.945522 -0.909354,1.185118 -0.193454,0.239597 -0.268035,0.338388 -0.0742,0.08441 -0.366447,0.249423 -0.277481,0.151012 -0.608322,0.142275 -0.316457,-0.0084 -0.585962,-0.159417 -0.25474,-0.165065 -0.366017,-0.311948 l -0.110897,-0.161267 q -0.278192,-0.367206 -1.096103,-1.554752 -0.817532,-1.20193 -0.887175,-1.290136 l -0.128006,4.847538 q -0.0087,0.330841 -0.04206,0.502694 -0.01856,0.157848 -0.138956,0.356191 -0.226021,0.382681 -1.132238,0.358751 -0.877447,-0.02317 -1.082957,-0.417247 -0.109757,-0.20442 -0.133968,-0.377792 -0.0098,-0.172992 -7.1e-4,-0.518218 l 0.210811,-7.983333 q 0.0087,-0.330841 0.0273,-0.48869 0.03333,-0.171853 0.1541,-0.38458 0.225641,-0.368296 1.131857,-0.344366 0.388379,0.01026 0.659023,0.118163 0.285409,0.0939 0.369056,0.196873 l 0.08403,0.08859 3.152063,4.372771 q 2.530809,-3.171914 3.378068,-4.185939 0.25479,-0.381921 1.161006,-0.357991 0.920601,0.02431 1.111727,0.418006 z"
               id="path125701"
               style="font-weight:bold;font-size:14.3894px;line-height:0;font-family:'Fredoka One';-inkscape-font-specification:'Fredoka One Bold';letter-spacing:1.14px;word-spacing:0px;fill:url(#linearGradient125734);stroke:none;stroke-width:0.455" />
            <path
               d="m 59.108741,32.249852 c 1.417,-0.08839 2.679252,0.347097 3.786755,1.306454 1.107503,0.959357 1.708732,2.200194 1.803689,3.722512 0.09436,1.512743 -0.322882,2.836332 -1.251724,3.970766 -0.929439,1.12486 -2.121808,1.732678 -3.577105,1.823455 -1.455297,0.09078 -2.728019,-0.358473 -3.818165,-1.347747 -1.080572,-0.989871 -1.666246,-2.212456 -1.757022,-3.667753 -0.04957,-0.794669 0.04776,-1.545638 0.291993,-2.252906 0.243633,-0.716842 0.590176,-1.324764 1.039629,-1.823766 0.449453,-0.499003 0.976984,-0.901954 1.582593,-1.208854 0.605609,-0.3069 1.238728,-0.480954 1.899357,-0.522161 z m -2.276068,5.577319 c 0.05315,0.852115 0.36932,1.529234 0.948499,2.031355 0.588157,0.491949 1.222124,0.716723 1.901901,0.674321 0.679777,-0.0424 1.27641,-0.339128 1.789897,-0.890185 0.513487,-0.551055 0.743057,-1.262214 0.688711,-2.133477 -0.05435,-0.871264 -0.375599,-1.552871 -0.963756,-2.04482 -0.578583,-0.492547 -1.207763,-0.717619 -1.88754,-0.675217 -0.679777,0.0424 -1.275812,0.348703 -1.788105,0.918908 -0.51289,0.560629 -0.742759,1.267 -0.689607,2.119115 z"
               id="path125703"
               style="font-weight:bold;font-size:14.3894px;line-height:0;font-family:'Fredoka One';-inkscape-font-specification:'Fredoka One Bold';letter-spacing:1.14px;word-spacing:0px;fill:url(#linearGradient125736);stroke:none;stroke-width:0.455"
               sodipodi:nodetypes="ssscscscsssscssscscs" />
            <path
               d="m 74.819295,39.38234 q 0.289484,0.48076 0.323251,0.7085 0.0802,0.540884 -0.747424,1.041812 -0.425935,0.266808 -0.710611,0.309018 -0.270442,0.0401 -0.474475,-0.06057 -0.19191,-0.117012 -0.298418,-0.246687 -0.182437,-0.249337 -1.492231,-2.411699 l -0.437026,0.09389 -1.793457,0.26592 0.238483,1.608418 q 0.04854,0.327377 0.0454,0.502403 0.009,0.158682 -0.07323,0.389073 -0.142291,0.413859 -1.053253,0.548929 -0.996365,0.147733 -1.245258,-0.353592 -0.121281,-0.229311 -0.195147,-0.727494 l -1.171311,-7.899752 q -0.04854,-0.327378 -0.05752,-0.48606 0.0031,-0.175026 0.08535,-0.405417 0.14229,-0.413859 1.053253,-0.548929 l 3.074498,-0.455861 q 1.252573,-0.185722 2.569048,0.550072 0.634776,0.356828 1.116709,1.056347 0.481934,0.699518 0.619114,1.624715 0.238483,1.608418 -0.674986,2.80577 0.424998,0.70796 1.299241,2.091192 z m -6.003945,-2.819195 1.821925,-0.27014 q 0.41278,-0.0612 0.77913,-0.435551 0.366349,-0.374347 0.273489,-1.000634 -0.09286,-0.626286 -0.552071,-0.878226 -0.461321,-0.266173 -0.902568,-0.200749 l -1.793458,0.265919 z"
               id="path125705"
               style="font-weight:bold;font-size:14.3894px;line-height:0;font-family:'Fredoka One';-inkscape-font-specification:'Fredoka One Bold';letter-spacing:1.14px;word-spacing:0px;fill:url(#linearGradient125738);stroke:none;stroke-width:0.455" />
            <path
               d="m 75.154185,31.613741 q -0.07219,-0.322986 -0.09268,-0.480597 -0.0096,-0.174792 0.05568,-0.410546 0.11185,-0.423102 1.010594,-0.62399 0.983001,-0.219722 1.281697,0.259059 0.123575,0.223034 0.233436,0.714535 l 1.745217,7.807837 q 0.07533,0.337029 0.08178,0.497778 0.02049,0.15761 -0.04478,0.393365 -0.11185,0.423101 -1.010594,0.62399 -0.983001,0.219721 -1.270793,-0.276241 -0.134479,-0.205853 -0.24434,-0.697353 z"
               id="path125707"
               style="font-weight:bold;font-size:14.3894px;line-height:0;font-family:'Fredoka One';-inkscape-font-specification:'Fredoka One Bold';letter-spacing:1.14px;word-spacing:0px;fill:url(#linearGradient125740);stroke:none;stroke-width:0.455" />
            <path
               d="m 84.27909,28.482599 6.425361,6.186958 q 0.398912,0.37425 0.483627,0.603733 0.179396,0.485963 -0.459031,1.16646 -0.37425,0.398912 -0.64423,0.498577 -0.25648,0.09468 -0.476816,0.03797 -0.206837,-0.06169 -0.337663,-0.166782 -0.117327,-0.110074 -0.351981,-0.330221 l -1.240135,-1.198762 -3.739216,1.380352 -0.163758,1.717017 q -0.03533,0.319812 -0.07147,0.471202 -0.02265,0.146407 -0.1483,0.346179 -0.117139,0.181289 -0.387118,0.280953 -0.256481,0.09468 -0.800161,0.03463 -0.92247,-0.08895 -1.101866,-0.574908 -0.08472,-0.229482 -0.02466,-0.773162 l 0.859102,-8.891397 q 0.03388,-0.365292 0.261087,-0.663908 0.240711,-0.3036 0.578186,-0.428181 0.728944,-0.269094 1.339045,0.303289 z m 0.102557,3.643395 -0.208231,2.178252 1.795363,-0.662768 z"
               id="path125709"
               style="font-weight:bold;font-size:14.3894px;line-height:0;font-family:'Fredoka One';-inkscape-font-specification:'Fredoka One Bold';letter-spacing:1.14px;word-spacing:0px;fill:url(#linearGradient125742);stroke:none;stroke-width:0.455" />
            <path
               style="font-variation-settings:normal;opacity:0.587156;vector-effect:none;fill:url(#linearGradient131362);fill-opacity:1;stroke:none;stroke-width:0.931952;stroke-linecap:butt;stroke-linejoin:miter;stroke-miterlimit:4;stroke-dasharray:none;stroke-dashoffset:0;stroke-opacity:1;filter:url(#filter130443);stop-color:#000000;stop-opacity:1"
               d="m 58.563421,29.503632 1.729847,-0.535428 0.431201,0.05696 c 0.289311,0.341609 0.518898,0.962103 0.516096,1.384578 0,0 -2.635957,1.235605 -2.883078,0.988484 -0.247121,-0.247121 -0.494242,-1.523914 -0.494242,-1.523914 z"
               id="path127789"
               sodipodi:nodetypes="ccccscc" />
          </g>
        </g>
      </g>
      <text
         xml:space="preserve"
         style="font-weight:bold;font-size:6.64672px;line-height:0;font-family:Montserrat;-inkscape-font-specification:'Montserrat Bold';word-spacing:0px;fill:#ffffff;fill-opacity:1;stroke:none;stroke-width:0.348895"
         x="-2.8190756"
         y="-41.497547"
         id="text68325"><tspan
           sodipodi:role="line"
           id="tspan68323"
           x="-2.8190756"
           y="-41.497547"
           style="fill:#ffffff;fill-opacity:1;stroke:none;stroke-width:0.348895">Presidentes do Brasil </tspan></text>
      <rect
         style="font-variation-settings:normal;opacity:1;vector-effect:none;fill:#de801d;fill-opacity:1;fill-rule:evenodd;stroke:#fba429;stroke-width:1.20414;stroke-linecap:butt;stroke-linejoin:miter;stroke-miterlimit:4;stroke-dasharray:none;stroke-dashoffset:0;stroke-opacity:1;stop-color:#000000;stop-opacity:1"
         id="rect82695"
         width="40.610912"
         height="9.3541994"
         x="24.371321"
         y="24.817375"
         ry="4.6770997"
         transform="scale(1,-1)" />
      <rect
         style="font-variation-settings:normal;opacity:1;vector-effect:none;fill:#0b68b1;fill-opacity:1;fill-rule:evenodd;stroke:#60b0ef;stroke-width:1.13831;stroke-linecap:butt;stroke-linejoin:miter;stroke-miterlimit:4;stroke-dasharray:none;stroke-dashoffset:0;stroke-opacity:1;stop-color:#000000;stop-opacity:1"
         id="rect96772"
         width="38.391094"
         height="8.8428917"
         x="24.855303"
         y="11.307157"
         ry="4.4214458"
         transform="scale(1,-1)" />
      <text
         xml:space="preserve"
         style="font-weight:bold;font-size:5.85618px;line-height:0;font-family:Montserrat;-inkscape-font-specification:'Montserrat Bold';word-spacing:0px;fill:#ffffff;stroke-width:0.307396;stroke:none"
         x="34.792511"
         y="-27.56432"
         id="text97062"><tspan
           sodipodi:role="line"
           id="tspan97060"
           x="34.792511"
           y="-27.56432"
           style="font-style:normal;font-variant:normal;font-weight:bold;font-stretch:normal;font-family:'Fredoka One';-inkscape-font-specification:'Fredoka One Bold';fill:#ffffff;stroke-width:0.307396;stroke:none">JOGAR</tspan></text>
      <text
         xml:space="preserve"
         style="font-weight:bold;font-size:6.417px;line-height:0;font-family:Montserrat;-inkscape-font-specification:'Montserrat Bold';word-spacing:0px;fill:#ffffff;stroke-width:0.336834;stroke:none"
         x="32.047855"
         y="-15.348392"
         id="text120333"><tspan
           sodipodi:role="line"
           id="tspan120331"
           x="32.047855"
           y="-15.348392"
           style="fill:#ffffff;stroke-width:0.336834;stroke:none" /></text>
      <text
         xml:space="preserve"
         style="font-weight:bold;font-size:4.87674px;line-height:0;font-family:Montserrat;-inkscape-font-specification:'Montserrat Bold';word-spacing:0px;fill:#56acf0;fill-opacity:1;stroke-width:0.255985;stroke:none"
         x="33.979961"
         y="-13.667836"
         id="text136671"><tspan
           sodipodi:role="line"
           id="tspan136669"
           x="33.979961"
           y="-13.667836"
           style="font-style:normal;font-variant:normal;font-weight:bold;font-stretch:normal;font-family:'Fredoka One';-inkscape-font-specification:'Fredoka One Bold';fill:#56acf0;fill-opacity:1;stroke-width:0.255985;stroke:none">VOLTAR</tspan></text>
      <g
         id="g149088"
         transform="matrix(1.3708311,0.35726904,-0.35726904,1.3708311,-31.473968,-8.6737146)"
         style="stroke:none">
        <rect
           style="font-variation-settings:normal;opacity:1;vector-effect:none;fill:#0a580a;fill-opacity:1;fill-rule:evenodd;stroke:none;stroke-width:0.711864;stroke-linecap:butt;stroke-linejoin:miter;stroke-miterlimit:4;stroke-dasharray:none;stroke-dashoffset:0;stroke-opacity:1;stop-color:#000000;stop-opacity:1"
           id="rect89158"
           width="10.5"
           height="5.1610169"
           x="69.527115"
           y="-44.23938"
           ry="0"
           transform="rotate(-1.4277876)" />
        <rect
           style="font-variation-settings:normal;opacity:1;vector-effect:none;fill:#e9b036;fill-opacity:1;fill-rule:evenodd;stroke:none;stroke-width:1.65806;stroke-linecap:butt;stroke-linejoin:miter;stroke-miterlimit:4;stroke-dasharray:none;stroke-dashoffset:0;stroke-opacity:1;stop-color:#000000;stop-opacity:1"
           id="rect142342"
           width="4.2480779"
           height="4.1066451"
           x="83.154007"
           y="-1.3722985"
           transform="matrix(0.85773619,-0.5140901,0.81572201,0.57844412,0,0)" />
        <circle
           style="fill:#0b68b1;fill-opacity:1;fill-rule:evenodd;stroke:none;stroke-width:1.17619"
           id="path143460"
           cx="84.591705"
           cy="-13.338006"
           r="1.4034835"
           transform="rotate(-21.508292)" />
        <rect
           style="font-variation-settings:normal;opacity:1;vector-effect:none;fill:#ffffff;fill-opacity:1;fill-rule:evenodd;stroke:none;stroke-width:0.569513;stroke-linecap:butt;stroke-linejoin:miter;stroke-miterlimit:4;stroke-dasharray:none;stroke-dashoffset:0;stroke-opacity:1;stop-color:#000000;stop-opacity:1"
           id="rect148904"
           width="2.7238421"
           height="0.25536165"
           x="83.206902"
           y="-13.405946"
           ry="0.015960103"
           rx="0.10046959"
           transform="rotate(-21.508292)" />
      </g>
    </g>
    <g
       inkscape:groupmode="layer"
       id="layer1"
       inkscape:label="text curves"
       style="display:none"
       sodipodi:insensitive="true">
      <path
         style="font-variation-settings:normal;vector-effect:none;fill:none;fill-opacity:1;stroke:#00ff00;stroke-width:1;stroke-linecap:butt;stroke-linejoin:miter;stroke-miterlimit:4;stroke-dasharray:none;stroke-dashoffset:0;stroke-opacity:1;stop-color:#000000"
         d="m 0.24996017,36.37155 c 0,0 13.95134983,2.16036 28.81267983,2.2541 10.29012,0.0649 21.73316,-1.16556 30.93784,-3.13799"
         id="path16332"
         sodipodi:nodetypes="csc" />
      <path
         style="font-variation-settings:normal;vector-effect:none;fill:none;fill-opacity:1;stroke:#00ff00;stroke-width:1;stroke-linecap:butt;stroke-linejoin:miter;stroke-miterlimit:4;stroke-dasharray:none;stroke-dashoffset:0;stroke-opacity:1;stop-color:#000000"
         d="M 0.18410017,48.21559 C 19.10921,56.16379 60.76787,54.54156 76.0213,45.21039"
         id="path17827"
         sodipodi:nodetypes="cc" />
    </g>
  </g>
</svg>
