<?xml version="1.0" encoding="UTF-8" standalone="no"?>
<svg
   version="1.1"
   id="svg2"
   width="80.333298"
   height="31.722372"
   viewBox="0 0 80.333297 31.722372"
   sodipodi:docname="title_figure.svg"
   inkscape:version="1.1.1 (3bf5ae0d25, 2021-09-20)"
   xmlns:inkscape="http://www.inkscape.org/namespaces/inkscape"
   xmlns:sodipodi="http://sodipodi.sourceforge.net/DTD/sodipodi-0.dtd"
   xmlns:xlink="http://www.w3.org/1999/xlink"
   xmlns="http://www.w3.org/2000/svg"
   xmlns:svg="http://www.w3.org/2000/svg"
   xmlns:rdf="http://www.w3.org/1999/02/22-rdf-syntax-ns#"
   xmlns:cc="http://creativecommons.org/ns#"
   xmlns:dc="http://purl.org/dc/elements/1.1/">
  <metadata
     id="metadata8">
    <rdf:RDF>
      <cc:Work
         rdf:about="">
        <dc:format>image/svg+xml</dc:format>
        <dc:type
           rdf:resource="http://purl.org/dc/dcmitype/StillImage" />
      </cc:Work>
    </rdf:RDF>
  </metadata>
  <defs
     id="defs6">
    <linearGradient
       inkscape:collect="always"
       id="linearGradient131360">
      <stop
         style="stop-color:#ffffff;stop-opacity:1;"
         offset="0"
         id="stop131356" />
      <stop
         style="stop-color:#ffffff;stop-opacity:0;"
         offset="1"
         id="stop131358" />
    </linearGradient>
    <linearGradient
       inkscape:collect="always"
       id="linearGradient124625">
      <stop
         style="stop-color:#ffffff;stop-opacity:1;"
         offset="0"
         id="stop124621" />
      <stop
         style="stop-color:#ffffff;stop-opacity:0;"
         offset="1"
         id="stop124623" />
    </linearGradient>
    <linearGradient
       inkscape:collect="always"
       id="linearGradient123273">
      <stop
         style="stop-color:#fffbf9;stop-opacity:0"
         offset="0"
         id="stop123269" />
      <stop
         style="stop-color:#fbfbfb;stop-opacity:1"
         offset="1"
         id="stop123271" />
    </linearGradient>
    <linearGradient
       inkscape:collect="always"
       id="linearGradient56723">
      <stop
         style="stop-color:#ae4e03;stop-opacity:1"
         offset="0"
         id="stop56719" />
      <stop
         style="stop-color:#ffbb50;stop-opacity:1"
         offset="1"
         id="stop56721" />
    </linearGradient>
    <linearGradient
       inkscape:collect="always"
       id="linearGradient30036">
      <stop
         style="stop-color:#e37114;stop-opacity:1"
         offset="0"
         id="stop30032" />
      <stop
         style="stop-color:#ffc842;stop-opacity:1"
         offset="1"
         id="stop30034" />
    </linearGradient>
    <inkscape:path-effect
       effect="bspline"
       id="path-effect8749"
       is_visible="true"
       lpeversion="1"
       weight="33.333333"
       steps="2"
       helper_size="0"
       apply_no_weight="true"
       apply_with_weight="true"
       only_selected="false" />
    <clipPath
       clipPathUnits="userSpaceOnUse"
       id="clipPath466">
      <rect
         style="font-variation-settings:normal;opacity:0.17;vector-effect:none;fill:#008000;fill-opacity:1;fill-rule:evenodd;stroke-width:0.96073;stroke-linecap:butt;stroke-linejoin:miter;stroke-miterlimit:4;stroke-dasharray:none;stroke-dashoffset:0;stroke-opacity:1;stop-color:#000000;stop-opacity:1"
         id="rect468"
         width="59.043415"
         height="52.767841"
         x="260.01932"
         y="310.46512"
         ry="0.97390312" />
    </clipPath>
    <linearGradient
       inkscape:collect="always"
       xlink:href="#linearGradient30036"
       id="linearGradient30038"
       x1="33.055759"
       y1="38.669907"
       x2="32.74543"
       y2="28.593636"
       gradientUnits="userSpaceOnUse" />
    <linearGradient
       inkscape:collect="always"
       xlink:href="#linearGradient56723"
       id="linearGradient56725"
       x1="42.64798"
       y1="55.754459"
       x2="40.805168"
       y2="43.136578"
       gradientUnits="userSpaceOnUse" />
    <filter
       inkscape:collect="always"
       style="color-interpolation-filters:sRGB"
       id="filter65587"
       x="-0.0053891891"
       y="-0.023947288"
       width="1.0107784"
       height="1.0478946">
      <feGaussianBlur
         inkscape:collect="always"
         stdDeviation="0.16821762"
         id="feGaussianBlur65589" />
    </filter>
    <filter
       inkscape:collect="always"
       style="color-interpolation-filters:sRGB"
       id="filter65709"
       x="-0.020573779"
       y="-0.091421216"
       width="1.0411476"
       height="1.1828425">
      <feGaussianBlur
         inkscape:collect="always"
         stdDeviation="0.4739703"
         id="feGaussianBlur65711" />
    </filter>
    <filter
       inkscape:collect="always"
       style="color-interpolation-filters:sRGB"
       id="filter66282"
       x="-0.0069948127"
       y="-0.025754633"
       width="1.0139896"
       height="1.0515093">
      <feGaussianBlur
         inkscape:collect="always"
         stdDeviation="0.16009876"
         id="feGaussianBlur66284" />
    </filter>
    <linearGradient
       inkscape:collect="always"
       xlink:href="#linearGradient123273"
       id="linearGradient123267"
       gradientUnits="userSpaceOnUse"
       x1="32.272415"
       y1="30.631823"
       x2="32.347637"
       y2="26.834181" />
    <linearGradient
       inkscape:collect="always"
       xlink:href="#linearGradient124625"
       id="linearGradient125730"
       gradientUnits="userSpaceOnUse"
       x1="43.500469"
       y1="41.067181"
       x2="43.498035"
       y2="44.818928"
       gradientTransform="translate(17.011552,-10.120944)" />
    <linearGradient
       inkscape:collect="always"
       xlink:href="#linearGradient124625"
       id="linearGradient125732"
       gradientUnits="userSpaceOnUse"
       x1="43.500469"
       y1="41.067181"
       x2="43.498035"
       y2="44.818928"
       gradientTransform="translate(17.011552,-10.120944)" />
    <linearGradient
       inkscape:collect="always"
       xlink:href="#linearGradient124625"
       id="linearGradient125734"
       gradientUnits="userSpaceOnUse"
       x1="43.500469"
       y1="41.067181"
       x2="43.731022"
       y2="44.935421"
       gradientTransform="translate(17.011552,-10.120944)" />
    <linearGradient
       inkscape:collect="always"
       xlink:href="#linearGradient124625"
       id="linearGradient125736"
       gradientUnits="userSpaceOnUse"
       x1="43.500469"
       y1="41.067181"
       x2="43.498035"
       y2="44.818928"
       gradientTransform="translate(17.011552,-10.120944)" />
    <linearGradient
       inkscape:collect="always"
       xlink:href="#linearGradient124625"
       id="linearGradient125738"
       gradientUnits="userSpaceOnUse"
       x1="43.500469"
       y1="41.067181"
       x2="43.498035"
       y2="44.818928"
       gradientTransform="translate(17.011552,-10.120944)" />
    <linearGradient
       inkscape:collect="always"
       xlink:href="#linearGradient124625"
       id="linearGradient125740"
       gradientUnits="userSpaceOnUse"
       x1="43.500469"
       y1="41.067181"
       x2="43.498035"
       y2="44.818928"
       gradientTransform="translate(17.011552,-10.120944)" />
    <linearGradient
       inkscape:collect="always"
       xlink:href="#linearGradient124625"
       id="linearGradient125742"
       gradientUnits="userSpaceOnUse"
       x1="43.500469"
       y1="41.067181"
       x2="43.498035"
       y2="44.818928"
       gradientTransform="translate(17.011552,-10.120944)" />
    <filter
       inkscape:collect="always"
       style="color-interpolation-filters:sRGB"
       id="filter130443"
       x="-0.022809364"
       y="-0.031280759"
       width="1.0456187"
       height="1.0625615">
      <feGaussianBlur
         inkscape:collect="always"
         stdDeviation="0.032097957"
         id="feGaussianBlur130445" />
    </filter>
    <linearGradient
       inkscape:collect="always"
       xlink:href="#linearGradient131360"
       id="linearGradient131362"
       x1="60.51202"
       y1="29.298763"
       x2="58.968777"
       y2="30.889275"
       gradientUnits="userSpaceOnUse"
       gradientTransform="translate(0.212448,-0.27359775)" />
    <linearGradient
       inkscape:collect="always"
       xlink:href="#linearGradient30036"
       id="linearGradient141938"
       gradientUnits="userSpaceOnUse"
       x1="33.055759"
       y1="38.669907"
       x2="32.74543"
       y2="28.593636" />
    <filter
       inkscape:collect="always"
       style="color-interpolation-filters:sRGB"
       id="filter65587-5"
       x="-0.02504722"
       y="-0.11129919"
       width="1.0501804"
       height="1.2226165">
      <feGaussianBlur
         inkscape:collect="always"
         stdDeviation="0.16821762"
         id="feGaussianBlur65589-5" />
    </filter>
  </defs>
  <sodipodi:namedview
     pagecolor="#ffffff"
     bordercolor="#666666"
     borderopacity="1"
     objecttolerance="10"
     gridtolerance="10"
     guidetolerance="10"
     inkscape:pageopacity="0"
     inkscape:pageshadow="2"
     inkscape:window-width="1008"
     inkscape:window-height="728"
     id="namedview4"
     showgrid="false"
     inkscape:pagecheckerboard="0"
     inkscape:zoom="5.5767657"
     inkscape:cx="40.166651"
     inkscape:cy="15.779756"
     inkscape:window-x="0"
     inkscape:window-y="0"
     inkscape:window-maximized="0"
     inkscape:current-layer="g132065"
     showguides="false"
     inkscape:guide-bbox="true"
     inkscape:snap-global="false">
    <sodipodi:guide
       position="4.2304885,55.942783"
       orientation="0.70710678,-0.70710678"
       id="guide8530" />
  </sodipodi:namedview>
  <g
     inkscape:groupmode="layer"
     inkscape:label="Image"
     id="g10"
     transform="translate(-243.51495,-216.05378)" />
  <g
     inkscape:groupmode="layer"
     id="layer2"
     inkscape:label="Super Memory"
     transform="translate(-5.7695114,86.279591)">
    <g
       inkscape:groupmode="layer"
       id="layer3"
       inkscape:label="text">
      <g
         id="g12768"
         transform="translate(2.9110857,25.617554)">
        <g
           id="g2410"
           style="stroke:#441a08;stroke-width:2.94591;stroke-linecap:round;stroke-miterlimit:4;stroke-dasharray:none;stroke-opacity:1"
           transform="matrix(1.0211097,0,0,1.0183619,-14.701655,-140.87933)">
          <path
             id="path2344"
             style="font-weight:bold;font-size:16.1511px;line-height:0;font-family:'Fredoka One';-inkscape-font-specification:'Fredoka One Bold';letter-spacing:0.96px;word-spacing:0px;opacity:1;fill:#4e1b05;fill-opacity:1;stroke:#441a08;stroke-width:2.94591;stroke-linecap:round;stroke-linejoin:round;stroke-miterlimit:4;stroke-dasharray:none;stroke-opacity:1"
             d="m 77.153962,30.843782 c -0.237434,-0.0028 -0.473507,0.01282 -0.707032,0.04691 l -3.439453,0.500948 c -0.679344,0.09918 -1.068141,0.283668 -1.167969,0.551211 -0.05784,0.148981 -0.0864,0.279682 -0.08594,0.392047 0.001,0.01107 0.0045,0.02955 0.0059,0.04189 -0.241611,0.09744 -0.392788,0.220705 -0.449218,0.371942 -0.05784,0.148982 -0.08836,0.279682 -0.08789,0.392048 0.0093,0.101709 0.03657,0.25634 0.07813,0.465765 l 1.503906,7.58125 c 0.06323,0.318692 0.141928,0.549804 0.236328,0.695297 0.194223,0.318306 0.661264,0.423461 1.404297,0.314978 0.679344,-0.09918 1.070094,-0.281992 1.169922,-0.549536 0.05781,-0.14898 0.08151,-0.275259 0.07227,-0.376968 -5.7e-5,-0.01427 -0.0032,-0.0361 -0.0039,-0.05194 0.248514,-0.09813 0.403601,-0.223301 0.460938,-0.376968 0.05781,-0.148979 0.08347,-0.275258 0.07422,-0.376968 -4.47e-4,-0.112366 -0.0229,-0.273094 -0.06445,-0.48252 l -0.164063,-0.836031 1.333984,-0.194349 0.488282,-0.09885 c 1.014477,1.369702 1.591949,2.132785 1.732421,2.290292 0.08176,0.08176 0.196354,0.158749 0.341797,0.231207 0.154252,0.0618 0.331524,0.07803 0.533203,0.04859 0.212296,-0.03099 0.476637,-0.134559 0.791016,-0.311627 0.589343,-0.320955 0.857272,-0.648581 0.814453,-0.981793 0.406219,-0.276538 0.585945,-0.557221 0.529297,-0.842734 -0.02891,-0.145687 -0.156599,-0.37064 -0.380859,-0.675191 -0.676168,-0.875681 -1.178537,-1.536871 -1.507813,-1.985366 0.664223,-0.78093 0.893602,-1.68693 0.689453,-2.715847 -0.11743,-0.591855 -0.360686,-1.109138 -0.732421,-1.551434 -0.371734,-0.442296 -0.798701,-0.773241 -1.279297,-0.993521 -0.747487,-0.34059 -1.477152,-0.514293 -2.189453,-0.522729 z m -44.417969,0.820953 c -1.012126,-0.01433 -1.85807,0.218979 -2.535157,0.700324 -0.517508,0.3679 -0.879111,0.79882 -1.085937,1.290068 -0.414777,0.444762 -0.654982,0.958937 -0.71875,1.543057 -0.06425,0.588554 0.0145,1.105204 0.236328,1.549759 0.233555,0.436218 0.543392,0.767674 0.929688,0.99352 0.386296,0.225845 0.80608,0.429846 1.261718,0.614877 0.456643,0.175835 0.886758,0.313378 1.28711,0.410476 0.400351,0.0971 0.726566,0.230081 0.978515,0.398749 0.257368,0.156498 0.375219,0.337578 0.359375,0.542835 -0.263574,0.127043 -0.620995,0.174106 -1.078125,0.137384 -0.235851,-0.01895 -0.486326,-0.109408 -0.75,-0.269742 -0.26267,-0.16953 -0.46073,-0.337584 -0.59375,-0.505975 -0.485827,-0.502872 -0.879513,-0.766685 -1.179687,-0.790796 -0.300174,-0.02411 -0.594612,0.06386 -0.886719,0.26304 -0.503149,0.349208 -0.768822,0.642167 -0.794922,0.881268 -0.0042,0.03865 -0.0035,0.07953 0,0.12063 -0.330587,0.264057 -0.508272,0.492637 -0.529297,0.685244 -0.0251,0.229905 0.08543,0.504286 0.332032,0.820954 l 0.126953,0.162515 c 0.195012,0.29397 0.561596,0.611714 1.097656,0.951635 0.261666,0.178726 0.610615,0.341022 1.048828,0.487546 0.439217,0.137327 0.912152,0.225913 1.416016,0.266391 0.986285,0.07923 1.939759,-0.09001 2.861328,-0.507651 0.477367,-0.212126 0.879105,-0.531791 1.207031,-0.960012 0.133758,-0.177876 0.243828,-0.370279 0.333985,-0.574667 0.06797,-0.07381 0.134729,-0.149544 0.197265,-0.231208 0.328927,-0.437417 0.524584,-0.955358 0.589844,-1.553108 0.06526,-0.597751 -0.01935,-1.109333 -0.253906,-1.536356 C 36.37058,37.120135 36.064754,36.802114 35.675446,36.603857 35.286138,36.4056 34.856758,36.23191 34.386383,36.082803 33.917013,35.924498 33.481098,35.802114 33.079743,35.714212 32.678387,35.62631 32.347268,35.492514 32.085602,35.313788 31.897986,35.18081 31.78772,35.028746 31.755524,34.8564 c 0.221826,-0.08428 0.475249,-0.115004 0.759766,-0.09215 0.353776,0.02842 0.635577,0.110326 0.847656,0.247961 0.07002,0.05201 0.144923,0.118916 0.222656,0.199374 0.08845,0.08132 0.147581,0.131487 0.177734,0.152463 0.312256,0.210623 0.58151,0.325377 0.806641,0.34346 0.385938,0.031 0.784525,-0.167595 1.199219,-0.598123 0.292429,-0.301197 0.44867,-0.544882 0.46875,-0.728805 5.97e-4,-0.0055 -3.11e-4,-0.01119 0,-0.01675 0.02078,-0.02048 0.04165,-0.03867 0.0625,-0.06031 0.292429,-0.301197 0.44867,-0.544881 0.46875,-0.728805 0.02008,-0.183923 -0.120608,-0.422016 -0.423828,-0.715402 l -0.375,-0.294873 c -0.187626,-0.163501 -0.541535,-0.335025 -1.0625,-0.516028 -0.509242,-0.189334 -1.085286,-0.310214 -1.728516,-0.361889 -0.151427,-0.01216 -0.29877,-0.01973 -0.443359,-0.02178 z m 36.613281,0.170892 c -0.09162,0.003 -0.199016,0.0099 -0.322266,0.02011 l -6.333984,0.524405 c -0.56802,0.04715 -0.943024,0.166963 -1.126953,0.358539 -0.13193,0.130083 -0.201964,0.334025 -0.212891,0.60985 -0.136666,0.05377 -0.244175,0.118756 -0.318359,0.196024 -0.18497,0.182383 -0.250152,0.507899 -0.197266,0.976766 l 0.865235,7.666696 c 0.03629,0.321772 0.09489,0.553539 0.175781,0.695297 0.16801,0.338682 0.626738,0.477768 1.376953,0.415503 l 6.365234,-0.527755 c 0.375108,-0.03113 0.652151,-0.08218 0.828125,-0.152463 0.298223,-0.111207 0.455594,-0.376314 0.478516,-0.78912 0.01632,-0.0057 0.03589,-0.01081 0.05078,-0.01675 0.384102,-0.143231 0.539383,-0.537623 0.466797,-1.181167 -0.06636,-0.588382 -0.250803,-0.934064 -0.554687,-1.038756 -0.169056,-0.06016 -0.31762,-0.09023 -0.447266,-0.0888 -0.119964,-0.0086 -0.304282,-0.0021 -0.550781,0.01843 L 64.94107,39.932913 64.8688,39.29458 67.403957,39.085153 c 0.375107,-0.03113 0.652151,-0.08218 0.828124,-0.152462 0.307754,-0.11234 0.470377,-0.378365 0.494141,-0.794147 0.01101,-0.0039 0.02483,-0.0076 0.03516,-0.01173 0.39482,-0.144121 0.556961,-0.537623 0.484375,-1.181167 -0.06636,-0.588382 -0.252755,-0.93574 -0.55664,-1.040432 -0.169055,-0.06016 -0.31762,-0.08855 -0.447266,-0.08712 -0.119964,-0.0086 -0.304282,-0.0037 -0.550781,0.01675 l -3.181641,0.264715 -0.07227,-0.638332 4.320312,-0.358539 c 0.375108,-0.03113 0.650199,-0.08218 0.826172,-0.152463 0.298619,-0.111355 0.457883,-0.375363 0.480469,-0.789119 0.01565,-0.0055 0.03449,-0.01103 0.04883,-0.01675 0.384101,-0.143232 0.541335,-0.535948 0.46875,-1.179491 -0.06636,-0.588382 -0.252755,-0.935739 -0.556641,-1.040432 -0.169054,-0.06016 -0.317619,-0.08855 -0.447265,-0.08712 -0.05998,-0.0043 -0.1369,-0.0046 -0.228516,-0.0017 z m -29.125,0.509326 c -0.232478,0.0018 -0.426653,0.0211 -0.582031,0.05697 -0.207171,0.04781 -0.35621,0.137854 -0.449219,0.273093 -0.09301,0.135238 -0.154567,0.258651 -0.181641,0.36859 -0.0081,0.05143 -0.01464,0.11847 -0.02148,0.20105 -0.14399,0.05228 -0.254898,0.12976 -0.328125,0.236234 -0.09301,0.135238 -0.152614,0.258652 -0.179688,0.368591 -0.01585,0.101108 -0.0299,0.262726 -0.04102,0.484194 l -0.208985,4.165081 c -0.06208,1.236532 0.318385,2.360589 1.140626,3.370934 0.395448,0.495348 0.918177,0.903121 1.570312,1.223052 0.662891,0.320328 1.403138,0.495874 2.220703,0.52608 0.828321,0.0306 1.589169,-0.08411 2.28125,-0.345135 0.692543,-0.270253 1.264824,-0.634297 1.71875,-1.08902 0.387798,-0.401056 0.700452,-0.823259 0.9375,-1.268288 0.670691,-0.846379 1.032426,-1.7827 1.083985,-2.80967 l 0.208985,-4.180163 c 0.01622,-0.322974 -0.0039,-0.564521 -0.06055,-0.723779 -0.03654,-0.130779 -0.101739,-0.230052 -0.195313,-0.298223 -0.09357,-0.06818 -0.229596,-0.128053 -0.410156,-0.180945 -0.18056,-0.0529 -0.426316,-0.08565 -0.738281,-0.09717 -0.301208,-0.01113 -0.556501,0.0075 -0.763672,0.05529 -0.207171,0.04781 -0.367434,0.142825 -0.482422,0.286496 -0.0926,0.115701 -0.151895,0.305341 -0.18164,0.561263 -0.143845,0.05378 -0.26078,0.133623 -0.34961,0.244611 -0.114988,0.143672 -0.181152,0.395725 -0.199219,0.755612 l -0.21289,4.235448 c -0.01793,0.357089 -0.09398,0.687281 -0.22461,0.99352 -0.40799,0.419606 -0.976216,0.618492 -1.708984,0.591421 -0.441054,-0.0163 -0.819919,-0.107647 -1.134766,-0.276442 -0.314846,-0.168797 -0.54497,-0.38572 -0.693359,-0.650062 -0.29724,-0.519455 -0.432557,-1.060577 -0.404297,-1.623476 l 0.208985,-4.153352 c 0.01853,-0.369114 -0.03196,-0.660908 -0.150391,-0.877917 -0.06835,-0.141201 -0.202685,-0.243683 -0.404297,-0.306601 -0.201611,-0.06292 -0.474121,-0.10121 -0.818359,-0.113929 -0.08606,-0.0032 -0.168601,-0.0039 -0.246094,-0.0033 z m 15.640625,0.291523 -3.455078,0.05864 c -0.688982,0.01157 -1.104974,0.143532 -1.25,0.395398 -0.08296,0.139966 -0.135297,0.26579 -0.154297,0.376968 -0.0035,0.04247 -0.0046,0.0991 -0.0059,0.16084 -0.179129,0.06488 -0.304988,0.153259 -0.371094,0.268066 -0.08296,0.139966 -0.133344,0.264115 -0.152344,0.375293 -0.0085,0.101761 -0.01073,0.26007 -0.0059,0.472466 l 0.175781,7.686802 c 0.0074,0.323212 0.04511,0.562848 0.113281,0.718752 0.136981,0.339516 0.582364,0.503552 1.335938,0.490897 0.688982,-0.01157 1.104974,-0.143532 1.25,-0.395398 0.08296,-0.139966 0.130225,-0.260127 0.138672,-0.36189 0.008,-0.04654 0.01185,-0.108297 0.01563,-0.172567 0.182659,-0.06505 0.310051,-0.155229 0.376953,-0.271417 0.08296,-0.139966 0.128272,-0.260128 0.136718,-0.36189 0.01902,-0.111177 0.02635,-0.273473 0.02148,-0.48587 l -0.01758,-0.767339 1.470703,-0.02513 c 0.958115,-0.01608 1.875822,-0.327187 2.755859,-0.933206 0.434848,-0.293684 0.7877,-0.684538 1.056641,-1.169439 0.03174,-0.05837 0.06009,-0.117741 0.08789,-0.177594 0.165905,-0.1877 0.313203,-0.395454 0.441407,-0.626605 0.268708,-0.494135 0.396486,-1.041655 0.382812,-1.641906 -0.0137,-0.600252 -0.165965,-1.143766 -0.457031,-1.628503 -0.291067,-0.484737 -0.659511,-0.865445 -1.107422,-1.144308 -0.907009,-0.576018 -1.835854,-0.856968 -2.783203,-0.841058 z m 20.748047,1.465987 c 0.250603,0.0039 0.507496,0.06764 0.769531,0.190998 0.347576,0.155377 0.561136,0.432039 0.640625,0.832681 0.02403,0.121103 0.02921,0.234877 0.02148,0.341784 -0.202265,0.137854 -0.413565,0.225437 -0.636718,0.258013 l -2.039063,0.296548 -0.339843,-1.708922 1.335937,-0.196024 c 0.08226,-0.01201 0.164512,-0.01635 0.248047,-0.01508 z m -21.238281,1.792693 c 0.333725,-0.0056 0.659521,0.09442 0.976562,0.301575 0.316809,0.19792 0.480941,0.500075 0.490235,0.906399 0.0014,0.05999 -0.0023,0.116898 -0.0078,0.172568 -0.279096,0.170429 -0.563813,0.259809 -0.855469,0.264716 l -2.035156,0.03351 -0.03906,-1.653634 z" />
          <path
             id="path2346"
             style="color:#000000;font-weight:bold;font-size:14.3894px;font-family:'Fredoka One';-inkscape-font-specification:'Fredoka One Bold';letter-spacing:1.14px;word-spacing:0px;mix-blend-mode:normal;fill:#4e1b05;fill-opacity:1;stroke:#441a08;stroke-width:2.94591;stroke-linecap:round;stroke-linejoin:round;stroke-miterlimit:4;stroke-dasharray:none;stroke-opacity:1;filter:url(#filter65587-5)"
             d="m 84.733146,40.573165 c -0.138208,0.0098 -0.277399,0.04063 -0.416016,0.0918 -0.26482,0.09776 -0.494516,0.270866 -0.677734,0.501953 l -0.002,0.002 c -0.17524,0.230316 -0.280262,0.496833 -0.306641,0.78125 l -0.859375,8.886719 c 0,0 0,0.002 0,0.002 v 0.002 c -0.02749,0.250294 -0.03588,0.453396 -0.01563,0.628907 l -0.002,0.01563 c -2.37e-4,0.0021 2.36e-4,0.0037 0,0.0059 v 0.0039 c -0.0451,0.408766 -0.07662,0.724477 0.06836,1.117187 0.132099,0.35784 0.42211,0.643715 0.734374,0.806641 0.309888,0.161687 0.644625,0.235269 1.013672,0.271484 0.419078,0.04622 0.764479,0.06507 1.152344,-0.07813 0.289394,-0.106831 0.58087,-0.292888 0.771484,-0.587891 l 0.002,-0.0039 0.002,-0.0039 c 0.116334,-0.18496 0.214537,-0.377283 0.255859,-0.630859 0.03345,-0.152148 0.05708,-0.307463 0.08008,-0.515625 v -0.0059 l 0.117188,-1.236329 2.824218,-1.041015 0.892579,0.863281 0.376953,0.353516 0.02344,0.01953 c 0.185275,0.148829 0.39277,0.24183 0.603516,0.304687 l 0.01367,0.0039 0.01367,0.0039 c 0.318564,0.08199 0.653299,0.04509 0.939453,-0.06055 0.386645,-0.142732 0.652136,-0.386853 0.943359,-0.697266 0.256834,-0.273758 0.461116,-0.551791 0.589844,-0.878906 0.128728,-0.327116 0.163349,-0.73005 0.03125,-1.087891 -0.146027,-0.395571 -0.378517,-0.615995 -0.681641,-0.90039 l -6.421875,-6.185547 -0.0039,-0.002 c -0.281877,-0.26445 -0.637132,-0.447721 -1.011719,-0.53125 -0.08528,-0.01902 -0.171287,-0.03245 -0.257812,-0.04102 -0.249431,-0.13565 -0.518568,-0.197216 -0.792969,-0.177735 z m -62.3125,0.55664 c -0.233638,0.01169 -0.445668,0.08138 -0.597656,0.230469 l -0.002,0.002 -0.0039,0.0039 c -0.124503,0.130548 -0.219514,0.260101 -0.283203,0.396484 l -0.0039,0.0059 -0.0039,0.0078 c -0.04262,0.112373 -0.09028,0.272565 -0.150391,0.488281 l -2.144531,7.69336 c -0.06264,0.224826 -0.104896,0.395689 -0.128906,0.521484 l -0.002,0.0078 v 0.0098 c -0.01405,0.131287 -0.0019,0.268976 0.0293,0.414062 -0.01393,0.05918 -0.029,0.119163 -0.03906,0.171875 l -0.0059,0.03125 -0.002,0.03125 c -0.02487,0.232411 0.0031,0.452084 0.05664,0.666016 0.08732,0.360267 0.330876,0.647666 0.595703,0.833984 0.265531,0.186814 0.561339,0.30451 0.898438,0.398438 0.344587,0.09601 0.663488,0.150979 0.990234,0.130859 0.32594,-0.02007 0.688881,-0.135832 0.955078,-0.404297 0.158335,-0.157173 0.297901,-0.335948 0.390625,-0.574218 0.07426,-0.166824 0.130853,-0.33737 0.191406,-0.554688 l 0.664063,-2.382812 c 0.143792,0.375158 0.327971,0.865215 0.40625,1.048828 l 0.0625,0.167969 0.0059,0.01563 c 0.105186,0.246726 0.251244,0.429986 0.425781,0.617187 l 0.01758,0.01758 0.01758,0.01758 c 0.239798,0.226199 0.538688,0.392202 0.855469,0.480469 0.331922,0.09244 0.691773,0.100448 1.027343,0.01367 l 0.0059,-0.002 0.0059,-0.002 c 0.243278,-0.06698 0.380909,-0.07429 0.652344,-0.261718 l 0.02344,-0.01758 0.02148,-0.01758 c 0.04787,-0.03862 0.161071,-0.126468 0.322265,-0.248047 0.08124,-0.06127 0.310204,-0.24514 0.511719,-0.40625 l -0.457031,1.642578 c -0.09303,0.333867 -0.143662,0.592459 -0.140625,0.804687 v 0.0078 l 0.002,0.0098 c 0.0058,0.06014 0.01777,0.11739 0.0332,0.173828 -0.03529,0.177599 -0.05722,0.346373 -0.05469,0.523438 v 0.03125 l 0.002,0.03125 c 0.02317,0.242052 0.105069,0.501527 0.267578,0.720703 0.153009,0.206364 0.331304,0.340584 0.527344,0.462891 0.24576,0.153326 0.509281,0.249273 0.820312,0.335938 0.319653,0.08908 0.619246,0.141276 0.923828,0.130859 0.404861,-0.01382 0.807946,-0.232062 1.058594,-0.523438 0.250648,-0.291376 0.395918,-0.633927 0.503906,-1.021484 l 0.935547,-3.359375 -0.310547,2.556641 c -0.03335,0.274477 -0.0423,0.492519 -0.01953,0.677734 -0.04096,0.347854 -0.05555,0.631297 0.01563,0.947266 0.07857,0.396278 0.351515,0.759969 0.675781,0.960937 0.327712,0.203102 0.688663,0.294784 1.091797,0.34375 l 5.658203,0.6875 c 0.372314,0.04521 0.672876,0.06247 1,-0.0078 0.397956,-0.08022 0.756545,-0.363049 0.953125,-0.6875 0.197758,-0.326394 0.287195,-0.684641 0.335938,-1.085938 0.0436,-0.359003 0.0499,-0.681888 -0.01953,-1.003906 -0.06915,-0.320692 -0.244646,-0.669685 -0.5625,-0.888672 -0.185447,-0.129264 -0.389176,-0.234831 -0.630859,-0.289062 -0.12839,-0.03664 -0.260461,-0.06027 -0.404297,-0.08203 -0.08296,-0.04149 -0.164656,-0.07331 -0.25,-0.0918 -0.09852,-0.02976 -0.226972,-0.0541 -0.376953,-0.07617 0.337761,-0.109753 0.636558,-0.354784 0.8125,-0.638672 0.203103,-0.327711 0.292831,-0.688662 0.341797,-1.091797 0.0436,-0.359003 0.05186,-0.681889 -0.01758,-1.003907 -0.06915,-0.320694 -0.246596,-0.669684 -0.564453,-0.888671 -0.130327,-0.09084 -0.288755,-0.144684 -0.44336,-0.203125 l 0.789063,0.0957 c 0.372323,0.04521 0.674819,0.06247 1.001953,-0.0078 0.371672,-0.07492 0.707073,-0.326039 0.910156,-0.623047 l -0.179687,6.828125 c -0.0063,0.240916 -0.007,0.423993 0.002,0.582032 l 0.002,0.0332 0.0039,0.03125 c 0.03219,0.230509 0.111578,0.435108 0.214844,0.628906 0,0 0.002,0.002 0.002,0.002 0.172215,0.328257 0.479106,0.549605 0.78125,0.666016 0.302955,0.116725 0.618931,0.158732 0.96875,0.167968 0.357588,0.0094 0.678161,-0.0144 0.990234,-0.113281 0.310435,-0.09836 0.634913,-0.299566 0.828125,-0.623047 0.115819,-0.191424 0.208234,-0.401735 0.240235,-0.65625 0.03117,-0.179032 0.04684,-0.357703 0.05273,-0.582031 l 0.06445,-2.474609 c 0.231126,0.329754 0.527725,0.760584 0.648438,0.919922 l 0.101562,0.148437 0.0098,0.01367 c 0.161978,0.213807 0.347708,0.354961 0.5625,0.494141 l 0.02148,0.01367 0.02148,0.01367 c 0.28752,0.161112 0.616647,0.249089 0.945312,0.257813 0.344468,0.0091 0.697478,-0.07062 1.001953,-0.236328 l 0.0039,-0.0039 0.0059,-0.002 c 0.219725,-0.124064 0.350577,-0.166312 0.568359,-0.414062 l 0.01953,-0.02148 0.01758,-0.02344 c 0.03706,-0.04909 0.125116,-0.161269 0.251953,-0.318359 0.08878,-0.109951 0.35073,-0.454377 0.552734,-0.71875 l -0.06641,2.447265 c -0.0098,0.372643 -0.0026,0.666827 0.07813,0.970703 l 0.0098,0.0293 0.0098,0.03125 c 0.08127,0.229176 0.222715,0.459673 0.433594,0.632813 0.198552,0.163021 0.40317,0.251237 0.623047,0.322265 0.275626,0.08903 0.556148,0.118427 0.878906,0.126954 0.331702,0.0088 0.634827,-0.01359 0.927734,-0.09766 0.389379,-0.111748 0.728022,-0.422096 0.900391,-0.765625 0.172369,-0.34353 0.229614,-0.7111 0.240234,-1.113281 l 0.199219,-7.634766 0.451172,0.205079 c -0.05576,0.133169 -0.108387,0.269328 -0.15625,0.410156 h 0.002 c -0.228433,0.661528 -0.334468,1.360739 -0.316406,2.091797 -0.02623,0.32505 -0.02868,0.655669 -0.0078,0.990234 0.102028,1.63568 0.795298,3.082619 2.007813,4.193359 h 0.002 v 0.002 c 1.226412,1.112931 2.746185,1.65128 4.388672,1.548828 1.644188,-0.102559 3.079088,-0.834919 4.128906,-2.105469 h 0.002 v -0.002 c 1.044333,-1.275487 1.530761,-2.828717 1.425782,-4.511719 -0.106019,-1.699639 -0.817291,-3.176309 -2.070313,-4.261719 -0.676887,-0.586342 -1.44532,-0.946351 -2.253906,-1.18164 -0.06246,-0.02885 -0.126195,-0.05576 -0.189453,-0.08203 l 0.205078,-0.08008 -0.01563,0.0039 c 0.336916,-0.123118 0.656646,-0.28201 0.890625,-0.628906 l 0.01563,-0.02344 0.01367,-0.02149 c 0.158767,-0.273682 0.181617,-0.552555 0.166015,-0.802734 -0.01754,-0.281165 -0.09561,-0.543837 -0.205078,-0.816406 -0.1239,-0.328689 -0.263562,-0.613567 -0.492187,-0.861328 -0.231249,-0.250605 -0.621566,-0.462319 -1.019532,-0.4375 -0.0119,7.42e-4 -0.01665,0.0012 -0.02734,0.002 -0.137384,-0.107073 -0.299454,-0.170715 -0.46875,-0.160157 -0.08538,0.0053 -0.110499,0.02045 -0.185547,0.04297 -0.07505,0.02252 -0.173112,0.05591 -0.296875,0.09766 h -0.0039 l -2.328126,0.882812 c -0.276608,0.101422 -0.490865,0.226846 -0.621093,0.419922 l -0.0039,0.0059 -0.0039,0.0078 c -0.08525,0.146938 -0.10557,0.316381 -0.09375,0.505859 0.0042,0.06793 0.01453,0.138931 0.0293,0.210938 -0.05126,0.184107 -0.05929,0.363519 -0.04883,0.53125 0.01771,0.283854 0.09587,0.546867 0.207031,0.822265 0,0 0,0.002 0,0.002 0.04676,0.118655 0.105409,0.227073 0.167969,0.328125 -0.08869,0.039 -0.176248,0.0807 -0.263672,0.125 -0.629713,0.319115 -1.182453,0.740242 -1.650391,1.259766 -0.327097,0.363158 -0.600848,0.781233 -0.822265,1.25 l -0.760258,-1.56656 c 0,0 -0.002,-0.002 -0.002,-0.002 -8.95e-4,-0.0018 -0.0011,-0.0041 -0.002,-0.0059 l -0.002,0.002 c -0.0849,-0.17151 -0.257875,-0.227132 -0.396484,-0.339843 l 0.02344,-0.02344 -0.105469,-0.04883 c -0.115608,-0.08054 -0.194751,-0.225742 -0.316406,-0.271484 -0.139232,-0.05235 -0.300199,-0.0485 -0.447266,-0.07422 l -1.128906,-0.513672 0.134766,0.267578 c -0.0317,-0.0015 -0.06093,-0.003 -0.09375,-0.0039 -0.636632,-0.01681 -1.115289,0.09896 -1.355469,0.458984 -0.488352,0.584852 -1.500046,1.837525 -2.8125,3.478516 L 46.428459,45.80754 46.307365,45.680588 c -0.233299,-0.265387 -0.442834,-0.316235 -0.671875,-0.390625 -0.182232,-0.0699 -0.371242,-0.113104 -0.566407,-0.138672 -0.04547,-0.01772 -0.09262,-0.0336 -0.144531,-0.05078 -0.211765,-0.08358 -0.45599,-0.127464 -0.732422,-0.134766 -0.317713,-0.0084 -0.584793,0.01589 -0.808593,0.08398 -0.223802,0.06809 -0.412214,0.187598 -0.523438,0.369141 l -0.002,0.0039 -0.002,0.002 c -0.03575,0.06297 -0.06714,0.124414 -0.09375,0.185547 -0.09209,-0.153258 -0.214456,-0.294027 -0.373047,-0.402343 -0.186728,-0.129909 -0.390767,-0.235569 -0.634766,-0.289063 -0.128459,-0.03629 -0.259866,-0.06046 -0.404297,-0.08203 -0.08233,-0.04083 -0.163963,-0.0718 -0.248046,-0.08984 -0.127499,-0.03821 -0.286973,-0.06717 -0.50586,-0.09375 l -5.628906,-0.683594 c -0.530052,-0.06438 -0.938549,-0.02895 -1.224609,0.19336 -0.07972,0.05962 -0.147413,0.132282 -0.205079,0.216796 -0.07291,-0.07337 -0.150817,-0.138281 -0.230468,-0.193359 -0.270949,-0.187358 -0.573504,-0.305275 -0.921875,-0.402344 -0.142457,-0.03969 -0.285195,-0.07073 -0.427735,-0.0957 -0.07953,-0.0279 -0.160813,-0.05523 -0.25,-0.08008 -0.613484,-0.170942 -1.105347,-0.175669 -1.425781,0.115234 l 0.01758,-0.01562 c -0.589667,0.429404 -1.831237,1.368925 -3.414062,2.574218 l -1.507813,-3.787109 -0.08594,-0.152344 C 25.129626,42.029328 24.937113,41.929533 24.733051,41.80173 24.484229,41.62722 24.207867,41.505825 23.902973,41.42087 23.751348,41.37862 23.605517,41.3451 23.461567,41.32126 23.386137,41.29257 23.308732,41.2664 23.225238,41.24313 22.919076,41.15782 22.654189,41.118156 22.420551,41.129848 Z m 55.708984,1.371094 c -0.181587,3.84e-4 -0.378686,0.02767 -0.595703,0.07617 -0.315192,0.07045 -0.570321,0.160948 -0.771484,0.285156 -0.200311,0.123682 -0.352233,0.291715 -0.408203,0.5 -0.04814,0.173869 -0.07271,0.332108 -0.06445,0.482422 l 0.002,0.0098 v 0.0078 c 0.0067,0.05137 0.0166,0.114792 0.0293,0.183594 -0.03983,0.173488 -0.06107,0.349712 -0.05078,0.53711 l 0.002,0.0293 0.0039,0.02734 c 0.01996,0.153501 0.05488,0.324466 0.105468,0.550781 l 0.449219,2.013672 C 76.69677,46.705077 76.48763,46.241807 76.201896,45.827071 75.825169,45.280256 75.364041,44.837146 74.824943,44.534102 v -0.002 h -0.002 c -0.535822,-0.299455 -1.087894,-0.502171 -1.642531,-0.605421 -0.62832,-0.217858 -1.252637,-0.288387 -1.867188,-0.197266 l -3.074219,0.455078 c -0.319477,0.04737 -0.581361,0.11925 -0.791015,0.228516 -0.208305,0.108563 -0.372154,0.265738 -0.44336,0.46875 0,0 0,0.002 0,0.002 0,0 -0.002,0.002 -0.002,0.002 -0.0597,0.168239 -0.09501,0.325373 -0.09766,0.474609 v 0.0078 0.0098 c 0.0044,0.07775 0.01561,0.182416 0.03125,0.300781 -0.02914,0.121976 -0.04844,0.246506 -0.05078,0.378906 l -0.002,0.0293 0.002,0.0293 c 0.0087,0.154573 0.03044,0.325288 0.06445,0.554687 l 1.171875,7.900391 c 0.05508,0.371499 0.118543,0.667605 0.273437,0.964843 0.182954,0.361931 0.549506,0.632813 0.914063,0.736329 0.367116,0.104243 0.736844,0.09445 1.136719,0.03516 0.35773,-0.05304 0.670766,-0.132908 0.96289,-0.285156 0.292125,-0.152248 0.584801,-0.412421 0.710938,-0.779297 0.07331,-0.206819 0.12177,-0.419872 0.111328,-0.667969 4.39e-4,-0.184643 -0.01537,-0.36617 -0.04883,-0.591797 l -0.125,-0.83789 0.96875,-0.144532 c 0.278491,0.458034 0.5647,0.929494 0.746094,1.222656 0.251007,0.405671 0.382791,0.619823 0.498046,0.777344 l 0.01172,0.01758 0.01367,0.01563 c 0.143575,0.174805 0.311788,0.306784 0.494141,0.417969 l 0.03125,0.01758 0.0293,0.01563 c 0.294997,0.145551 0.631862,0.177553 0.933594,0.132813 0.367158,-0.05444 0.671744,-0.210312 1.003906,-0.417969 0.331469,-0.201141 0.611067,-0.421643 0.824219,-0.71875 0.214227,-0.298603 0.3429,-0.708222 0.285157,-1.097656 -0.05815,-0.392169 -0.211698,-0.640554 -0.425782,-0.996094 l -0.0059,-0.0059 -0.0039,-0.0078 c -0.487765,-0.771745 -0.807853,-1.291972 -1.082032,-1.742187 0.479937,-0.857002 0.72337,-1.821242 0.570313,-2.853516 -0.01002,-0.0676 -0.02262,-0.134616 -0.03516,-0.201172 l 1.210937,5.421875 c 0.08056,0.360421 0.161913,0.641074 0.341797,0.925781 0.206691,0.346486 0.584754,0.596811 0.957031,0.677735 0.376747,0.0819 0.748214,0.04757 1.144531,-0.04102 0.352932,-0.07889 0.661114,-0.180449 0.941407,-0.353515 0.278837,-0.172168 0.548014,-0.454011 0.648437,-0.826172 0.05871,-0.212934 0.0931,-0.429463 0.06445,-0.677735 -0.01163,-0.187913 -0.04109,-0.359094 -0.0918,-0.585937 L 80.387346,44.3096 c -0.08132,-0.363798 -0.160115,-0.646842 -0.3125,-0.921875 l -0.0098,-0.01758 -0.01172,-0.01758 c -0.215071,-0.344737 -0.601649,-0.578913 -0.97461,-0.654297 -0.101113,-0.02044 -0.201799,-0.03187 -0.302734,-0.03711 -0.100731,-0.06152 -0.214094,-0.106232 -0.335938,-0.130859 -0.09759,-0.01972 -0.201594,-0.02953 -0.310547,-0.0293 z m -22.609375,4.333985 0.0059,0.06445 c -2.9e-4,-0.0051 -0.0036,-0.0086 -0.0039,-0.01367 -0.0019,-0.01568 2.82e-4,-0.0351 -0.002,-0.05078 z m 16.894532,1.113281 c 0.08253,0.0017 0.177273,0.02878 0.320312,0.111328 l 0.0059,0.0039 0.0078,0.0039 c 0.05278,0.02896 0.0851,0.05175 0.111328,0.115235 -0.03728,0.07828 -0.08622,0.149277 -0.15039,0.214844 -0.218694,0.22347 -0.432112,0.338731 -0.650391,0.371093 l -0.636719,0.09375 -0.113281,-0.755859 1.025391,-0.152344 c 0.02599,-0.0039 0.05257,-0.0064 0.08008,-0.0059 z m -32.730469,0.74414 0.07226,0.01953 c -0.01593,-0.0049 -0.03494,-0.0052 -0.05078,-0.0098 -0.0082,-0.0018 -0.01317,-0.008 -0.02148,-0.0098 z m 21.835937,0.275391 c 0.403733,0.01094 0.759419,0.15661 1.158204,0.496094 l 0.0039,0.002 0.002,0.002 c 0.410388,0.34326 0.628105,0.764398 0.681641,1.431641 -0.07201,0.508074 -0.27131,0.932551 -0.603516,1.289062 -0.481336,0.516554 -1.014507,0.777597 -1.636719,0.816406 -0.123,0.0077 -0.244111,0.0033 -0.363281,-0.0078 -0.160141,-0.07802 -0.321424,-0.183926 -0.490234,-0.324219 -0.420044,-0.366287 -0.635097,-0.802783 -0.677735,-1.486328 -0.04282,-0.686453 0.114888,-1.140862 0.486328,-1.546875 l 0.002,-0.002 0.0039,-0.0039 c 0.404434,-0.450154 0.782053,-0.632435 1.257812,-0.66211 0.05993,-0.0037 0.118105,-0.0055 0.175781,-0.0039 z" />
          <g
             id="g2348"
             style="font-weight:bold;font-size:14.3894px;font-family:'Fredoka One';-inkscape-font-specification:'Fredoka One Bold';letter-spacing:1.14px;word-spacing:0px;mix-blend-mode:normal;fill:#4e1b05;fill-opacity:1;stroke:#441a08;stroke-width:2.94591;stroke-linecap:round;stroke-linejoin:round;stroke-miterlimit:4;stroke-dasharray:none;stroke-opacity:1"
             transform="translate(22.005976,-3.3829265)" />
        </g>
        <g
           id="g73125"
           transform="matrix(1.0183619,0,0,1.0183619,-6.9973691,-38.636538)"
           style="stroke:none">
          <g
             id="g67507"
             transform="translate(-6.3810333,-87.631033)"
             style="stroke:none">
            <g
               id="g132065"
               style="stroke:none">
              <path
                 id="path66185"
                 style="font-weight:bold;font-size:16.1511px;line-height:0;font-family:'Fredoka One';-inkscape-font-specification:'Fredoka One Bold';letter-spacing:0.96px;word-spacing:0px;opacity:0.602446;fill:#241c1c;stroke:none;stroke-width:1.448;filter:url(#filter66282)"
                 d="m 76.143296,16.594518 c -0.237434,-0.0033 -0.473507,0.01494 -0.707032,0.05469 l -3.439453,0.583984 c -0.679344,0.115624 -1.068141,0.330687 -1.167969,0.642578 -0.05784,0.173675 -0.0864,0.326041 -0.08594,0.457031 0.001,0.0129 0.0045,0.03445 0.0059,0.04883 -0.241611,0.113591 -0.392788,0.257288 -0.449218,0.433594 -0.05784,0.173676 -0.08836,0.326041 -0.08789,0.457032 0.0093,0.118568 0.03657,0.29883 0.07813,0.542968 l 1.503906,8.837891 c 0.06323,0.371517 0.141928,0.640937 0.236328,0.810547 0.194223,0.371067 0.661264,0.493652 1.404297,0.367187 0.679344,-0.115624 1.070094,-0.328733 1.169922,-0.640625 0.05781,-0.173674 0.08151,-0.320884 0.07227,-0.439453 -5.7e-5,-0.01664 -0.0032,-0.04208 -0.0039,-0.06055 0.248514,-0.114391 0.403601,-0.260315 0.460938,-0.439453 0.05781,-0.173673 0.08347,-0.320884 0.07422,-0.439453 -4.47e-4,-0.130991 -0.0229,-0.318361 -0.06445,-0.5625 l -0.164063,-0.974609 1.333984,-0.226563 0.488282,-0.115234 c 1.014477,1.596739 1.591949,2.486307 1.732421,2.669922 0.08176,0.09531 0.196354,0.185063 0.341797,0.269531 0.154252,0.07205 0.331524,0.09097 0.533203,0.05664 0.212296,-0.03613 0.476637,-0.156863 0.791016,-0.363282 0.589343,-0.374155 0.857272,-0.756087 0.814453,-1.144531 0.406219,-0.322376 0.585945,-0.649584 0.529297,-0.982422 -0.02891,-0.169836 -0.156599,-0.432077 -0.380859,-0.787109 -0.676168,-1.02083 -1.178537,-1.791617 -1.507813,-2.314453 0.664223,-0.910374 0.893602,-1.966549 0.689453,-3.166016 -0.11743,-0.689959 -0.360686,-1.292984 -0.732421,-1.808594 -0.371734,-0.515609 -0.798701,-0.90141 -1.279297,-1.158203 -0.747487,-0.397045 -1.477152,-0.599541 -2.189453,-0.609375 z m -44.417969,0.957031 c -1.012126,-0.01671 -1.85807,0.255276 -2.535157,0.816407 -0.517508,0.428882 -0.879111,0.93123 -1.085937,1.503906 -0.414777,0.518484 -0.654982,1.117886 -0.71875,1.798828 -0.06425,0.686111 0.0145,1.288399 0.236328,1.806641 0.233555,0.508524 0.543392,0.894921 0.929688,1.158203 0.386296,0.26328 0.80608,0.501095 1.261718,0.716797 0.456643,0.20498 0.886758,0.365322 1.28711,0.478515 0.400351,0.113194 0.726566,0.268218 0.978515,0.464844 0.257368,0.182438 0.375219,0.393533 0.359375,0.632813 -0.263574,0.148101 -0.620995,0.202965 -1.078125,0.160156 -0.235851,-0.02209 -0.486326,-0.127543 -0.75,-0.314453 -0.26267,-0.197631 -0.46073,-0.393541 -0.59375,-0.589844 -0.485827,-0.586226 -0.879513,-0.893768 -1.179687,-0.921875 -0.300174,-0.02811 -0.594612,0.07445 -0.886719,0.30664 -0.503149,0.407092 -0.768822,0.748611 -0.794922,1.027344 -0.0042,0.04506 -0.0035,0.09271 0,0.140625 -0.330587,0.307826 -0.508272,0.574295 -0.529297,0.798828 -0.0251,0.268013 0.08543,0.587874 0.332032,0.957032 l 0.126953,0.189453 c 0.195012,0.342698 0.561596,0.71311 1.097656,1.109375 0.261666,0.208351 0.610615,0.397548 1.048828,0.568359 0.439217,0.16009 0.912152,0.26336 1.416016,0.310547 0.986285,0.09236 1.939759,-0.10493 2.861328,-0.591797 0.477367,-0.247287 0.879105,-0.619939 1.207031,-1.11914 0.133758,-0.20736 0.243828,-0.431655 0.333985,-0.669922 0.06797,-0.08604 0.134729,-0.174332 0.197265,-0.269532 0.328927,-0.509922 0.524584,-1.113714 0.589844,-1.810546 0.06526,-0.696832 -0.01935,-1.293212 -0.253906,-1.791016 -0.222835,-0.507521 -0.528661,-0.878256 -0.917969,-1.109375 -0.389308,-0.231119 -0.818688,-0.433599 -1.289063,-0.607422 -0.46937,-0.184545 -0.905285,-0.327215 -1.30664,-0.429687 -0.401356,-0.102473 -0.732475,-0.258446 -0.994141,-0.466797 -0.187616,-0.15502 -0.297882,-0.332289 -0.330078,-0.533203 0.221826,-0.09825 0.475249,-0.134067 0.759766,-0.107422 0.353776,0.03313 0.635577,0.128613 0.847656,0.289062 0.07002,0.06063 0.144923,0.138627 0.222656,0.232422 0.08845,0.0948 0.147581,0.153281 0.177734,0.177734 0.312256,0.245535 0.58151,0.379311 0.806641,0.400391 0.385938,0.03614 0.784525,-0.195375 1.199219,-0.697266 0.292429,-0.351122 0.44867,-0.635199 0.46875,-0.849609 5.97e-4,-0.0064 -3.11e-4,-0.01304 0,-0.01953 0.02078,-0.02387 0.04165,-0.04508 0.0625,-0.07031 0.292429,-0.351122 0.44867,-0.635199 0.46875,-0.849609 0.02008,-0.21441 -0.120608,-0.491968 -0.423828,-0.833985 l -0.375,-0.34375 c -0.187626,-0.190602 -0.541535,-0.390557 -1.0625,-0.601562 -0.509242,-0.220718 -1.085286,-0.361635 -1.728516,-0.421875 -0.151427,-0.01418 -0.29877,-0.023 -0.443359,-0.02539 z m 36.613281,0.199219 c -0.09162,0.0035 -0.199016,0.01151 -0.322266,0.02344 l -6.333984,0.611328 c -0.56802,0.05496 -0.943024,0.194638 -1.126953,0.417969 -0.13193,0.151645 -0.201964,0.389392 -0.212891,0.710937 -0.136666,0.06268 -0.244175,0.13844 -0.318359,0.228516 -0.18497,0.212614 -0.250152,0.592086 -0.197266,1.138671 l 0.865235,8.9375 c 0.03629,0.375108 0.09489,0.645291 0.175781,0.810547 0.16801,0.39482 0.626738,0.556961 1.376953,0.484375 l 6.365234,-0.615234 c 0.375108,-0.03629 0.652151,-0.0958 0.828125,-0.177734 0.298223,-0.129641 0.455594,-0.438691 0.478516,-0.919922 0.01632,-0.0066 0.03589,-0.0126 0.05078,-0.01953 0.384102,-0.166973 0.539383,-0.626737 0.466797,-1.376953 -0.06636,-0.68591 -0.250803,-1.088891 -0.554687,-1.210937 -0.169056,-0.07013 -0.31762,-0.105182 -0.447266,-0.103516 -0.119964,-0.01001 -0.304282,-0.0024 -0.550781,0.02149 l -4.951172,0.478515 -0.07227,-0.74414 2.535157,-0.244141 c 0.375107,-0.03629 0.652151,-0.0958 0.828124,-0.177734 0.307754,-0.130961 0.470377,-0.441081 0.494141,-0.925782 0.01101,-0.0046 0.02483,-0.0089 0.03516,-0.01367 0.39482,-0.168011 0.556961,-0.626738 0.484375,-1.376954 -0.06636,-0.68591 -0.252755,-1.090844 -0.55664,-1.21289 -0.169055,-0.07013 -0.31762,-0.103229 -0.447266,-0.101563 -0.119964,-0.01001 -0.304282,-0.0043 -0.550781,0.01953 l -3.181641,0.308594 -0.07227,-0.74414 4.320312,-0.417969 c 0.375108,-0.03629 0.650199,-0.0958 0.826172,-0.177735 0.298619,-0.129813 0.457883,-0.437582 0.480469,-0.919921 0.01565,-0.0064 0.03449,-0.01286 0.04883,-0.01953 0.384101,-0.166974 0.541335,-0.624785 0.46875,-1.375 -0.06636,-0.68591 -0.252755,-1.090844 -0.556641,-1.21289 -0.169054,-0.07013 -0.317619,-0.103229 -0.447265,-0.101563 -0.05998,-0.005 -0.1369,-0.0054 -0.228516,-0.002 z m -29.125,0.59375 c -0.232478,0.0021 -0.426653,0.0246 -0.582031,0.06641 -0.207171,0.05574 -0.35621,0.160705 -0.449219,0.31836 -0.09301,0.157655 -0.154567,0.301525 -0.181641,0.429687 -0.0081,0.05996 -0.01464,0.138107 -0.02148,0.234375 -0.14399,0.06095 -0.254898,0.151269 -0.328125,0.275391 -0.09301,0.157655 -0.152614,0.301525 -0.179688,0.429687 -0.01585,0.117868 -0.0299,0.306275 -0.04102,0.564453 l -0.208985,4.855469 c -0.06208,1.441496 0.318385,2.751872 1.140626,3.929688 0.395448,0.577455 0.918177,1.052819 1.570312,1.425781 0.662891,0.373424 1.403138,0.578068 2.220703,0.613281 0.828321,0.03567 1.589169,-0.09805 2.28125,-0.402343 0.692543,-0.31505 1.264824,-0.739436 1.71875,-1.269532 0.387798,-0.467534 0.700452,-0.95972 0.9375,-1.478515 0.670691,-0.986672 1.032426,-2.078194 1.083985,-3.275391 l 0.208985,-4.873051 c 0.01622,-0.37651 -0.0039,-0.658094 -0.06055,-0.84375 -0.03654,-0.152457 -0.101739,-0.268185 -0.195313,-0.347656 -0.09357,-0.07948 -0.229596,-0.149278 -0.410156,-0.210938 -0.18056,-0.06167 -0.426316,-0.09985 -0.738281,-0.113281 -0.301208,-0.01297 -0.556501,0.0087 -0.763672,0.06445 -0.207171,0.05574 -0.367434,0.166499 -0.482422,0.333985 -0.0926,0.134879 -0.151895,0.355953 -0.18164,0.654296 -0.143845,0.0627 -0.26078,0.155771 -0.34961,0.285157 -0.114988,0.167486 -0.181152,0.461319 -0.199219,0.880859 l -0.21289,4.9375 c -0.01793,0.416279 -0.09398,0.801203 -0.22461,1.158203 -0.40799,0.489158 -0.976216,0.721011 -1.708984,0.689453 -0.441054,-0.019 -0.819919,-0.125491 -1.134766,-0.322265 -0.314846,-0.196776 -0.54497,-0.449655 -0.693359,-0.757813 -0.29724,-0.605558 -0.432557,-1.236375 -0.404297,-1.892578 l 0.208985,-4.841797 c 0.01853,-0.430296 -0.03196,-0.770457 -0.150391,-1.023437 -0.06835,-0.164606 -0.202685,-0.284075 -0.404297,-0.357422 -0.201611,-0.07335 -0.474121,-0.117986 -0.818359,-0.132813 -0.08606,-0.0037 -0.168601,-0.0046 -0.246094,-0.0039 z m 15.640625,0.339844 -3.455078,0.06836 c -0.688982,0.01349 -1.104974,0.167324 -1.25,0.460938 -0.08296,0.163166 -0.135297,0.309847 -0.154297,0.439453 -0.0035,0.04951 -0.0046,0.115527 -0.0059,0.1875 -0.179129,0.07563 -0.304988,0.178663 -0.371094,0.3125 -0.08296,0.163166 -0.133344,0.307894 -0.152344,0.4375 -0.0085,0.118629 -0.01073,0.303178 -0.0059,0.550781 l 0.175781,8.960938 c 0.0074,0.376786 0.04511,0.656144 0.113281,0.83789 0.136981,0.395793 0.582364,0.587019 1.335938,0.572266 0.688982,-0.01349 1.104974,-0.167324 1.25,-0.460938 0.08296,-0.163166 0.130225,-0.303245 0.138672,-0.421875 0.008,-0.05425 0.01185,-0.126248 0.01563,-0.201171 0.182659,-0.07583 0.310051,-0.18096 0.376953,-0.316407 0.08296,-0.163166 0.128272,-0.303245 0.136718,-0.421875 0.01902,-0.129605 0.02635,-0.318803 0.02148,-0.566406 l -0.01758,-0.894531 1.470703,-0.0293 c 0.958115,-0.01875 1.875822,-0.38142 2.755859,-1.087891 0.434848,-0.342364 0.7877,-0.798004 1.056641,-1.363281 0.03174,-0.06805 0.06009,-0.137257 0.08789,-0.207031 0.165905,-0.218812 0.313203,-0.461003 0.441407,-0.730469 0.268708,-0.576041 0.396486,-1.214315 0.382812,-1.914062 -0.0137,-0.699747 -0.165965,-1.333353 -0.457031,-1.898438 -0.291067,-0.565085 -0.659511,-1.008898 -1.107422,-1.333984 -0.907009,-0.671497 -1.835854,-0.999016 -2.783203,-0.980469 z m 20.748047,1.708984 c 0.250603,0.0045 0.507496,0.07885 0.769531,0.222657 0.347576,0.181132 0.561136,0.503653 0.640625,0.970703 0.02403,0.141177 0.02921,0.27381 0.02148,0.398437 -0.202265,0.160705 -0.413565,0.262805 -0.636718,0.300781 l -2.039063,0.345703 -0.339843,-1.992187 1.335937,-0.228516 c 0.08226,-0.014 0.164512,-0.01906 0.248047,-0.01758 z M 54.363999,22.48319 c 0.333725,-0.0065 0.659521,0.11007 0.976562,0.351563 0.316809,0.230726 0.480941,0.582965 0.490235,1.05664 0.0014,0.06993 -0.0023,0.136274 -0.0078,0.201172 -0.279096,0.198679 -0.563813,0.302874 -0.855469,0.308594 l -2.035156,0.03906 -0.03906,-1.927734 z"
                 transform="matrix(1,0,0,0.85781217,0,4.4808049)" />
              <g
                 id="g65445"
                 transform="translate(3.3587572,-21.38998)"
                 style="opacity:0.498471;mix-blend-mode:normal;fill:#150808;fill-opacity:1;stroke:none;filter:url(#filter65709)">
                <path
                   id="path65285"
                   style="color:#000000;font-weight:bold;font-size:14.3894px;font-family:'Fredoka One';-inkscape-font-specification:'Fredoka One Bold';letter-spacing:1.14px;word-spacing:0px;fill:#241c1c;fill-opacity:1;stroke:none;stroke-width:1.555;-inkscape-stroke:none;filter:url(#filter65587)"
                   d="m 80.363722,49.835148 c -0.138208,0.0098 -0.277399,0.04063 -0.416016,0.0918 -0.26482,0.09776 -0.494516,0.270866 -0.677734,0.501953 l -0.002,0.002 c -0.17524,0.230316 -0.280262,0.496833 -0.306641,0.78125 l -0.859375,8.886719 c 0,0 0,0.002 0,0.002 v 0.002 c -0.02749,0.250294 -0.03588,0.453395 -0.01563,0.628906 l -0.002,0.01563 c -2.37e-4,0.0021 2.36e-4,0.0037 0,0.0059 v 0.0039 c -0.0451,0.408767 -0.07662,0.724477 0.06836,1.117187 0.132099,0.35784 0.42211,0.643715 0.734374,0.806641 0.309888,0.161687 0.644625,0.235269 1.013672,0.271484 0.419078,0.04622 0.764479,0.06507 1.152344,-0.07813 0.289394,-0.106831 0.58087,-0.292888 0.771484,-0.58789 l 0.002,-0.0039 0.002,-0.0039 c 0.116334,-0.18496 0.214537,-0.377283 0.255859,-0.630859 0.03345,-0.152148 0.05708,-0.307463 0.08008,-0.515625 v -0.0059 l 0.117188,-1.236329 2.824218,-1.041015 0.892579,0.863281 0.376953,0.353516 0.02344,0.01953 c 0.185275,0.14883 0.39277,0.241831 0.603516,0.304687 l 0.01367,0.0039 0.01367,0.0039 c 0.318564,0.08199 0.653299,0.04509 0.939453,-0.06055 0.386645,-0.142732 0.652136,-0.386853 0.943359,-0.697266 0.256834,-0.273758 0.461116,-0.551791 0.589844,-0.878906 0.128728,-0.327116 0.163349,-0.73005 0.03125,-1.087891 -0.146027,-0.395571 -0.378517,-0.615995 -0.681641,-0.90039 l -6.421875,-6.185547 -0.0039,-0.002 c -0.281877,-0.26445 -0.637132,-0.447721 -1.011719,-0.53125 -0.08528,-0.01902 -0.171287,-0.03245 -0.257812,-0.04102 -0.249431,-0.13565 -0.518568,-0.197216 -0.792969,-0.177734 z m -62.3125,0.55664 c -0.233638,0.01169 -0.445668,0.08138 -0.597656,0.230469 l -0.002,0.002 -0.0039,0.0039 c -0.124503,0.130548 -0.219514,0.260101 -0.283203,0.396484 l -0.0039,0.0059 -0.0039,0.0078 c -0.04262,0.112373 -0.09028,0.272564 -0.150391,0.488281 l -2.144531,7.69336 c -0.06264,0.224825 -0.104896,0.395689 -0.128906,0.521484 l -0.002,0.0078 v 0.0098 c -0.01405,0.131288 -0.0019,0.268976 0.0293,0.414062 -0.01393,0.05918 -0.029,0.119163 -0.03906,0.171876 l -0.0059,0.03125 -0.002,0.03125 c -0.02487,0.23241 0.0031,0.452084 0.05664,0.666015 0.08732,0.360268 0.330876,0.647666 0.595703,0.833985 0.265531,0.186813 0.561339,0.304509 0.898438,0.398437 0.344587,0.09601 0.663488,0.15098 0.990234,0.130859 0.32594,-0.02007 0.688881,-0.135832 0.955078,-0.404296 0.158335,-0.157174 0.297901,-0.335949 0.390625,-0.574219 0.07426,-0.166824 0.130853,-0.33737 0.191406,-0.554688 l 0.664063,-2.382812 c 0.143792,0.375159 0.327971,0.865216 0.40625,1.048828 l 0.0625,0.167969 0.0059,0.01563 c 0.105186,0.246726 0.251244,0.429986 0.425781,0.617187 l 0.01758,0.01758 0.01758,0.01758 c 0.239798,0.226199 0.538688,0.392202 0.855469,0.480469 0.331922,0.09244 0.691773,0.100448 1.027343,0.01367 l 0.0059,-0.002 0.0059,-0.002 c 0.243278,-0.06698 0.380909,-0.07429 0.652344,-0.261719 l 0.02344,-0.01758 0.02148,-0.01758 c 0.04787,-0.03862 0.161071,-0.126468 0.322265,-0.248047 0.08124,-0.06127 0.310204,-0.24514 0.511719,-0.40625 L 23.359782,61.5871 c -0.09303,0.333867 -0.143662,0.592459 -0.140625,0.804687 v 0.0078 l 0.002,0.0098 c 0.0058,0.06014 0.01777,0.117389 0.0332,0.173828 -0.03529,0.177598 -0.05722,0.346372 -0.05469,0.523437 v 0.03125 l 0.002,0.03125 c 0.02317,0.242052 0.105069,0.501527 0.267578,0.720703 0.153009,0.206364 0.331304,0.340585 0.527344,0.462891 0.24576,0.153326 0.509281,0.249273 0.820312,0.335938 0.319653,0.08908 0.619246,0.141276 0.923828,0.130859 0.404861,-0.01382 0.807946,-0.232062 1.058594,-0.523438 0.250648,-0.291376 0.395918,-0.633927 0.503906,-1.021484 l 0.935547,-3.359375 -0.310547,2.556641 c -0.03335,0.274477 -0.0423,0.492519 -0.01953,0.677734 -0.04096,0.347854 -0.05555,0.631297 0.01563,0.947266 0.07857,0.396278 0.351515,0.759969 0.675781,0.960937 0.327712,0.203102 0.688663,0.294784 1.091797,0.34375 l 5.658203,0.6875 c 0.372314,0.04521 0.672876,0.06247 1,-0.0078 0.397956,-0.08022 0.756545,-0.363049 0.953125,-0.6875 0.197758,-0.326394 0.287195,-0.684641 0.335938,-1.085938 0.0436,-0.359003 0.0499,-0.681888 -0.01953,-1.003906 -0.06915,-0.320692 -0.244646,-0.669685 -0.5625,-0.888672 -0.185447,-0.129264 -0.389176,-0.234831 -0.630859,-0.289062 -0.12839,-0.03664 -0.260461,-0.06027 -0.404297,-0.08203 -0.08296,-0.04149 -0.164656,-0.07331 -0.25,-0.0918 -0.09852,-0.02976 -0.226972,-0.0541 -0.376953,-0.07617 0.337761,-0.109753 0.636558,-0.354784 0.8125,-0.638672 0.203103,-0.327711 0.292831,-0.688662 0.341797,-1.091797 0.0436,-0.359003 0.05186,-0.681889 -0.01758,-1.003907 -0.06915,-0.320694 -0.246596,-0.669684 -0.564453,-0.888671 -0.130327,-0.09084 -0.288755,-0.144684 -0.44336,-0.203125 l 0.789063,0.0957 c 0.372323,0.04521 0.674819,0.06247 1.001953,-0.0078 0.371672,-0.07492 0.707073,-0.326039 0.910156,-0.623047 l -0.179687,6.828125 c -0.0063,0.240916 -0.007,0.423993 0.002,0.582032 l 0.002,0.0332 0.0039,0.03125 c 0.03219,0.23051 0.111578,0.435109 0.214844,0.628906 0,0 0.002,0.002 0.002,0.002 0.172215,0.328257 0.479106,0.549605 0.78125,0.666016 0.302955,0.116724 0.618931,0.158732 0.96875,0.167968 0.357588,0.0094 0.678161,-0.0144 0.990234,-0.113281 0.310435,-0.09836 0.634913,-0.299566 0.828125,-0.623047 0.115819,-0.191425 0.208234,-0.401735 0.240235,-0.65625 0.03117,-0.179032 0.04684,-0.357703 0.05273,-0.582031 l 0.06445,-2.474609 c 0.231126,0.329754 0.527725,0.760584 0.648438,0.919922 l 0.101562,0.148437 0.0098,0.01367 c 0.161978,0.213807 0.347708,0.354961 0.5625,0.494141 l 0.02148,0.01367 0.02148,0.01367 c 0.28752,0.161112 0.616647,0.249089 0.945312,0.257813 0.344468,0.0091 0.697478,-0.07062 1.001953,-0.236328 l 0.0039,-0.0039 0.0059,-0.002 c 0.219725,-0.124064 0.350577,-0.166312 0.568359,-0.414062 l 0.01953,-0.02148 0.01758,-0.02344 c 0.03706,-0.04909 0.125116,-0.161269 0.251953,-0.318359 0.08878,-0.109951 0.35073,-0.454377 0.552734,-0.71875 l -0.06641,2.447265 c -0.0098,0.372643 -0.0026,0.666827 0.07813,0.970703 l 0.0098,0.0293 0.0098,0.03125 c 0.08127,0.229176 0.222715,0.459673 0.433594,0.632813 0.198552,0.163021 0.40317,0.251237 0.623047,0.322265 0.275626,0.08903 0.556148,0.118427 0.878906,0.126954 0.331702,0.0088 0.634827,-0.01359 0.927734,-0.09766 0.389379,-0.111748 0.728022,-0.422096 0.900391,-0.765625 0.172369,-0.34353 0.229614,-0.7111 0.240234,-1.113281 l 0.199219,-7.634766 0.451172,0.205079 c -0.05576,0.133169 -0.108387,0.269328 -0.15625,0.410156 h 0.002 c -0.228433,0.661528 -0.334468,1.360739 -0.316406,2.091797 -0.02623,0.32505 -0.02868,0.655669 -0.0078,0.990234 0.102028,1.63568 0.795298,3.082619 2.007813,4.193359 h 0.002 v 0.002 c 1.226412,1.112931 2.746185,1.65128 4.388672,1.548828 1.644188,-0.102559 3.079088,-0.834919 4.128906,-2.105469 h 0.002 v -0.002 c 1.044333,-1.275487 1.530761,-2.828717 1.425782,-4.511719 -0.106019,-1.699639 -0.817291,-3.176309 -2.070313,-4.261719 -0.676887,-0.586342 -1.44532,-0.946351 -2.253906,-1.18164 -0.06246,-0.02885 -0.126195,-0.05576 -0.189453,-0.08203 l 0.205078,-0.08008 -0.01563,0.0039 c 0.336916,-0.123118 0.656646,-0.28201 0.890625,-0.628906 l 0.01563,-0.02344 0.01367,-0.02149 c 0.158767,-0.273682 0.181617,-0.552555 0.166015,-0.802734 -0.01754,-0.281165 -0.09561,-0.543837 -0.205078,-0.816406 -0.1239,-0.328689 -0.263562,-0.613567 -0.492187,-0.861328 -0.231249,-0.250605 -0.621566,-0.462319 -1.019532,-0.4375 -0.0119,7.42e-4 -0.01665,0.0012 -0.02734,0.002 -0.137384,-0.107073 -0.299454,-0.170715 -0.46875,-0.160157 -0.08538,0.0053 -0.110499,0.02045 -0.185547,0.04297 -0.07505,0.02252 -0.173112,0.05591 -0.296875,0.09766 h -0.0039 l -2.328126,0.882812 c -0.276608,0.101422 -0.490865,0.226846 -0.621093,0.419922 l -0.0039,0.0059 -0.0039,0.0078 c -0.08525,0.146938 -0.10557,0.316381 -0.09375,0.505859 0.0042,0.06793 0.01453,0.138931 0.0293,0.210938 -0.05126,0.184107 -0.05929,0.363519 -0.04883,0.53125 0.01771,0.283854 0.09587,0.546867 0.207031,0.822265 0,0 0,0.002 0,0.002 0.04676,0.118655 0.105409,0.227073 0.167969,0.328125 -0.08869,0.039 -0.176248,0.0807 -0.263672,0.125 -0.629713,0.319115 -1.182453,0.740242 -1.650391,1.259766 -0.327097,0.363158 -0.600848,0.781233 -0.822265,1.25 l -0.760258,-1.56656 c 0,0 -0.002,-0.002 -0.002,-0.002 -8.95e-4,-0.0018 -0.0011,-0.0041 -0.002,-0.0059 l -0.002,0.002 c -0.0849,-0.17151 -0.257875,-0.227132 -0.396484,-0.339843 l 0.02344,-0.02344 -0.105469,-0.04883 c -0.115608,-0.08054 -0.194751,-0.225742 -0.316406,-0.271484 -0.139232,-0.05235 -0.300199,-0.0485 -0.447266,-0.07422 l -1.128906,-0.513672 0.134766,0.267578 c -0.0317,-0.0015 -0.06093,-0.003 -0.09375,-0.0039 -0.636632,-0.01681 -1.115289,0.09896 -1.355469,0.458984 -0.488352,0.584852 -1.500046,1.837525 -2.8125,3.478516 L 42.059035,55.069523 41.937941,54.94257 c -0.233299,-0.265387 -0.442834,-0.316234 -0.671875,-0.390625 -0.182232,-0.0699 -0.371242,-0.113104 -0.566407,-0.138672 -0.04547,-0.01772 -0.09262,-0.0336 -0.144531,-0.05078 -0.211765,-0.08358 -0.45599,-0.127464 -0.732422,-0.134766 -0.317713,-0.0084 -0.584793,0.01589 -0.808593,0.08398 -0.223802,0.06809 -0.412214,0.187598 -0.523438,0.369141 l -0.002,0.0039 -0.002,0.002 c -0.03575,0.06297 -0.06714,0.124414 -0.09375,0.185547 -0.09209,-0.153258 -0.214456,-0.294027 -0.373047,-0.402343 -0.186728,-0.129909 -0.390767,-0.235569 -0.634766,-0.289063 -0.128459,-0.03629 -0.259866,-0.06046 -0.404297,-0.08203 -0.08233,-0.04083 -0.163963,-0.0718 -0.248046,-0.08984 -0.127499,-0.03821 -0.286973,-0.06717 -0.50586,-0.09375 l -5.628906,-0.683594 c -0.530052,-0.06438 -0.938549,-0.02895 -1.224609,0.19336 -0.07972,0.05962 -0.147413,0.132282 -0.205079,0.216796 -0.07291,-0.07337 -0.150817,-0.138281 -0.230468,-0.193359 -0.270949,-0.187358 -0.573504,-0.305275 -0.921875,-0.402344 -0.142457,-0.03969 -0.285195,-0.07073 -0.427735,-0.0957 -0.07953,-0.0279 -0.160813,-0.05523 -0.25,-0.08008 -0.613484,-0.170942 -1.105347,-0.175669 -1.425781,0.115234 l 0.01758,-0.01562 c -0.589667,0.429404 -1.831237,1.368925 -3.414062,2.574218 l -1.507813,-3.787109 -0.08594,-0.152344 c -0.162019,-0.313417 -0.354532,-0.413212 -0.558594,-0.541015 -0.248822,-0.17451 -0.525184,-0.295905 -0.830078,-0.38086 -0.151625,-0.04225 -0.297456,-0.07577 -0.441406,-0.09961 -0.07543,-0.02869 -0.152835,-0.05486 -0.236329,-0.07813 -0.306162,-0.08531 -0.571049,-0.124974 -0.804687,-0.113282 z m 55.708984,1.371094 c -0.181587,3.84e-4 -0.378686,0.02767 -0.595703,0.07617 -0.315192,0.07045 -0.570321,0.160948 -0.771484,0.285156 -0.200311,0.123682 -0.352233,0.291715 -0.408203,0.5 -0.04814,0.173869 -0.07271,0.332108 -0.06445,0.482422 l 0.002,0.0098 v 0.0078 c 0.0067,0.05137 0.0166,0.114792 0.0293,0.183594 -0.03983,0.173488 -0.06107,0.349712 -0.05078,0.53711 l 0.002,0.0293 0.0039,0.02734 c 0.01996,0.153501 0.05488,0.324466 0.105468,0.550781 l 0.449219,2.013672 C 72.327346,55.96706 72.118206,55.50379 71.832472,55.089054 71.455745,54.542239 70.994617,54.099129 70.455519,53.796085 v -0.002 h -0.002 C 69.917697,53.494629 69.365625,53.291914 68.810988,53.188664 68.182668,52.970806 67.558351,52.900277 66.9438,52.991398 l -3.074219,0.455078 c -0.319477,0.04737 -0.581361,0.11925 -0.791015,0.228516 -0.208305,0.108563 -0.372154,0.265738 -0.44336,0.46875 0,0 0,0.002 0,0.002 0,0 -0.002,0.002 -0.002,0.002 -0.0597,0.168239 -0.09501,0.325373 -0.09766,0.474609 v 0.0078 0.0098 c 0.0044,0.07775 0.01561,0.182416 0.03125,0.300782 -0.02914,0.121976 -0.04844,0.246506 -0.05078,0.378906 l -0.002,0.0293 0.002,0.0293 c 0.0087,0.154573 0.03044,0.325288 0.06445,0.554687 l 1.171875,7.900391 c 0.05508,0.371499 0.118543,0.667605 0.273437,0.964843 0.182954,0.361931 0.549506,0.632813 0.914063,0.736329 0.367116,0.104243 0.736844,0.09445 1.136719,0.03516 0.35773,-0.05304 0.670766,-0.132908 0.96289,-0.285156 0.292125,-0.152248 0.584801,-0.412421 0.710938,-0.779297 0.07331,-0.20682 0.12177,-0.419872 0.111328,-0.667969 4.39e-4,-0.184643 -0.01537,-0.36617 -0.04883,-0.591797 l -0.125,-0.83789 0.96875,-0.144532 c 0.278491,0.458034 0.5647,0.929494 0.746094,1.222656 0.251007,0.405671 0.382791,0.619823 0.498046,0.777344 l 0.01172,0.01758 0.01367,0.01563 c 0.143575,0.174805 0.311788,0.306784 0.494141,0.417969 l 0.03125,0.01758 0.0293,0.01563 c 0.294997,0.145551 0.631862,0.177553 0.933594,0.132813 0.367158,-0.05444 0.671744,-0.210312 1.003906,-0.417969 0.331469,-0.201141 0.611067,-0.421643 0.824219,-0.71875 0.214227,-0.298603 0.3429,-0.708222 0.285157,-1.097656 -0.05815,-0.392169 -0.211698,-0.640554 -0.425782,-0.996094 l -0.0059,-0.0059 -0.0039,-0.0078 c -0.487765,-0.771745 -0.807853,-1.291972 -1.082032,-1.742187 0.479937,-0.857002 0.72337,-1.821242 0.570313,-2.853516 -0.01002,-0.0676 -0.02262,-0.134616 -0.03516,-0.201172 l 1.210937,5.421875 c 0.08056,0.360421 0.161913,0.641074 0.341797,0.925781 0.206691,0.346486 0.584754,0.596811 0.957031,0.677735 0.376747,0.0819 0.748214,0.04757 1.144531,-0.04102 0.352932,-0.07889 0.661114,-0.180449 0.941407,-0.353515 0.278837,-0.172168 0.548014,-0.454011 0.648437,-0.826172 0.05871,-0.212934 0.0931,-0.429463 0.06445,-0.677735 -0.01163,-0.187913 -0.04109,-0.359094 -0.0918,-0.585937 l -1.74414,-7.808594 c -0.08132,-0.363798 -0.160115,-0.646842 -0.3125,-0.921875 l -0.0098,-0.01758 -0.01172,-0.01758 c -0.215071,-0.344737 -0.601649,-0.578913 -0.97461,-0.654297 -0.101113,-0.02044 -0.201799,-0.03187 -0.302734,-0.03711 -0.100731,-0.06152 -0.214094,-0.106232 -0.335938,-0.130859 -0.09759,-0.01972 -0.201594,-0.02953 -0.310547,-0.0293 z m -22.609375,4.333985 0.0059,0.06445 c -2.9e-4,-0.0051 -0.0036,-0.0086 -0.0039,-0.01367 -0.0019,-0.01568 2.82e-4,-0.0351 -0.002,-0.05078 z m 16.894532,1.113281 c 0.08253,0.0017 0.177273,0.02878 0.320312,0.111328 l 0.0059,0.0039 0.0078,0.0039 c 0.05278,0.02896 0.0851,0.05175 0.111328,0.115235 -0.03728,0.07828 -0.08622,0.149277 -0.15039,0.214844 -0.218694,0.22347 -0.432112,0.338731 -0.650391,0.371093 l -0.636719,0.09375 -0.113281,-0.755859 1.025391,-0.152344 c 0.02599,-0.0039 0.05257,-0.0064 0.08008,-0.0059 z m -32.730469,0.74414 0.07226,0.01953 c -0.01593,-0.0049 -0.03494,-0.0052 -0.05078,-0.0098 -0.0082,-0.0018 -0.01317,-0.008 -0.02148,-0.0098 z m 21.835937,0.275391 c 0.403733,0.01094 0.759419,0.15661 1.158204,0.496094 l 0.0039,0.002 0.002,0.002 c 0.410388,0.343259 0.628105,0.764398 0.681641,1.431641 -0.07201,0.508073 -0.27131,0.932551 -0.603516,1.289062 -0.481336,0.516553 -1.014507,0.777597 -1.636719,0.816406 -0.123,0.0077 -0.244111,0.0033 -0.363281,-0.0078 -0.160141,-0.07802 -0.321424,-0.183926 -0.490234,-0.324219 -0.420044,-0.366287 -0.635097,-0.802783 -0.677735,-1.486328 -0.04282,-0.686453 0.114888,-1.140862 0.486328,-1.546875 l 0.002,-0.002 0.0039,-0.0039 c 0.404434,-0.450154 0.782053,-0.632435 1.257812,-0.66211 0.05993,-0.0037 0.118105,-0.0055 0.175781,-0.0039 z" />
                <g
                   aria-label="MEMRIA"
                   transform="translate(17.636552,5.879056)"
                   id="text65255"
                   style="font-weight:bold;font-size:14.3894px;font-family:'Fredoka One';-inkscape-font-specification:'Fredoka One Bold';letter-spacing:1.14px;word-spacing:0px;fill:#150808;fill-opacity:1;stroke:none;stroke-width:0.455">
                  <g
                     id="path65325"
                     style="fill:#150808;fill-opacity:1;stroke:none" />
                </g>
              </g>
              <g
                 id="g65227"
                 transform="translate(1.6124369,1.5177669)"
                 style="stroke:none">
                <text
                   xml:space="preserve"
                   style="font-style:normal;font-variant:normal;font-weight:bold;font-stretch:normal;font-size:16.1511px;line-height:0;font-family:'Fredoka One';-inkscape-font-specification:'Fredoka One Bold';letter-spacing:0.96px;word-spacing:0px;fill:#241c1c;fill-opacity:1;stroke:none;stroke-width:1.448;stroke-miterlimit:4;stroke-dasharray:none;stroke-opacity:1"
                   id="text60966"
                   transform="rotate(-1.6322572,-269.74101,-842.93397)"><textPath
                     xlink:href="#path16332"
                     id="textPath60964"
                     style="fill:#241c1c;fill-opacity:1;stroke:none;stroke-width:1.448;stroke-miterlimit:4;stroke-dasharray:none;stroke-opacity:1"><tspan
                       id="tspan60962"
                       style="fill:#241c1c;fill-opacity:1;stroke:none;stroke-width:1.448;stroke-miterlimit:4;stroke-dasharray:none;stroke-opacity:1">SUPER</tspan></textPath></text>
                <text
                   xml:space="preserve"
                   style="font-style:normal;font-variant:normal;font-weight:bold;font-stretch:normal;font-size:16.1511px;line-height:0;font-family:'Fredoka One';-inkscape-font-specification:'Fredoka One Bold';letter-spacing:0.96px;word-spacing:0px;fill:url(#linearGradient141938);fill-opacity:1;stroke:none;stroke-width:0.448;stroke-miterlimit:4;stroke-dasharray:none;stroke-opacity:1"
                   id="text12016"
                   transform="rotate(-1.6322572,-302.44649,-862.01812)"><textPath
                     xlink:href="#path16332"
                     id="textPath16414"
                     style="fill:url(#linearGradient141938);fill-opacity:1;stroke:none;stroke-width:0.448;stroke-miterlimit:4;stroke-dasharray:none"><tspan
                       id="tspan12014"
                       style="fill:url(#linearGradient141938);fill-opacity:1;stroke:none;stroke-width:0.448;stroke-miterlimit:4;stroke-dasharray:none;stroke-opacity:1">SUPER</tspan></textPath></text>
                <text
                   xml:space="preserve"
                   style="font-style:normal;font-variant:normal;font-weight:bold;font-stretch:normal;font-size:16.1511px;line-height:0;font-family:'Fredoka One';-inkscape-font-specification:'Fredoka One Bold';letter-spacing:0.96px;word-spacing:0px;fill:url(#linearGradient30038);fill-opacity:1;stroke:none;stroke-width:0.448;stroke-miterlimit:4;stroke-dasharray:none;stroke-opacity:1"
                   id="text122181"
                   transform="rotate(-1.6322572,-302.44649,-862.01812)"><textPath
                     xlink:href="#path16332"
                     id="textPath122179"
                     style="fill:url(#linearGradient30038);fill-opacity:1;stroke:none;stroke-width:0.448;stroke-miterlimit:4;stroke-dasharray:none"><tspan
                       id="tspan122177"
                       style="fill:url(#linearGradient30038);fill-opacity:1;stroke:none;stroke-width:0.448;stroke-miterlimit:4;stroke-dasharray:none;stroke-opacity:1">SUPER</tspan></textPath></text>
                <text
                   xml:space="preserve"
                   style="font-style:normal;font-variant:normal;font-weight:bold;font-stretch:normal;font-size:16.1511px;line-height:0;font-family:'Fredoka One';-inkscape-font-specification:'Fredoka One Bold';letter-spacing:0.96px;word-spacing:0px;fill:url(#linearGradient123267);fill-opacity:1;stroke:none;stroke-width:0.448;stroke-miterlimit:4;stroke-dasharray:none;stroke-opacity:1"
                   id="text123265"
                   transform="matrix(0.99428725,-0.02647457,0.02833318,0.92906379,24.652632,-7.3723453)"><textPath
                     xlink:href="#path16332"
                     id="textPath123263"
                     style="fill:url(#linearGradient123267);fill-opacity:1;stroke:none;stroke-width:0.448;stroke-miterlimit:4;stroke-dasharray:none"><tspan
                       id="tspan123261"
                       style="fill:url(#linearGradient123267);fill-opacity:1;stroke:none;stroke-width:0.448;stroke-miterlimit:4;stroke-dasharray:none;stroke-opacity:1">SUPER</tspan></textPath></text>
              </g>
              <g
                 id="g65232"
                 style="fill:#360000;fill-opacity:1;stroke:none;stroke-opacity:1">
                <text
                   xml:space="preserve"
                   style="font-style:normal;font-variant:normal;font-weight:bold;font-stretch:normal;font-size:14.3894px;line-height:0;font-family:'Fredoka One';-inkscape-font-specification:'Fredoka One Bold';letter-spacing:1.14px;word-spacing:0px;fill:#241c1c;fill-opacity:1;stroke:none;stroke-width:1.555;stroke-miterlimit:4;stroke-dasharray:none;stroke-opacity:1"
                   id="text60922"
                   transform="translate(17.541882,-9.4138372)"><textPath
                     xlink:href="#path17827"
                     id="textPath60920"
                     style="fill:#241c1c;fill-opacity:1;stroke:none;stroke-width:1.555;stroke-miterlimit:4;stroke-dasharray:none;stroke-opacity:1"><tspan
                       id="tspan60918"
                       style="fill:#241c1c;fill-opacity:1;stroke:none;stroke-width:1.555;stroke-miterlimit:4;stroke-dasharray:none;stroke-opacity:1">MEMRIA</tspan></textPath></text>
              </g>
              <text
                 xml:space="preserve"
                 style="font-style:normal;font-variant:normal;font-weight:bold;font-stretch:normal;font-size:14.3894px;line-height:0;font-family:'Fredoka One';-inkscape-font-specification:'Fredoka One Bold';letter-spacing:1.14px;word-spacing:0px;fill:url(#linearGradient56725);fill-opacity:1;stroke:none;stroke-width:0.455;stroke-miterlimit:4;stroke-dasharray:none;stroke-opacity:1"
                 id="text13830"
                 transform="translate(17.011552,-10.120944)"><textPath
                   xlink:href="#path17827"
                   id="textPath18726"
                   style="fill:url(#linearGradient56725);fill-opacity:1;stroke:none;stroke-width:0.455;stroke-miterlimit:4;stroke-dasharray:none"><tspan
                     id="tspan13828"
                     style="fill:url(#linearGradient56725);fill-opacity:1;stroke:none;stroke-width:0.455;stroke-miterlimit:4;stroke-dasharray:none;stroke-opacity:1">MEMRIA</tspan></textPath></text>
              <path
                 d="m 31.168357,31.802419 q 0.05296,0.238819 0.02047,0.409017 -0.01862,0.174061 -0.107457,0.492873 l -2.143577,7.693058 q -0.266498,0.956434 -0.839578,0.976003 -0.28654,0.0098 -0.688519,-0.102222 -0.40198,-0.112007 -0.618312,-0.246973 -0.216331,-0.134966 -0.314048,-0.266756 -0.09772,-0.13179 -0.116813,-0.331299 -0.0036,-0.254955 0.131533,-0.740103 l 1.293871,-4.643558 q -0.466266,0.333145 -1.394248,1.090328 -0.924119,0.743321 -1.169976,0.928754 -0.245857,0.185434 -0.3422,0.263152 -0.09248,0.06386 -0.416056,0.152947 -0.305851,0.07909 -0.624662,-0.0097 -0.30495,-0.08497 -0.529693,-0.296968 -0.20702,-0.222038 -0.279288,-0.39155 l -0.0684,-0.183374 q -0.18067,-0.42378 -0.685644,-1.774426 -0.501112,-1.364508 -0.547245,-1.466988 l -1.301595,4.671281 q -0.08883,0.318811 -0.162904,0.477423 -0.05635,0.148613 -0.221309,0.311773 -0.312203,0.316323 -1.185469,0.073 -0.845543,-0.235601 -0.949182,-0.667792 -0.05682,-0.224957 -0.03819,-0.399018 0.03249,-0.170199 0.125182,-0.502872 l 2.143576,-7.69306 q 0.08883,-0.318811 0.14518,-0.467424 0.07407,-0.158612 0.242896,-0.335634 0.30834,-0.302461 1.181606,-0.05914 0.374257,0.104282 0.610587,0.274695 0.254053,0.160415 0.310185,0.280618 l 0.05999,0.106342 1.995565,5.007429 q 3.22545,-2.462216 4.293634,-3.240083 0.339925,-0.308598 1.213191,-0.06527 0.887127,0.247187 0.976904,0.675517 z"
                 id="path125697"
                 style="font-weight:bold;font-size:14.3894px;line-height:0;font-family:'Fredoka One';-inkscape-font-specification:'Fredoka One Bold';letter-spacing:1.14px;word-spacing:0px;fill:url(#linearGradient125730);stroke:none;stroke-width:0.455" />
              <path
                 d="m 33.748784,39.586857 4.399601,0.534382 q 0.328541,0.03991 0.4822,0.08756 0.169678,0.0351 0.370064,0.175405 0.361389,0.246827 0.250349,1.161029 -0.121451,0.99991 -0.670794,1.107127 -0.253245,0.05621 -0.7532,-0.0045 l -5.656629,-0.687062 q -0.999909,-0.121451 -1.105392,-0.685079 -0.05795,-0.23896 0.0028,-0.738915 l 0.964664,-7.942136 q 0.08849,-0.728505 0.391119,-0.95266 0.304369,-0.238438 1.061443,-0.146483 l 5.628061,0.683593 q 0.328541,0.0399 0.4822,0.08756 0.169678,0.0351 0.370064,0.175405 0.361389,0.246827 0.250349,1.161029 -0.121451,0.99991 -0.670794,1.107127 -0.253245,0.05621 -0.7532,-0.0045 l -4.385316,-0.532648 -0.175236,1.442727 2.828315,0.343531 q 0.328541,0.0399 0.4822,0.08756 0.169678,0.0351 0.370064,0.175405 0.361389,0.246827 0.250349,1.16103 -0.121451,0.999909 -0.685079,1.105392 -0.253245,0.05621 -0.753199,-0.0045 l -2.799746,-0.340062 z"
                 id="path125699"
                 style="font-weight:bold;font-size:14.3894px;line-height:0;font-family:'Fredoka One';-inkscape-font-specification:'Fredoka One Bold';letter-spacing:1.14px;word-spacing:0px;fill:url(#linearGradient125732);stroke:none;stroke-width:0.455" />
              <path
                 d="m 52.645488,33.143842 q 0.109377,0.218804 0.119203,0.391797 0.02421,0.173372 0.01548,0.504213 l -0.210812,7.983334 q -0.02621,0.992523 -0.577373,1.150701 -0.275583,0.07909 -0.69273,0.06807 -0.417147,-0.01102 -0.659782,-0.08939 -0.242636,-0.07838 -0.369436,-0.182489 -0.126801,-0.104109 -0.193785,-0.293005 -0.06546,-0.246434 -0.05217,-0.749888 l 0.127246,-4.818769 q -0.371384,0.43642 -1.087664,1.396326 -0.7159,0.945522 -0.909354,1.185118 -0.193454,0.239597 -0.268035,0.338388 -0.0742,0.08441 -0.366447,0.249423 -0.277481,0.151012 -0.608322,0.142275 -0.316457,-0.0084 -0.585962,-0.159417 -0.25474,-0.165065 -0.366017,-0.311948 l -0.110897,-0.161267 q -0.278192,-0.367206 -1.096103,-1.554752 -0.817532,-1.20193 -0.887175,-1.290136 l -0.128006,4.847538 q -0.0087,0.330841 -0.04206,0.502694 -0.01856,0.157848 -0.138956,0.356191 -0.226021,0.382681 -1.132238,0.358751 -0.877447,-0.02317 -1.082957,-0.417247 -0.109757,-0.20442 -0.133968,-0.377792 -0.0098,-0.172992 -7.1e-4,-0.518218 l 0.210811,-7.983333 q 0.0087,-0.330841 0.0273,-0.48869 0.03333,-0.171853 0.1541,-0.38458 0.225641,-0.368296 1.131857,-0.344366 0.388379,0.01026 0.659023,0.118163 0.285409,0.0939 0.369056,0.196873 l 0.08403,0.08859 3.152063,4.372771 q 2.530809,-3.171914 3.378068,-4.185939 0.25479,-0.381921 1.161006,-0.357991 0.920601,0.02431 1.111727,0.418006 z"
                 id="path125701"
                 style="font-weight:bold;font-size:14.3894px;line-height:0;font-family:'Fredoka One';-inkscape-font-specification:'Fredoka One Bold';letter-spacing:1.14px;word-spacing:0px;fill:url(#linearGradient125734);stroke:none;stroke-width:0.455" />
              <path
                 d="m 59.108741,32.249852 c 1.417,-0.08839 2.679252,0.347097 3.786755,1.306454 1.107503,0.959357 1.708732,2.200194 1.803689,3.722512 0.09436,1.512743 -0.322882,2.836332 -1.251724,3.970766 -0.929439,1.12486 -2.121808,1.732678 -3.577105,1.823455 -1.455297,0.09078 -2.728019,-0.358473 -3.818165,-1.347747 -1.080572,-0.989871 -1.666246,-2.212456 -1.757022,-3.667753 -0.04957,-0.794669 0.04776,-1.545638 0.291993,-2.252906 0.243633,-0.716842 0.590176,-1.324764 1.039629,-1.823766 0.449453,-0.499003 0.976984,-0.901954 1.582593,-1.208854 0.605609,-0.3069 1.238728,-0.480954 1.899357,-0.522161 z m -2.276068,5.577319 c 0.05315,0.852115 0.36932,1.529234 0.948499,2.031355 0.588157,0.491949 1.222124,0.716723 1.901901,0.674321 0.679777,-0.0424 1.27641,-0.339128 1.789897,-0.890185 0.513487,-0.551055 0.743057,-1.262214 0.688711,-2.133477 -0.05435,-0.871264 -0.375599,-1.552871 -0.963756,-2.04482 -0.578583,-0.492547 -1.207763,-0.717619 -1.88754,-0.675217 -0.679777,0.0424 -1.275812,0.348703 -1.788105,0.918908 -0.51289,0.560629 -0.742759,1.267 -0.689607,2.119115 z"
                 id="path125703"
                 style="font-weight:bold;font-size:14.3894px;line-height:0;font-family:'Fredoka One';-inkscape-font-specification:'Fredoka One Bold';letter-spacing:1.14px;word-spacing:0px;fill:url(#linearGradient125736);stroke:none;stroke-width:0.455"
                 sodipodi:nodetypes="ssscscscsssscssscscs" />
              <path
                 d="m 74.819295,39.38234 q 0.289484,0.48076 0.323251,0.7085 0.0802,0.540884 -0.747424,1.041812 -0.425935,0.266808 -0.710611,0.309018 -0.270442,0.0401 -0.474475,-0.06057 -0.19191,-0.117012 -0.298418,-0.246687 -0.182437,-0.249337 -1.492231,-2.411699 l -0.437026,0.09389 -1.793457,0.26592 0.238483,1.608418 q 0.04854,0.327377 0.0454,0.502403 0.009,0.158682 -0.07323,0.389073 -0.142291,0.413859 -1.053253,0.548929 -0.996365,0.147733 -1.245258,-0.353592 -0.121281,-0.229311 -0.195147,-0.727494 l -1.171311,-7.899752 q -0.04854,-0.327378 -0.05752,-0.48606 0.0031,-0.175026 0.08535,-0.405417 0.14229,-0.413859 1.053253,-0.548929 l 3.074498,-0.455861 q 1.252573,-0.185722 2.569048,0.550072 0.634776,0.356828 1.116709,1.056347 0.481934,0.699518 0.619114,1.624715 0.238483,1.608418 -0.674986,2.80577 0.424998,0.70796 1.299241,2.091192 z m -6.003945,-2.819195 1.821925,-0.27014 q 0.41278,-0.0612 0.77913,-0.435551 0.366349,-0.374347 0.273489,-1.000634 -0.09286,-0.626286 -0.552071,-0.878226 -0.461321,-0.266173 -0.902568,-0.200749 l -1.793458,0.265919 z"
                 id="path125705"
                 style="font-weight:bold;font-size:14.3894px;line-height:0;font-family:'Fredoka One';-inkscape-font-specification:'Fredoka One Bold';letter-spacing:1.14px;word-spacing:0px;fill:url(#linearGradient125738);stroke:none;stroke-width:0.455" />
              <path
                 d="m 75.154185,31.613741 q -0.07219,-0.322986 -0.09268,-0.480597 -0.0096,-0.174792 0.05568,-0.410546 0.11185,-0.423102 1.010594,-0.62399 0.983001,-0.219722 1.281697,0.259059 0.123575,0.223034 0.233436,0.714535 l 1.745217,7.807837 q 0.07533,0.337029 0.08178,0.497778 0.02049,0.15761 -0.04478,0.393365 -0.11185,0.423101 -1.010594,0.62399 -0.983001,0.219721 -1.270793,-0.276241 -0.134479,-0.205853 -0.24434,-0.697353 z"
                 id="path125707"
                 style="font-weight:bold;font-size:14.3894px;line-height:0;font-family:'Fredoka One';-inkscape-font-specification:'Fredoka One Bold';letter-spacing:1.14px;word-spacing:0px;fill:url(#linearGradient125740);stroke:none;stroke-width:0.455" />
              <path
                 d="m 84.27909,28.482599 6.425361,6.186958 q 0.398912,0.37425 0.483627,0.603733 0.179396,0.485963 -0.459031,1.16646 -0.37425,0.398912 -0.64423,0.498577 -0.25648,0.09468 -0.476816,0.03797 -0.206837,-0.06169 -0.337663,-0.166782 -0.117327,-0.110074 -0.351981,-0.330221 l -1.240135,-1.198762 -3.739216,1.380352 -0.163758,1.717017 q -0.03533,0.319812 -0.07147,0.471202 -0.02265,0.146407 -0.1483,0.346179 -0.117139,0.181289 -0.387118,0.280953 -0.256481,0.09468 -0.800161,0.03463 -0.92247,-0.08895 -1.101866,-0.574908 -0.08472,-0.229482 -0.02466,-0.773162 l 0.859102,-8.891397 q 0.03388,-0.365292 0.261087,-0.663908 0.240711,-0.3036 0.578186,-0.428181 0.728944,-0.269094 1.339045,0.303289 z m 0.102557,3.643395 -0.208231,2.178252 1.795363,-0.662768 z"
                 id="path125709"
                 style="font-weight:bold;font-size:14.3894px;line-height:0;font-family:'Fredoka One';-inkscape-font-specification:'Fredoka One Bold';letter-spacing:1.14px;word-spacing:0px;fill:url(#linearGradient125742);stroke:none;stroke-width:0.455" />
              <path
                 style="font-variation-settings:normal;opacity:0.587156;vector-effect:none;fill:url(#linearGradient131362);fill-opacity:1;stroke:none;stroke-width:0.931952;stroke-linecap:butt;stroke-linejoin:miter;stroke-miterlimit:4;stroke-dasharray:none;stroke-dashoffset:0;stroke-opacity:1;filter:url(#filter130443);stop-color:#000000;stop-opacity:1"
                 d="m 58.563421,29.503632 1.729847,-0.535428 0.431201,0.05696 c 0.289311,0.341609 0.518898,0.962103 0.516096,1.384578 0,0 -2.635957,1.235605 -2.883078,0.988484 -0.247121,-0.247121 -0.494242,-1.523914 -0.494242,-1.523914 z"
                 id="path127789"
                 sodipodi:nodetypes="ccccscc" />
            </g>
          </g>
        </g>
      </g>
      <text
         xml:space="preserve"
         style="font-weight:bold;font-size:6.417px;line-height:0;font-family:Montserrat;-inkscape-font-specification:'Montserrat Bold';word-spacing:0px;fill:#ffffff;stroke:none;stroke-width:0.336834"
         x="32.047855"
         y="-15.348392"
         id="text120333"><tspan
           sodipodi:role="line"
           id="tspan120331"
           x="32.047855"
           y="-15.348392"
           style="fill:#ffffff;stroke:none;stroke-width:0.336834" /></text>
    </g>
    <g
       inkscape:groupmode="layer"
       id="layer1"
       inkscape:label="text curves"
       style="display:none"
       sodipodi:insensitive="true">
      <path
         style="font-variation-settings:normal;vector-effect:none;fill:none;fill-opacity:1;stroke:#00ff00;stroke-width:1;stroke-linecap:butt;stroke-linejoin:miter;stroke-miterlimit:4;stroke-dasharray:none;stroke-dashoffset:0;stroke-opacity:1;stop-color:#000000"
         d="m 0.24996017,36.37155 c 0,0 13.95134983,2.16036 28.81267983,2.2541 10.29012,0.0649 21.73316,-1.16556 30.93784,-3.13799"
         id="path16332"
         sodipodi:nodetypes="csc" />
      <path
         style="font-variation-settings:normal;vector-effect:none;fill:none;fill-opacity:1;stroke:#00ff00;stroke-width:1;stroke-linecap:butt;stroke-linejoin:miter;stroke-miterlimit:4;stroke-dasharray:none;stroke-dashoffset:0;stroke-opacity:1;stop-color:#000000"
         d="M 0.18410017,48.21559 C 19.10921,56.16379 60.76787,54.54156 76.0213,45.21039"
         id="path17827"
         sodipodi:nodetypes="cc" />
    </g>
  </g>
</svg>
